<svg width="1200" height="641" viewBox="0 0 1200 641" fill="none" xmlns="http://www.w3.org/2000/svg">
<g clip-path="url(#clip0_3033_2250)">
<mask id="mask0_3033_2250" style="mask-type:luminance" maskUnits="userSpaceOnUse" x="0" y="0" width="1200" height="641">
<path d="M1200 0.5H0V640.5H1200V0.5Z" fill="white"/>
</mask>
<g mask="url(#mask0_3033_2250)">
<path d="M1200 0.5H0V640.5H1200V0.5Z" fill="#F8F8F8"/>
<g filter="url(#filter0_d_3033_2250)">
<path d="M1200 0.5H0V44.25H1200V0.5Z" fill="white"/>
<path d="M31.6375 27.4375C30.0458 27.4375 28.8125 27.0583 27.9375 26.3C27.0625 25.5333 26.625 24.4 26.625 22.9C26.625 21.4083 27.0625 20.2833 27.9375 19.525C28.8125 18.7583 30.075 18.375 31.725 18.375H33.975C35.625 18.375 36.8875 18.7583 37.7625 19.525C38.6375 20.2833 39.075 21.4083 39.075 22.9C39.075 24.4 38.6375 25.5333 37.7625 26.3C36.8875 27.0583 35.6458 27.4375 34.0375 27.4375H33.875V28.75H31.875V27.4375H31.6375ZM33.875 24.25V25.8125C34.95 25.8042 35.7458 25.5708 36.2625 25.1125C36.7792 24.6542 37.0375 23.9167 37.0375 22.9C37.0375 21.8833 36.775 21.1458 36.25 20.6875C35.7333 20.2292 34.9292 20 33.8375 20H31.8625C30.7792 20 29.975 20.2292 29.45 20.6875C28.925 21.1458 28.6625 21.8833 28.6625 22.9C28.6625 23.9167 28.925 24.6583 29.45 25.125C29.975 25.5833 30.7833 25.8125 31.875 25.8125V24.25H33.875ZM39.9458 24.45V23.0125H43.7708V24.45H39.9458ZM44.9551 27.375V20.9375H46.7676V27.375H44.9551ZM44.9426 19.875V18.4625H46.7801V19.875H44.9426ZM48.1411 27.375V20.9375H53.7536C54.4869 20.9375 55.0203 21.1208 55.3536 21.4875C55.6953 21.8458 55.8661 22.3208 55.8661 22.9125V27.375H54.0536V23.125C54.0536 22.625 53.8036 22.375 53.3036 22.375H49.9536V27.375H48.1411ZM60.5243 27.375C59.7993 27.375 59.266 27.1958 58.9243 26.8375C58.5826 26.4708 58.4118 25.9917 58.4118 25.4V22.375H56.5493V20.9375H58.4118V18.9625H60.2243V20.9375H62.8994V22.375H60.2243V25.175C60.2243 25.6833 60.4743 25.9375 60.9743 25.9375H63.2494V27.375H60.5243Z" fill="black"/>
<path d="M956 18.7398V23.636H952.5V18.7398H956ZM953.15 19.2781V23.0891H955.338V19.2781H953.15ZM958.063 17.9707V21.0041H959.337V21.5852H958.063V25.5671H957.394V17.9707H958.063ZM966.006 17.9707V25.5843H965.331V17.9707H966.006ZM961.969 18.5603C963.094 18.5689 963.906 19.5943 963.906 21.2093C963.906 22.8243 963.094 23.8496 961.969 23.8496C960.831 23.8496 960.025 22.8243 960.025 21.2093C960.025 19.5943 960.831 18.5689 961.969 18.5603ZM961.969 19.1585C961.206 19.167 960.675 19.9702 960.675 21.2093C960.675 22.4483 961.206 23.2515 961.969 23.2515C962.725 23.2515 963.256 22.4483 963.256 21.2093C963.256 19.9702 962.725 19.167 961.969 19.1585ZM976.038 17.9707V25.5671H975.387V17.9707H976.038ZM974.556 18.1587V25.1655H973.913V21.4656H972.85V20.8589H973.913V18.1587H974.556ZM973.075 18.9448V19.5003H972.431V23.0122C972.719 22.9951 972.994 22.9695 973.244 22.9353L973.288 23.431C972.094 23.6531 970.494 23.6873 969.506 23.6873L969.419 23.1148L970.219 23.1062V19.5003H969.581V18.9448H973.075ZM970.837 23.0976C971.15 23.0891 971.488 23.0763 971.813 23.055V19.5003H970.837V23.0976ZM983.331 17.9707V25.5843H982.656V17.9707H983.331ZM979.287 18.5603C980.412 18.5689 981.225 19.5943 981.225 21.2093C981.225 22.8243 980.412 23.8496 979.287 23.8496C978.15 23.8496 977.35 22.8243 977.35 21.2093C977.35 19.5943 978.15 18.5689 979.287 18.5603ZM979.287 19.1585C978.525 19.167 977.994 19.9702 977.994 21.2093C977.994 22.4483 978.525 23.2515 979.287 23.2515C980.05 23.2515 980.575 22.4483 980.575 21.2093C980.575 19.9702 980.05 19.167 979.287 19.1585ZM987.344 20.3035C987.344 21.5938 988.288 22.9011 989.406 23.3882L989.031 23.918C988.137 23.5121 987.369 22.6363 987.019 21.5852C986.662 22.7003 985.894 23.6702 985.031 24.106L984.625 23.5762C985.713 23.055 986.663 21.6194 986.669 20.3035V19.3123H984.875V18.7568H989.156V19.3123H987.344V20.3035ZM990.894 17.9707V25.5671H990.219V17.9707H990.894Z" fill="black"/>
<g filter="url(#filter1_d_3033_2250)">
<path d="M1103.12 11.125H1038.12C1036.4 11.125 1035 12.5241 1035 14.25V30.5C1035 32.2259 1036.4 33.625 1038.12 33.625H1103.12C1104.85 33.625 1106.25 32.2259 1106.25 30.5V14.25C1106.25 12.5241 1104.85 11.125 1103.12 11.125Z" fill="#00EDA6"/>
<path d="M1062.37 23.4962V24.0199H1055.91V23.4962H1058.81V22.1632H1056.72V19.9891H1060.94V18.8783H1056.71V18.3626H1061.55V20.4969H1057.34V21.6474H1061.72V22.1632H1059.43V23.4962H1062.37ZM1068.49 18.5926V19.2988C1068.49 20.1875 1068.49 21.1952 1068.23 22.7266L1067.6 22.6631C1067.88 21.219 1067.88 20.1637 1067.88 19.2988V19.1084H1063.63V18.5926H1068.49ZM1069.36 23.3375V23.8532H1062.93V23.3375H1069.36ZM1071.84 18.3864C1072.88 18.3943 1073.62 19.3464 1073.63 20.8461C1073.62 22.3457 1072.88 23.2979 1071.84 23.2979C1070.79 23.2979 1070.07 22.3457 1070.07 20.8461C1070.07 19.3464 1070.79 18.3943 1071.84 18.3864ZM1071.84 18.9417C1071.14 18.9497 1070.65 19.6956 1070.65 20.8461C1070.65 21.9966 1071.14 22.7424 1071.84 22.7424C1072.55 22.7424 1073.03 21.9966 1073.03 20.8461C1073.03 19.6956 1072.55 18.9497 1071.84 18.9417ZM1075.41 17.8389V20.6556H1076.59V21.1952H1075.41V24.8927H1074.79V17.8389H1075.41ZM1083.43 21.0603V21.5999H1080.48V22.3695H1079.88V21.5999H1076.98V21.0603H1083.43ZM1080.49 22.917C1080.49 23.6946 1081.64 24.2579 1082.91 24.3849L1082.71 24.8609C1081.6 24.7419 1080.59 24.3135 1080.18 23.6311C1079.76 24.3056 1078.76 24.7419 1077.65 24.8609L1077.44 24.3849C1078.71 24.2579 1079.86 23.6866 1079.86 22.917V22.6869H1080.49V22.917ZM1080.19 17.9579C1081.74 17.9579 1082.68 18.4181 1082.68 19.2433C1082.68 20.0606 1081.74 20.5366 1080.19 20.5287C1078.64 20.5366 1077.69 20.0606 1077.69 19.2433C1077.69 18.4181 1078.64 17.9579 1080.19 17.9579ZM1080.19 18.4339C1079.04 18.426 1078.33 18.7355 1078.33 19.2433C1078.33 19.7432 1079.04 20.0447 1080.19 20.0447C1081.33 20.0447 1082.05 19.7432 1082.05 19.2433C1082.05 18.7355 1081.33 18.426 1080.19 18.4339Z" fill="black"/>
</g>
</g>
<g filter="url(#filter2_i_3033_2250)">
<path d="M1099.38 85.5H100.625C97.1732 85.5 94.375 88.2982 94.375 91.75V199.875C94.375 203.327 97.1732 206.125 100.625 206.125H1099.38C1102.83 206.125 1105.62 203.327 1105.62 199.875V91.75C1105.62 88.2982 1102.83 85.5 1099.38 85.5Z" fill="white"/>
<path d="M438.515 137.219V144.094H441.425V145.382H438.515V154.621H436.992V137.219H438.515ZM433.945 138.918V140.188H427.363V148.976C430.507 148.976 432.734 148.83 435.312 148.351L435.507 149.68C432.793 150.168 430.507 150.266 427.207 150.266H425.84V138.918H433.945ZM450.274 137.609C454.043 137.609 456.406 138.82 456.406 140.91C456.406 142.961 454.043 144.152 450.274 144.152C446.504 144.152 444.121 142.961 444.121 140.91C444.121 138.82 446.504 137.609 450.274 137.609ZM450.274 138.84C447.461 138.84 445.684 139.621 445.703 140.91C445.684 142.18 447.461 142.922 450.274 142.941C453.047 142.922 454.844 142.18 454.844 140.91C454.844 139.621 453.047 138.84 450.274 138.84ZM456.25 148.644V154.348H444.297V148.644H456.25ZM445.82 149.875V153.098H454.746V149.875H445.82ZM458.184 145.656V146.926H442.363V145.656H458.184ZM480.488 145.344V146.613H473.32V148.469C476.601 148.606 478.535 149.68 478.555 151.516C478.535 153.449 476.309 154.543 472.578 154.543C468.809 154.543 466.582 153.449 466.582 151.516C466.582 149.68 468.505 148.606 471.816 148.469V146.613H464.668V145.344H480.488ZM472.578 149.641C469.785 149.66 468.125 150.344 468.144 151.516C468.125 152.668 469.785 153.351 472.578 153.351C475.332 153.351 477.012 152.668 477.012 151.516C477.012 150.344 475.332 149.66 472.578 149.641ZM479.082 138.039V139.289H473.574C473.672 141.242 476.543 142.756 479.609 143.078L479.043 144.289C476.201 143.947 473.535 142.677 472.578 140.734C471.63 142.677 468.974 143.947 466.113 144.289L465.566 143.078C468.574 142.756 471.465 141.242 471.582 139.289H466.113V138.039H479.082ZM494.882 138.351C498.574 138.371 501.23 140.168 501.23 142.902C501.23 145.49 498.925 147.209 495.625 147.414V151.066H502.871V152.356H486.972V151.066H494.121V147.414C490.83 147.199 488.535 145.481 488.535 142.902C488.535 140.168 491.191 138.371 494.882 138.351ZM494.882 139.621C492.07 139.621 490.019 140.949 490.019 142.902C490.019 144.914 492.07 146.203 494.882 146.223C497.695 146.203 499.746 144.914 499.746 142.902C499.746 140.949 497.695 139.621 494.882 139.621ZM518.652 137.219V147.57H517.109V143.019H513.613V141.75H517.109V137.219H518.652ZM512.89 148.118C516.504 148.118 518.711 149.289 518.711 151.34C518.711 153.391 516.504 154.563 512.89 154.582C509.277 154.563 507.07 153.391 507.07 151.34C507.07 149.289 509.277 148.118 512.89 148.118ZM512.89 149.309C510.234 149.309 508.574 150.07 508.594 151.34C508.574 152.59 510.234 153.351 512.89 153.351C515.547 153.351 517.187 152.59 517.187 151.34C517.187 150.07 515.547 149.309 512.89 149.309ZM510.293 140.402C510.293 142.668 512.031 144.816 514.57 145.695L513.769 146.926C511.816 146.223 510.302 144.768 509.57 142.961C508.809 145.002 507.197 146.632 505.137 147.414L504.336 146.184C506.914 145.246 508.75 142.903 508.75 140.422V139.777H504.824V138.488H514.18V139.777H510.293V140.402ZM530.254 138.274C530.254 140.481 533.418 142.414 536.465 142.863L535.859 144.055C533.193 143.625 530.566 142.238 529.472 140.266C528.359 142.258 525.713 143.625 523.047 144.055L522.461 142.863C525.527 142.414 528.672 140.519 528.672 138.274V137.453H530.254V138.274ZM537.363 145.441V146.711H530.195V148.938H535.41V154.582H533.867V150.188H523.3V148.938H528.691V146.711H521.543V145.441H537.363ZM549.785 140.5C549.785 142.922 551.543 145.207 554.082 146.125L553.222 147.316C551.318 146.555 549.805 145.041 549.062 143.156C548.32 145.256 546.738 146.926 544.687 147.746L543.867 146.496C546.465 145.539 548.262 143.118 548.281 140.441V138.293H549.785V140.5ZM558.242 137.238V150.246H556.699V142.609H552.832V141.32H556.699V137.238H558.242ZM558.632 152.922V154.211H547.012V148.762H548.555V152.922H558.632ZM566.309 140.676C566.309 142.59 567.656 144.543 569.882 145.382L569.082 146.555C567.412 145.91 566.211 144.67 565.586 143.176C564.941 144.836 563.701 146.311 561.992 147.043L561.152 145.851C563.437 144.856 564.844 142.609 564.844 140.676V138.312H566.309V140.676ZM575.879 137.238V147.961H574.414V143.176H572.109V147.414H570.664V137.57H572.109V141.906H574.414V137.238H575.879ZM570.137 148.351C573.73 148.351 575.976 149.484 575.976 151.457C575.976 153.41 573.73 154.543 570.137 154.543C566.524 154.543 564.297 153.41 564.316 151.457C564.297 149.484 566.524 148.351 570.137 148.351ZM570.137 149.524C567.48 149.524 565.82 150.246 565.84 151.457C565.82 152.649 567.48 153.351 570.137 153.351C572.774 153.351 574.434 152.649 574.453 151.457C574.434 150.246 572.774 149.524 570.137 149.524ZM592.734 137.219V147.082H591.23V137.219H592.734ZM581.055 138.254V144.445C583.925 144.436 586.504 144.24 589.257 143.644L589.492 144.934C586.562 145.519 583.925 145.734 580.918 145.754H579.512V138.254H581.055ZM592.734 147.882V154.348H581.465V147.882H592.734ZM582.969 149.113V153.098H591.23V149.113H582.969ZM601.387 138.488C604.121 138.488 606.055 140.149 606.055 142.57C606.055 144.992 604.121 146.652 601.387 146.652C598.652 146.652 596.68 144.992 596.699 142.57C596.68 140.149 598.652 138.488 601.387 138.488ZM601.387 139.836C599.531 139.836 598.184 140.949 598.203 142.57C598.184 144.191 599.531 145.305 601.387 145.305C603.222 145.305 604.55 144.191 604.55 142.57C604.55 140.949 603.222 139.836 601.387 139.836ZM609.941 137.219V154.621H608.418V137.219H609.941ZM595.8 149.484C599.004 149.484 603.418 149.465 607.265 148.899L607.382 150.031C603.418 150.774 599.14 150.793 596.015 150.793L595.8 149.484ZM627.637 139.152V140.051C627.619 141.418 627.619 143.722 627.131 146.945L625.587 146.809C626.056 143.899 626.094 141.789 626.094 140.402H618.809V139.152H627.637ZM623.086 144.113V149.387C625.012 149.318 626.981 149.191 628.787 148.976L628.869 150.129C625.212 150.695 621.132 150.774 618.027 150.754L617.832 149.484C618.974 149.474 620.244 149.465 621.582 149.426V144.113H623.086ZM631.406 137.219V144.484H634.219V145.812H631.406V154.582H629.881V137.219H631.406ZM649.1 137.961V143.82H643.962V146.047H651.112V147.297H635.294V146.047H642.444V143.82H637.344V137.961H649.1ZM638.85 139.191V142.59H647.575V139.191H638.85ZM649.162 149.113V154.582H647.619V150.344H637.05V149.113H649.162ZM660.487 138.351C664.119 138.351 666.837 140.246 666.837 143.118C666.837 146.008 664.119 147.902 660.487 147.882C656.856 147.902 654.137 146.008 654.137 143.118C654.137 140.246 656.856 138.351 660.487 138.351ZM660.487 139.601C657.694 139.582 655.587 141.047 655.606 143.118C655.587 145.226 657.694 146.632 660.487 146.632C663.262 146.632 665.35 145.226 665.35 143.118C665.35 141.047 663.262 139.582 660.487 139.601ZM668.475 150.988V152.277H652.575V150.988H668.475ZM685.762 151.144V152.434H669.862V151.144H677.012V147.863H671.856V142.512H682.244V139.777H671.819V138.507H683.75V143.762H673.381V146.594H684.162V147.863H678.512V151.144H685.762ZM699.319 147.512V151.379H695.256V153.215C697.469 153.205 698.625 153.137 700.075 152.882L700.256 154.055C698.612 154.368 697.362 154.387 694.762 154.387H693.825V150.266H697.85V148.684H693.75V147.512H699.319ZM707.287 148.371V149.543H699.925V148.371H702.831V146.945H704.319V148.371H707.287ZM703.594 150.168C705.256 150.168 706.525 150.988 706.525 152.375C706.525 153.722 705.256 154.543 703.594 154.543C701.912 154.543 700.662 153.722 700.662 152.375C700.662 150.988 701.912 150.168 703.594 150.168ZM703.594 151.184C702.619 151.184 701.95 151.652 701.95 152.375C701.95 153.078 702.619 153.507 703.594 153.507C704.531 153.507 705.194 153.078 705.212 152.375C705.194 151.652 704.531 151.184 703.594 151.184ZM700.075 137.434C703.944 137.434 706.212 138.488 706.212 140.441C706.212 142.268 704.231 143.312 700.8 143.449V144.757H707.987V146.007H692.169V144.757H699.3V143.449C695.906 143.302 693.925 142.258 693.925 140.441C693.925 138.488 696.212 137.434 700.075 137.434ZM700.075 138.606C697.187 138.625 695.506 139.289 695.525 140.441C695.506 141.613 697.187 142.277 700.075 142.277C702.95 142.277 704.65 141.613 704.65 140.441C704.65 139.289 702.95 138.625 700.075 138.606ZM725.275 146.379V147.629H709.45V146.379H725.275ZM723.512 152.922V154.211H711.506V149.152H713.05V152.922H723.512ZM717.362 137.844C721.094 137.824 723.494 139.113 723.494 141.281C723.494 143.449 721.094 144.738 717.362 144.738C713.594 144.738 711.212 143.449 711.212 141.281C711.212 139.113 713.594 137.824 717.362 137.844ZM717.362 139.074C714.569 139.074 712.775 139.914 712.794 141.281C712.775 142.649 714.569 143.488 717.362 143.488C720.137 143.488 721.931 142.649 721.931 141.281C721.931 139.914 720.137 139.074 717.362 139.074ZM746.15 137.238V148.996H744.612V143.41H740.8V142.121H744.612V137.238H746.15ZM740.725 138.606C740.7 143.059 737.737 146.262 732.737 147.863L732.05 146.632C736.2 145.354 738.762 142.941 739.081 139.856H732.912V138.606H740.725ZM741.269 148.274C741.269 150.813 744.044 152.707 747.112 153.254L746.462 154.484C743.906 153.986 741.55 152.649 740.525 150.618C739.462 152.658 737.081 154.016 734.494 154.524L733.869 153.312C736.931 152.785 739.744 150.832 739.762 148.274V147.473H741.269V148.274ZM764.862 146.379V147.629H749.044V146.379H764.862ZM763.106 152.922V154.211H751.094V149.152H752.637V152.922H763.106ZM756.95 137.844C760.681 137.824 763.087 139.113 763.087 141.281C763.087 143.449 760.681 144.738 756.95 144.738C753.181 144.738 750.8 143.449 750.8 141.281C750.8 139.113 753.181 137.824 756.95 137.844ZM756.95 139.074C754.162 139.074 752.362 139.914 752.381 141.281C752.362 142.649 754.162 143.488 756.95 143.488C759.725 143.488 761.525 142.649 761.525 141.281C761.525 139.914 759.725 139.074 756.95 139.074ZM769.1 148.918C769.119 146.301 769.925 145.5 771.269 144.68C772.069 144.191 772.694 143.41 772.694 142.316C772.694 140.988 771.662 140.149 770.369 140.149C769.256 140.149 768.144 140.812 768.025 142.414H766.25C766.35 140.051 768.144 138.664 770.369 138.664C772.812 138.664 774.412 140.246 774.412 142.394C774.412 143.918 773.694 144.992 772.481 145.734C771.269 146.476 770.819 147.219 770.781 148.918V149.016H769.1V148.918ZM770 153.118C769.319 153.118 768.731 152.551 768.75 151.848C768.731 151.164 769.319 150.598 770 150.598C770.681 150.598 771.25 151.164 771.25 151.848C771.25 152.551 770.681 153.118 770 153.118Z" fill="black"/>
</g>
<path d="M1093.12 579.875H1020C1016.55 579.875 1013.75 582.673 1013.75 586.125V608C1013.75 611.452 1016.55 614.25 1020 614.25H1093.12C1096.58 614.25 1099.38 611.452 1099.38 608V586.125C1099.38 582.673 1096.58 579.875 1093.12 579.875Z" fill="#265CFF"/>
<path d="M1037.84 591.004H1038.99V603.461H1037.84V591.004ZM1038.72 595.913H1041.03V596.875H1038.72V595.913ZM1029.96 599.405H1030.94C1033.23 599.405 1034.84 599.323 1036.7 598.979L1036.82 599.941C1034.91 600.299 1033.27 600.368 1030.94 600.368H1029.96V599.405ZM1029.96 592.214H1035.74V593.149H1031.09V599.831H1029.96V592.214ZM1047.69 591.293C1050.37 591.293 1052.07 592.173 1052.07 593.644C1052.07 595.115 1050.37 595.981 1047.69 595.981C1045 595.981 1043.32 595.115 1043.32 593.644C1043.32 592.173 1045 591.293 1047.69 591.293ZM1047.69 592.2C1045.72 592.2 1044.49 592.723 1044.49 593.644C1044.49 594.551 1045.72 595.088 1047.69 595.088C1049.66 595.088 1050.9 594.551 1050.9 593.644C1050.9 592.723 1049.66 592.2 1047.69 592.2ZM1043.45 599.185H1051.93V603.283H1043.45V599.185ZM1050.82 600.106H1044.57V602.361H1050.82V600.106ZM1042.07 597.054H1053.31V597.975H1042.07V597.054ZM1058.59 597.37H1069.85V598.305H1058.59V597.37ZM1063.73 597.948H1064.87V600.808H1063.73V597.948ZM1060.03 591.595H1068.39V595.968H1060.03V591.595ZM1067.26 592.516H1061.14V595.046H1067.26V592.516ZM1060.02 602.238H1068.6V603.173H1060.02V602.238ZM1060.02 599.611H1061.14V602.568H1060.02V599.611ZM1080.7 591.018H1081.8V603.448H1080.7V591.018ZM1076.17 595.473H1078.55V596.421H1076.17V595.473ZM1078.21 591.306H1079.28V602.815H1078.21V591.306ZM1073.78 592.943H1074.66V594.524C1074.66 597.246 1073.62 599.818 1071.79 600.973L1071.09 600.12C1072.82 599.075 1073.78 596.806 1073.78 594.524V592.943ZM1074.01 592.943H1074.89V594.524C1074.89 596.683 1075.83 598.841 1077.54 599.831L1076.83 600.67C1075.02 599.57 1074.01 597.123 1074.01 594.524V592.943ZM1071.43 592.461H1077.11V593.41H1071.43V592.461Z" fill="white"/>
<path d="M1092.5 253H106.875C101.697 253 97.5 257.197 97.5 262.375V310.5C97.5 315.678 101.697 319.875 106.875 319.875H1092.5C1097.68 319.875 1101.88 315.678 1101.88 310.5V262.375C1101.88 257.197 1097.68 253 1092.5 253Z" fill="#E4F9F3"/>
<path d="M134.988 280.451V281.265C134.971 282.504 134.971 284.592 134.528 287.513L133.13 287.389C133.555 284.752 133.59 282.84 133.59 281.583H126.988V280.451H134.988ZM130.864 284.946V289.726C132.607 289.664 134.396 289.549 136.032 289.354L136.104 290.398C132.794 290.911 129.094 290.982 126.28 290.964L126.103 289.814C127.138 289.805 128.289 289.796 129.501 289.761V284.946H130.864ZM138.404 278.698V285.282H140.953V286.486H138.404V294.434H137.024V278.698H138.404ZM151.343 280.397V281.53H141.962V280.397H145.962V278.627H147.343V280.397H151.343ZM146.653 282.344C148.919 282.362 150.423 283.459 150.441 285.194C150.423 286.911 148.919 288.026 146.653 288.026C144.387 288.026 142.847 286.911 142.865 285.194C142.847 283.459 144.387 282.362 146.653 282.344ZM146.653 283.424C145.166 283.442 144.175 284.132 144.192 285.194C144.175 286.239 145.166 286.911 146.653 286.911C148.122 286.911 149.113 286.239 149.131 285.194C149.113 284.132 148.122 283.442 146.653 283.424ZM154.229 278.698V283.07H156.601V284.238H154.229V288.539H152.848V278.698H154.229ZM154.229 289.407V294.434H152.848V290.539H143.927V289.407H154.229Z" fill="black"/>
<path d="M1092.5 333.625H106.875C101.697 333.625 97.5 337.822 97.5 343V391.125C97.5 396.303 101.697 400.5 106.875 400.5H1092.5C1097.68 400.5 1101.88 396.303 1101.88 391.125V343C1101.88 337.822 1097.68 333.625 1092.5 333.625Z" fill="#E4F9F3"/>
<path d="M131.537 363.554C131.537 366.333 133.377 369.183 135.608 370.279L134.758 371.395C133.024 370.483 131.572 368.625 130.882 366.439C130.174 368.766 128.687 370.749 126.917 371.696L126.032 370.581C128.333 369.448 130.156 366.421 130.174 363.554V360.686H131.537V363.554ZM138.44 359.323V365.713H141.077V366.917H138.44V375.059H137.059V359.323H138.44ZM154.83 359.323V375.059H153.45V359.323H154.83ZM142.015 370.864C143.36 370.855 144.9 370.846 146.494 370.793V369.076C144.609 368.873 143.378 367.802 143.396 366.226C143.378 364.456 144.9 363.306 147.166 363.306C149.432 363.306 150.972 364.456 150.972 366.226C150.972 367.784 149.75 368.855 147.892 369.058V370.74C149.414 370.678 150.954 370.563 152.405 370.368L152.512 371.43C149.007 371.997 145.148 372.049 142.227 372.049L142.015 370.864ZM151.998 361.27V362.403H142.352V361.27H146.494V359.341H147.892V361.27H151.998ZM147.166 364.386C145.715 364.386 144.688 365.129 144.688 366.226C144.688 367.324 145.715 368.032 147.166 368.014C148.635 368.032 149.644 367.324 149.644 366.226C149.644 365.129 148.635 364.386 147.166 364.386Z" fill="black"/>
<path d="M1150.24 305.85H1085.04C1068.7 305.85 1055.46 319.097 1055.46 335.437C1055.46 351.778 1068.7 365.024 1085.04 365.024H1150.24C1166.58 365.024 1179.83 351.778 1179.83 335.437C1179.83 319.097 1166.58 305.85 1150.24 305.85Z" fill="white"/>
<path d="M1150.24 305.85H1085.04C1068.7 305.85 1055.46 319.097 1055.46 335.437C1055.46 351.778 1068.7 365.024 1085.04 365.024H1150.24C1166.58 365.024 1179.83 351.778 1179.83 335.437C1179.83 319.097 1166.58 305.85 1150.24 305.85Z" stroke="black"/>
<path d="M1070.38 325.539V326.193C1070.38 326.863 1070.38 327.649 1070.17 328.674H1071.39V329.299H1063.49V328.674H1069.41C1069.49 328.259 1069.54 327.888 1069.57 327.551L1064.37 327.776L1064.27 327.16L1069.61 326.994C1069.62 326.716 1069.62 326.448 1069.62 326.193V326.164H1064.48V325.539H1070.38ZM1070.45 330.139V332.141H1065.19V333.059H1070.75V333.674H1064.43V331.555H1069.69V330.734H1064.41V330.139H1070.45ZM1079.29 325.119V330.422H1078.52V325.119H1079.29ZM1079.29 330.891V333.791H1078.52V331.526H1073.45V330.891H1079.29ZM1076.52 325.637V328.029H1073.32V329.289C1074.88 329.289 1076.04 329.24 1077.44 329.026L1077.53 329.651C1076.08 329.875 1074.88 329.924 1073.28 329.924H1072.58V327.424H1075.76V326.262H1072.56V325.637H1076.52ZM1084.72 325.266C1086.65 325.266 1087.78 325.793 1087.78 326.76C1087.78 327.746 1086.65 328.274 1084.72 328.283C1082.78 328.274 1081.64 327.746 1081.64 326.76C1081.64 325.793 1082.78 325.266 1084.72 325.266ZM1084.72 325.842C1083.27 325.842 1082.43 326.193 1082.44 326.76C1082.43 327.365 1083.27 327.697 1084.72 327.697C1086.15 327.697 1087 327.365 1087 326.76C1087 326.193 1086.15 325.842 1084.72 325.842ZM1088.67 328.869V329.494H1080.76V328.869H1088.67ZM1087.66 330.246V332.189H1082.5V333.088H1087.92V333.693H1081.74V331.623H1086.91V330.832H1081.72V330.246H1087.66ZM1098.7 325.119V327.981H1100.01V328.625H1098.7V331.623H1097.94V325.119H1098.7ZM1097.11 326.184V326.809H1091.93V326.184H1094.14V325.119H1094.9V326.184H1097.11ZM1094.52 327.287C1095.76 327.287 1096.6 327.922 1096.61 328.908C1096.6 329.885 1095.76 330.51 1094.52 330.51C1093.27 330.51 1092.42 329.885 1092.43 328.908C1092.42 327.922 1093.27 327.287 1094.52 327.287ZM1094.52 327.893C1093.7 327.893 1093.16 328.293 1093.16 328.908C1093.16 329.524 1093.7 329.914 1094.52 329.904C1095.33 329.914 1095.88 329.524 1095.89 328.908C1095.88 328.293 1095.33 327.893 1094.52 327.893ZM1099.1 332.961V333.606H1093.27V331.106H1094.02V332.961H1099.1ZM1110.26 325.119V331.545H1109.49V328.205H1107.44V330.061H1103.51V325.695H1104.27V327.238H1106.69V325.695H1107.44V327.561H1109.49V325.119H1110.26ZM1110.46 332.961V333.606H1104.65V330.91H1105.42V332.961H1110.46ZM1104.27 329.426H1106.69V327.844H1104.27V329.426ZM1118.42 325.109V328.693H1119.88V329.328H1118.42V333.791H1117.67V325.109H1118.42ZM1116.82 326.506V327.141H1111.66V326.506H1113.89V325.217H1114.66V326.506H1116.82ZM1114.29 327.863C1115.52 327.863 1116.41 328.684 1116.42 329.856C1116.41 331.027 1115.52 331.848 1114.29 331.848C1113.05 331.848 1112.15 331.027 1112.16 329.856C1112.15 328.684 1113.05 327.863 1114.29 327.863ZM1114.29 328.508C1113.47 328.508 1112.88 329.074 1112.89 329.856C1112.88 330.646 1113.47 331.203 1114.29 331.193C1115.09 331.203 1115.67 330.646 1115.68 329.856C1115.67 329.074 1115.09 328.508 1114.29 328.508ZM1124.74 325.871V326.643H1126.77V325.119H1127.55V331.457H1126.77V329.143H1124.74V329.924H1120.76V325.871H1124.74ZM1121.52 326.506V329.309H1123.99V326.506H1121.52ZM1127.74 332.961V333.606H1121.93V330.891H1122.71V332.961H1127.74ZM1124.74 328.508H1126.77V327.287H1124.74V328.508ZM1134.47 326.75C1134.47 327.961 1135.35 329.104 1136.62 329.562L1136.19 330.158C1135.24 329.778 1134.48 329.021 1134.11 328.078C1133.74 329.128 1132.95 329.963 1131.92 330.373L1131.51 329.748C1132.81 329.269 1133.71 328.059 1133.72 326.721V325.646H1134.47V326.75ZM1138.7 325.119V331.623H1137.93V327.805H1135.99V327.16H1137.93V325.119H1138.7ZM1138.89 332.961V333.606H1133.09V330.881H1133.86V332.961H1138.89ZM1143.91 325.744V326.389H1141.27V327.473H1143.81V328.078H1141.27V329.279C1142.53 329.274 1143.33 329.231 1144.26 329.045L1144.34 329.68C1143.32 329.875 1142.5 329.924 1141.08 329.924H1140.54V325.744H1143.91ZM1147.52 325.119V330.383H1146.79V328.01H1145.57V330.324H1144.86V325.285H1145.57V327.385H1146.79V325.119H1147.52ZM1147.52 330.832V333.791H1146.77V331.457H1141.67V330.832H1147.52ZM1150.21 332.346L1149.46 335.002H1148.73L1149.27 332.346H1150.21ZM1070.4 340.236V340.851H1064.57V337.502H1070.28V338.137H1065.35V340.236H1070.4ZM1071.42 342.004V342.629H1067.79V345.637H1067.04V342.629H1063.47V342.004H1071.42ZM1081.82 336.994V343.42H1081.06V340.08H1079.01V341.936H1075.07V337.57H1075.83V339.113H1078.25V337.57H1079.01V339.436H1081.06V336.994H1081.82ZM1082.02 344.836V345.481H1076.21V342.785H1076.98V344.836H1082.02ZM1075.83 341.301H1078.25V339.719H1075.83V341.301ZM1092.5 336.984V340.568H1093.96V341.203H1092.5V345.666H1091.74V336.984H1092.5ZM1090.9 338.381V339.016H1085.73V338.381H1087.97V337.092H1088.73V338.381H1090.9ZM1088.36 339.738C1089.59 339.738 1090.48 340.559 1090.49 341.731C1090.48 342.902 1089.59 343.723 1088.36 343.723C1087.12 343.723 1086.22 342.902 1086.23 341.731C1086.22 340.559 1087.12 339.738 1088.36 339.738ZM1088.36 340.383C1087.55 340.383 1086.96 340.949 1086.96 341.731C1086.96 342.521 1087.55 343.078 1088.36 343.068C1089.16 343.078 1089.74 342.521 1089.76 341.731C1089.74 340.949 1089.16 340.383 1088.36 340.383ZM1101.86 336.984V345.666H1101.12V336.984H1101.86ZM1100.03 337.219V345.226H1099.3V341.174H1097.46C1096.93 342.184 1096.09 343.078 1094.88 343.791L1094.43 343.234C1096.32 342.116 1097.27 340.549 1097.41 338.732H1094.81V338.098H1098.17C1098.17 338.952 1098.03 339.778 1097.74 340.549H1099.3V337.219H1100.03ZM1110.75 340.734V341.369H1108.85V343.078C1109.7 343.044 1110.55 342.986 1111.36 342.893L1111.42 343.469C1109.49 343.752 1107.39 343.781 1105.73 343.781L1105.62 343.137C1106.38 343.137 1107.22 343.132 1108.09 343.107V341.369H1106.29V337.814H1110.71V338.439H1107.04V340.734H1110.75ZM1112.69 336.984V345.686H1111.93V336.984H1112.69ZM1118.61 337.746V338.518H1120.64V336.994H1121.42V343.332H1120.64V341.018H1118.61V341.799H1114.63V337.746H1118.61ZM1115.39 338.381V341.184H1117.86V338.381H1115.39ZM1121.61 344.836V345.481H1115.8V342.766H1116.57V344.836H1121.61ZM1118.61 340.383H1120.64V339.162H1118.61V340.383ZM1127.91 339.651C1127.91 341.037 1128.62 342.463 1129.81 343.098L1129.36 343.674C1128.5 343.2 1127.87 342.311 1127.56 341.262C1127.24 342.375 1126.62 343.342 1125.76 343.849L1125.3 343.283C1126.47 342.599 1127.17 341.086 1127.19 339.651V339.25H1125.51V338.615H1127.19V337.307H1127.92V338.615H1129.58V339.25H1127.91V339.651ZM1132.83 336.984V345.666H1132.09V341.154H1130.91V345.226H1130.17V337.17H1130.91V340.5H1132.09V336.984H1132.83ZM1141.21 336.984V342.072H1140.44V339.807H1138.68V339.162H1140.44V336.984H1141.21ZM1141.21 342.502V345.549H1135.54V342.502H1141.21ZM1136.3 343.117V344.924H1140.46V343.117H1136.3ZM1137.03 338.527C1137.03 339.651 1137.9 340.734 1139.17 341.184L1138.77 341.789C1137.79 341.438 1137.03 340.705 1136.66 339.807C1136.28 340.807 1135.48 341.608 1134.46 341.984L1134.05 341.379C1135.33 340.92 1136.26 339.767 1136.26 338.527V338.186H1134.3V337.551H1138.97V338.186H1137.03V338.527ZM1149.81 336.984V345.686H1149.04V336.984H1149.81ZM1145.19 337.658C1146.49 337.668 1147.41 338.84 1147.41 340.686C1147.41 342.531 1146.49 343.703 1145.19 343.703C1143.89 343.703 1142.98 342.531 1142.98 340.686C1142.98 338.84 1143.89 337.668 1145.19 337.658ZM1145.19 338.342C1144.33 338.351 1143.72 339.269 1143.72 340.686C1143.72 342.101 1144.33 343.019 1145.19 343.019C1146.06 343.019 1146.67 342.101 1146.67 340.686C1146.67 339.269 1146.06 338.351 1145.19 338.342ZM1153.7 343.137C1154.26 343.137 1154.96 343.132 1155.68 343.107V341.369H1154.17V337.873H1157.86V338.508H1154.92V340.734H1157.94V341.369H1156.42V343.078C1157.06 343.049 1157.7 343.005 1158.25 342.941L1158.29 343.498C1156.86 343.742 1155 343.781 1153.82 343.781L1153.7 343.137ZM1161.19 336.984V345.666H1160.45V341.232H1159.36V345.207H1158.65V337.18H1159.36V340.607H1160.45V336.984H1161.19ZM1170.4 343.908V344.553H1162.45V343.908H1164.42V341.564C1163.68 341.179 1163.23 340.554 1163.23 339.768C1163.23 338.42 1164.55 337.541 1166.41 337.531C1168.26 337.541 1169.58 338.42 1169.58 339.768C1169.58 340.539 1169.14 341.159 1168.42 341.545V343.908H1170.4ZM1166.41 338.166C1164.98 338.156 1163.97 338.801 1163.97 339.768C1163.97 340.734 1164.98 341.389 1166.41 341.389C1167.82 341.389 1168.84 340.734 1168.84 339.768C1168.84 338.801 1167.82 338.156 1166.41 338.166ZM1165.17 343.908H1167.66V341.838C1167.28 341.941 1166.86 341.994 1166.41 341.994C1165.96 341.994 1165.55 341.945 1165.17 341.848V343.908Z" fill="black"/>
<path d="M1061.74 317.029L1031.25 302.375" stroke="black"/>
<path d="M1092.5 414.25H106.875C101.697 414.25 97.5 418.447 97.5 423.625V471.75C97.5 476.928 101.697 481.125 106.875 481.125H1092.5C1097.68 481.125 1101.88 476.928 1101.88 471.75V423.625C1101.88 418.447 1097.68 414.25 1092.5 414.25Z" fill="#E4F9F3"/>
<path d="M134.988 441.701V442.515C134.971 443.754 134.971 445.842 134.528 448.763L133.13 448.639C133.555 446.002 133.59 444.09 133.59 442.833H126.988V441.701H134.988ZM130.864 446.196V450.976C132.607 450.914 134.396 450.799 136.032 450.604L136.104 451.648C132.794 452.161 129.094 452.232 126.28 452.214L126.103 451.064C127.138 451.055 128.289 451.046 129.501 451.011V446.196H130.864ZM138.404 439.948V446.532H140.953V447.736H138.404V455.684H137.024V439.948H138.404ZM151.343 441.647V442.78H141.962V441.647H145.962V439.877H147.343V441.647H151.343ZM146.653 443.594C148.919 443.612 150.423 444.709 150.441 446.444C150.423 448.161 148.919 449.276 146.653 449.276C144.387 449.276 142.847 448.161 142.865 446.444C142.847 444.709 144.387 443.612 146.653 443.594ZM146.653 444.674C145.166 444.692 144.175 445.382 144.192 446.444C144.175 447.489 145.166 448.161 146.653 448.161C148.122 448.161 149.113 447.489 149.131 446.444C149.113 445.382 148.122 444.692 146.653 444.674ZM154.229 439.948V444.32H156.601V445.488H154.229V449.789H152.848V439.948H154.229ZM154.229 450.657V455.684H152.848V451.789H143.927V450.657H154.229Z" fill="black"/>
<path d="M1092.5 494.875H106.875C101.697 494.875 97.5 499.072 97.5 504.25V552.375C97.5 557.553 101.697 561.75 106.875 561.75H1092.5C1097.68 561.75 1101.88 557.553 1101.88 552.375V504.25C1101.88 499.072 1097.68 494.875 1092.5 494.875Z" fill="#E4F9F3"/>
<path d="M136.863 522.326V523.14C136.846 524.379 136.846 526.467 136.403 529.388L135.005 529.264C135.43 526.627 135.465 524.715 135.465 523.458H128.863V522.326H136.863ZM132.739 526.821V531.601C134.482 531.539 136.271 531.424 137.907 531.229L137.979 532.273C134.669 532.786 130.969 532.857 128.155 532.839L127.978 531.689C129.013 531.68 130.164 531.671 131.376 531.636V526.821H132.739ZM140.279 520.573V527.157H142.828V528.361H140.279V536.309H138.899V520.573H140.279ZM153.218 522.272V523.405H143.837V522.272H147.837V520.502H149.218V522.272H153.218ZM148.528 524.219C150.794 524.237 152.298 525.334 152.316 527.069C152.298 528.786 150.794 529.901 148.528 529.901C146.262 529.901 144.722 528.786 144.74 527.069C144.722 525.334 146.262 524.237 148.528 524.219ZM148.528 525.299C147.041 525.317 146.05 526.007 146.067 527.069C146.05 528.114 147.041 528.786 148.528 528.786C149.997 528.786 150.988 528.114 151.006 527.069C150.988 526.007 149.997 525.317 148.528 525.299ZM156.104 520.573V524.945H158.476V526.113H156.104V530.414H154.723V520.573H156.104ZM156.104 531.282V536.309H154.723V532.414H145.802V531.282H156.104Z" fill="black"/>
<path d="M590.371 224.136V235.5H588.995V225.579H588.928L586.153 227.421V226.023L588.995 224.136H590.371ZM597.678 223.604L594.016 237.209H592.818L596.48 223.604H597.678ZM603.203 224.136V235.5H601.827V225.579H601.76L598.986 227.421V226.023L601.827 224.136H603.203ZM610.023 235.655C609.371 235.655 608.785 235.525 608.263 235.267C607.742 235.008 607.324 234.653 607.01 234.202C606.695 233.75 606.523 233.236 606.493 232.659H607.825C607.877 233.173 608.11 233.599 608.525 233.935C608.942 234.268 609.441 234.434 610.023 234.434C610.488 234.434 610.903 234.325 611.265 234.107C611.631 233.889 611.918 233.589 612.125 233.208C612.336 232.824 612.441 232.389 612.441 231.904C612.441 231.409 612.333 230.967 612.115 230.578C611.9 230.186 611.604 229.877 611.226 229.652C610.849 229.426 610.418 229.311 609.934 229.307C609.586 229.304 609.229 229.357 608.863 229.469C608.496 229.575 608.195 229.714 607.958 229.885L606.671 229.729L607.359 224.136H613.263V225.357H608.513L608.114 228.709H608.18C608.413 228.524 608.706 228.37 609.057 228.248C609.408 228.125 609.775 228.065 610.156 228.065C610.851 228.065 611.471 228.231 612.015 228.564C612.562 228.893 612.991 229.345 613.301 229.918C613.616 230.491 613.773 231.146 613.773 231.882C613.773 232.607 613.611 233.254 613.285 233.824C612.963 234.39 612.52 234.838 611.953 235.167C611.388 235.492 610.744 235.655 610.023 235.655Z" fill="#50555C"/>
</g>
<path d="M1199.69 0.8125H0.3125V640.188H1199.69V0.8125Z" stroke="black"/>
</g>
<defs>
<filter id="filter0_d_3033_2250" x="-4" y="0.5" width="1208" height="51.75" filterUnits="userSpaceOnUse" color-interpolation-filters="sRGB">
<feFlood flood-opacity="0" result="BackgroundImageFix"/>
<feColorMatrix in="SourceAlpha" type="matrix" values="0 0 0 0 0 0 0 0 0 0 0 0 0 0 0 0 0 0 127 0" result="hardAlpha"/>
<feOffset dy="4"/>
<feGaussianBlur stdDeviation="2"/>
<feComposite in2="hardAlpha" operator="out"/>
<feColorMatrix type="matrix" values="0 0 0 0 0.748333 0 0 0 0 0.748333 0 0 0 0 0.748333 0 0 0 0.25 0"/>
<feBlend mode="normal" in2="BackgroundImageFix" result="effect1_dropShadow_3033_2250"/>
<feBlend mode="normal" in="SourceGraphic" in2="effect1_dropShadow_3033_2250" result="shape"/>
</filter>
<filter id="filter1_d_3033_2250" x="1031" y="11.125" width="79.25" height="30.5" filterUnits="userSpaceOnUse" color-interpolation-filters="sRGB">
<feFlood flood-opacity="0" result="BackgroundImageFix"/>
<feColorMatrix in="SourceAlpha" type="matrix" values="0 0 0 0 0 0 0 0 0 0 0 0 0 0 0 0 0 0 127 0" result="hardAlpha"/>
<feOffset dy="4"/>
<feGaussianBlur stdDeviation="2"/>
<feComposite in2="hardAlpha" operator="out"/>
<feColorMatrix type="matrix" values="0 0 0 0 0.62 0 0 0 0 0.62 0 0 0 0 0.62 0 0 0 0.25 0"/>
<feBlend mode="normal" in2="BackgroundImageFix" result="effect1_dropShadow_3033_2250"/>
<feBlend mode="normal" in="SourceGraphic" in2="effect1_dropShadow_3033_2250" result="shape"/>
</filter>
<filter id="filter2_i_3033_2250" x="94.375" y="85.5" width="1011.25" height="120.625" filterUnits="userSpaceOnUse" color-interpolation-filters="sRGB">
<feFlood flood-opacity="0" result="BackgroundImageFix"/>
<feBlend mode="normal" in="SourceGraphic" in2="BackgroundImageFix" result="shape"/>
<feColorMatrix in="SourceAlpha" type="matrix" values="0 0 0 0 0 0 0 0 0 0 0 0 0 0 0 0 0 0 127 0" result="hardAlpha"/>
<feOffset/>
<feGaussianBlur stdDeviation="5"/>
<feComposite in2="hardAlpha" operator="arithmetic" k2="-1" k3="1"/>
<feColorMatrix type="matrix" values="0 0 0 0 0.404167 0 0 0 0 0.404167 0 0 0 0 0.404167 0 0 0 0.25 0"/>
<feBlend mode="normal" in2="shape" result="effect1_innerShadow_3033_2250"/>
</filter>
<clipPath id="clip0_3033_2250">
<rect width="1200" height="640" fill="white" transform="translate(0 0.5)"/>
</clipPath>
</defs>
</svg>
