<svg width="1200" height="641" viewBox="0 0 1200 641" fill="none" xmlns="http://www.w3.org/2000/svg">
<g clip-path="url(#clip0_3033_2345)">
<mask id="mask0_3033_2345" style="mask-type:luminance" maskUnits="userSpaceOnUse" x="0" y="0" width="1200" height="641">
<path d="M1200 0.5H0V640.5H1200V0.5Z" fill="white"/>
</mask>
<g mask="url(#mask0_3033_2345)">
<path d="M1200 0.5H0V640.5H1200V0.5Z" fill="#F8F8F8"/>
<g filter="url(#filter0_d_3033_2345)">
<path d="M1200 0.5H0V44.25H1200V0.5Z" fill="white"/>
<path d="M60.5243 27.3744C59.7993 27.3744 59.266 27.1952 58.9243 26.8369C58.5826 26.4702 58.4118 25.991 58.4118 25.3994V22.3744H56.5493V20.9369H58.4118V18.9619H60.2243V20.9369H62.8994V22.3744H60.2243V25.1744C60.2243 25.6827 60.4743 25.9369 60.9743 25.9369H63.2494V27.3744H60.5243Z" fill="black"/>
<path d="M48.1411 27.3745V20.937H53.7536C54.4869 20.937 55.0202 21.1204 55.3536 21.487C55.6952 21.8454 55.8661 22.3204 55.8661 22.912V27.3745H54.0536V23.1245C54.0536 22.6245 53.8036 22.3745 53.3036 22.3745H49.9536V27.3745H48.1411Z" fill="black"/>
<path d="M44.9549 27.3749V20.9374H46.7674V27.3749H44.9549ZM44.9424 19.8749V18.4624H46.7799V19.8749H44.9424Z" fill="black"/>
<path d="M39.9458 24.4497V23.0122H43.7708V24.4497H39.9458Z" fill="black"/>
<path d="M31.6375 27.437C30.0458 27.437 28.8125 27.0578 27.9375 26.2995C27.0625 25.5328 26.625 24.3995 26.625 22.8995C26.625 21.4078 27.0625 20.2828 27.9375 19.5245C28.8125 18.7578 30.075 18.3745 31.725 18.3745H33.975C35.625 18.3745 36.8875 18.7578 37.7625 19.5245C38.6375 20.2828 39.075 21.4078 39.075 22.8995C39.075 24.3995 38.6375 25.5328 37.7625 26.2995C36.8875 27.0578 35.6458 27.437 34.0375 27.437H33.875V28.7495H31.875V27.437H31.6375ZM33.875 24.2495V25.812C34.95 25.8037 35.7458 25.5703 36.2625 25.112C36.7791 24.6537 37.0375 23.9162 37.0375 22.8995C37.0375 21.8828 36.775 21.1453 36.25 20.687C35.7333 20.2287 34.9291 19.9995 33.8375 19.9995H31.8625C30.7791 19.9995 29.975 20.2287 29.45 20.687C28.925 21.1453 28.6625 21.8828 28.6625 22.8995C28.6625 23.9162 28.925 24.6578 29.45 25.1245C29.975 25.5828 30.7833 25.812 31.875 25.812V24.2495H33.875Z" fill="black"/>
<path d="M987.344 20.3035C987.344 21.5938 988.288 22.9011 989.406 23.3882L989.031 23.918C988.137 23.5121 987.369 22.6363 987.019 21.5852C986.662 22.7003 985.894 23.6702 985.031 24.106L984.625 23.5762C985.713 23.055 986.663 21.6194 986.669 20.3035V19.3123H984.875V18.7568H989.156V19.3123H987.344V20.3035ZM990.894 17.9707V25.5671H990.219V17.9707H990.894Z" fill="black"/>
<path d="M983.331 17.9707V25.5843H982.656V17.9707H983.331ZM979.288 18.5603C980.413 18.5689 981.225 19.5943 981.225 21.2093C981.225 22.8243 980.413 23.8496 979.288 23.8496C978.15 23.8496 977.35 22.8243 977.35 21.2093C977.35 19.5943 978.15 18.5689 979.288 18.5603ZM979.288 19.1585C978.525 19.167 977.994 19.9702 977.994 21.2093C977.994 22.4483 978.525 23.2515 979.288 23.2515C980.05 23.2515 980.575 22.4483 980.575 21.2093C980.575 19.9702 980.05 19.167 979.288 19.1585Z" fill="black"/>
<path d="M976.038 17.9707V25.5671H975.388V17.9707H976.038ZM974.557 18.1587V25.1655H973.913V21.4656H972.85V20.8589H973.913V18.1587H974.557ZM973.075 18.9448V19.5003H972.431V23.0122C972.719 22.9951 972.994 22.9695 973.244 22.9353L973.288 23.431C972.094 23.6531 970.494 23.6873 969.506 23.6873L969.419 23.1148L970.219 23.1062V19.5003H969.581V18.9448H973.075ZM970.838 23.0976C971.15 23.0891 971.488 23.0763 971.813 23.055V19.5003H970.838V23.0976Z" fill="black"/>
<path d="M966.006 17.9707V25.5843H965.331V17.9707H966.006ZM961.969 18.5603C963.094 18.5689 963.906 19.5943 963.906 21.2093C963.906 22.8243 963.094 23.8496 961.969 23.8496C960.831 23.8496 960.025 22.8243 960.025 21.2093C960.025 19.5943 960.831 18.5689 961.969 18.5603ZM961.969 19.1585C961.206 19.167 960.675 19.9702 960.675 21.2093C960.675 22.4483 961.206 23.2515 961.969 23.2515C962.725 23.2515 963.256 22.4483 963.256 21.2093C963.256 19.9702 962.725 19.167 961.969 19.1585Z" fill="black"/>
<path d="M956 18.7398V23.636H952.5V18.7398H956ZM953.15 19.2781V23.0891H955.338V19.2781H953.15ZM958.063 17.9707V21.0041H959.337V21.5852H958.063V25.5671H957.394V17.9707H958.063Z" fill="black"/>
<g filter="url(#filter1_d_3033_2345)">
<path d="M1103.12 11.125H1038.12C1036.4 11.125 1035 12.5241 1035 14.25V30.5C1035 32.2259 1036.4 33.625 1038.12 33.625H1103.12C1104.85 33.625 1106.25 32.2259 1106.25 30.5V14.25C1106.25 12.5241 1104.85 11.125 1103.12 11.125Z" fill="#00EDA6"/>
<path d="M1083.43 21.0609V21.6004H1080.48V22.3701H1079.88V21.6004H1076.98V21.0609H1083.43ZM1080.49 22.9176C1080.49 23.6952 1081.64 24.2586 1082.91 24.3855L1082.71 24.8616C1081.6 24.7426 1080.59 24.3141 1080.18 23.6317C1079.76 24.3061 1078.76 24.7426 1077.65 24.8616L1077.44 24.3855C1078.71 24.2586 1079.86 23.6872 1079.86 22.9176V22.6875H1080.49V22.9176ZM1080.19 17.9585C1081.74 17.9585 1082.68 18.4187 1082.68 19.2439C1082.68 20.0612 1081.74 20.5372 1080.19 20.5293C1078.64 20.5372 1077.69 20.0612 1077.69 19.2439C1077.69 18.4187 1078.64 17.9585 1080.19 17.9585ZM1080.19 18.4346C1079.04 18.4266 1078.33 18.7361 1078.33 19.2439C1078.33 19.7437 1079.04 20.0453 1080.19 20.0453C1081.33 20.0453 1082.05 19.7437 1082.05 19.2439C1082.05 18.7361 1081.33 18.4266 1080.19 18.4346Z" fill="black"/>
<path d="M1071.84 18.3864C1072.88 18.3943 1073.62 19.3464 1073.63 20.8461C1073.62 22.3457 1072.88 23.2979 1071.84 23.2979C1070.79 23.2979 1070.07 22.3457 1070.07 20.8461C1070.07 19.3464 1070.79 18.3943 1071.84 18.3864ZM1071.84 18.9417C1071.14 18.9497 1070.65 19.6956 1070.65 20.8461C1070.65 21.9966 1071.14 22.7424 1071.84 22.7424C1072.55 22.7424 1073.03 21.9966 1073.03 20.8461C1073.03 19.6956 1072.55 18.9497 1071.84 18.9417ZM1075.41 17.8389V20.6556H1076.59V21.1952H1075.41V24.8927H1074.79V17.8389H1075.41Z" fill="black"/>
<path d="M1068.49 18.5933V19.2994C1068.49 20.1881 1068.49 21.1958 1068.23 22.7272L1067.6 22.6637C1067.88 21.2196 1067.88 20.1643 1067.88 19.2994V19.109H1063.63V18.5933H1068.49ZM1069.36 23.3381V23.8539H1062.93V23.3381H1069.36Z" fill="black"/>
<path d="M1062.37 23.4964V24.0201H1055.91V23.4964H1058.81V22.1634H1056.72V19.9894H1060.94V18.8785H1056.71V18.3628H1061.55V20.4972H1057.34V21.6477H1061.72V22.1634H1059.43V23.4964H1062.37Z" fill="black"/>
</g>
</g>
<g filter="url(#filter2_i_3033_2345)">
<path d="M1100 85.5H101.25C97.7982 85.5 95 88.2982 95 91.75V199.875C95 203.327 97.7982 206.125 101.25 206.125H1100C1103.45 206.125 1106.25 203.327 1106.25 199.875V91.75C1106.25 88.2982 1103.45 85.5 1100 85.5Z" fill="white"/>
<path d="M769.725 148.918C769.744 146.3 770.55 145.5 771.894 144.68C772.694 144.191 773.319 143.41 773.319 142.316C773.319 140.988 772.287 140.149 770.994 140.149C769.881 140.149 768.769 140.812 768.65 142.414H766.875C766.975 140.05 768.769 138.664 770.994 138.664C773.437 138.664 775.038 140.246 775.038 142.394C775.038 143.918 774.319 144.992 773.106 145.734C771.894 146.476 771.444 147.219 771.406 148.918V149.015H769.725V148.918ZM770.625 153.117C769.944 153.117 769.356 152.55 769.375 151.847C769.356 151.164 769.944 150.597 770.625 150.597C771.306 150.597 771.875 151.164 771.875 151.847C771.875 152.55 771.306 153.117 770.625 153.117Z" fill="black"/>
<path d="M765.488 146.38V147.63H749.669V146.38H765.488ZM763.731 152.922V154.211H751.719V149.153H753.263V152.922H763.731ZM757.575 137.844C761.306 137.825 763.713 139.114 763.713 141.281C763.713 143.45 761.306 144.739 757.575 144.739C753.806 144.739 751.425 143.45 751.425 141.281C751.425 139.114 753.806 137.825 757.575 137.844ZM757.575 139.075C754.788 139.075 752.988 139.915 753.007 141.281C752.988 142.649 754.788 143.489 757.575 143.489C760.35 143.489 762.15 142.649 762.15 141.281C762.15 139.915 760.35 139.075 757.575 139.075Z" fill="black"/>
<path d="M746.775 137.238V148.996H745.237V143.41H741.425V142.121H745.237V137.238H746.775ZM741.35 138.606C741.325 143.059 738.362 146.262 733.362 147.863L732.675 146.633C736.825 145.354 739.387 142.941 739.706 139.856H733.537V138.606H741.35ZM741.894 148.274C741.894 150.813 744.669 152.707 747.737 153.254L747.087 154.485C744.531 153.986 742.175 152.649 741.15 150.618C740.087 152.658 737.706 154.016 735.118 154.524L734.493 153.313C737.556 152.785 740.369 150.832 740.387 148.274V147.473H741.894V148.274Z" fill="black"/>
<path d="M725.9 146.38V147.63H710.075V146.38H725.9ZM724.138 152.922V154.211H712.131V149.153H713.675V152.922H724.138ZM717.988 137.844C721.719 137.825 724.119 139.114 724.119 141.281C724.119 143.45 721.719 144.739 717.988 144.739C714.219 144.739 711.838 143.45 711.838 141.281C711.838 139.114 714.219 137.825 717.988 137.844ZM717.988 139.075C715.194 139.075 713.4 139.915 713.419 141.281C713.4 142.649 715.194 143.489 717.988 143.489C720.763 143.489 722.556 142.649 722.556 141.281C722.556 139.915 720.763 139.075 717.988 139.075Z" fill="black"/>
<path d="M699.944 147.512V151.379H695.881V153.215C698.094 153.205 699.25 153.137 700.7 152.882L700.881 154.055C699.238 154.367 697.988 154.387 695.388 154.387H694.45V150.265H698.475V148.684H694.375V147.512H699.944ZM707.913 148.371V149.543H700.55V148.371H703.456V146.945H704.944V148.371H707.913ZM704.219 150.168C705.881 150.168 707.15 150.988 707.15 152.375C707.15 153.722 705.881 154.543 704.219 154.543C702.538 154.543 701.288 153.722 701.288 152.375C701.288 150.988 702.538 150.168 704.219 150.168ZM704.219 151.184C703.244 151.184 702.575 151.652 702.575 152.375C702.575 153.078 703.244 153.507 704.219 153.507C705.156 153.507 705.819 153.078 705.838 152.375C705.819 151.652 705.156 151.184 704.219 151.184ZM700.7 137.434C704.569 137.434 706.838 138.488 706.838 140.441C706.838 142.267 704.856 143.312 701.425 143.449V144.757H708.613V146.007H692.794V144.757H699.925V143.449C696.531 143.302 694.55 142.257 694.55 140.441C694.55 138.488 696.838 137.434 700.7 137.434ZM700.7 138.605C697.813 138.625 696.131 139.289 696.15 140.441C696.131 141.613 697.813 142.277 700.7 142.277C703.575 142.277 705.275 141.613 705.275 140.441C705.275 139.289 703.575 138.625 700.7 138.605Z" fill="black"/>
<path d="M686.387 151.144V152.434H670.487V151.144H677.637V147.863H672.481V142.512H682.869V139.777H672.444V138.507H684.375V143.762H674.006V146.594H684.787V147.863H679.137V151.144H686.387Z" fill="black"/>
<path d="M661.113 138.351C664.744 138.351 667.463 140.246 667.463 143.117C667.463 146.007 664.744 147.902 661.113 147.882C657.481 147.902 654.763 146.007 654.763 143.117C654.763 140.246 657.481 138.351 661.113 138.351ZM661.113 139.601C658.319 139.582 656.213 141.047 656.231 143.117C656.213 145.226 658.319 146.632 661.113 146.632C663.888 146.632 665.975 145.226 665.975 143.117C665.975 141.047 663.888 139.582 661.113 139.601ZM669.1 150.988V152.277H653.2V150.988H669.1Z" fill="black"/>
<path d="M649.725 137.961V143.82H644.588V146.047H651.738V147.297H635.919V146.047H643.069V143.82H637.969V137.961H649.725ZM639.475 139.191V142.59H648.2V139.191H639.475ZM649.788 149.113V154.582H648.244V150.344H637.675V149.113H649.788Z" fill="black"/>
<path d="M628.263 139.152V140.051C628.244 141.418 628.244 143.722 627.756 146.945L626.213 146.809C626.681 143.899 626.719 141.789 626.719 140.402H619.434V139.152H628.263ZM623.711 144.113V149.387C625.638 149.318 627.606 149.191 629.413 148.976L629.494 150.129C625.838 150.695 621.758 150.774 618.653 150.754L618.457 149.484C619.6 149.474 620.87 149.465 622.207 149.426V144.113H623.711ZM632.031 137.219V144.484H634.844V145.812H632.031V154.582H630.506V137.219H632.031Z" fill="black"/>
<path d="M602.012 138.488C604.746 138.488 606.68 140.149 606.68 142.57C606.68 144.992 604.746 146.652 602.012 146.652C599.278 146.652 597.305 144.992 597.325 142.57C597.305 140.149 599.278 138.488 602.012 138.488ZM602.012 139.836C600.156 139.836 598.809 140.949 598.828 142.57C598.809 144.191 600.156 145.305 602.012 145.305C603.848 145.305 605.176 144.191 605.176 142.57C605.176 140.949 603.848 139.836 602.012 139.836ZM610.566 137.219V154.621H609.043V137.219H610.566ZM596.426 149.484C599.629 149.484 604.043 149.465 607.891 148.899L608.008 150.031C604.043 150.774 599.766 150.793 596.641 150.793L596.426 149.484Z" fill="black"/>
<path d="M593.359 137.219V147.082H591.855V137.219H593.359ZM581.68 138.254V144.445C584.55 144.436 587.129 144.24 589.882 143.644L590.117 144.934C587.187 145.519 584.55 145.734 581.543 145.754H580.137V138.254H581.68ZM593.359 147.882V154.348H582.09V147.882H593.359ZM583.594 149.113V153.098H591.855V149.113H583.594Z" fill="black"/>
<path d="M566.934 140.676C566.934 142.59 568.281 144.543 570.507 145.383L569.707 146.555C568.037 145.91 566.836 144.67 566.211 143.176C565.566 144.836 564.326 146.311 562.617 147.043L561.777 145.851C564.062 144.856 565.469 142.61 565.469 140.676V138.313H566.934V140.676ZM576.504 137.238V147.961H575.039V143.176H572.734V147.414H571.289V137.57H572.734V141.906H575.039V137.238H576.504ZM570.762 148.351C574.355 148.351 576.601 149.485 576.601 151.457C576.601 153.41 574.355 154.543 570.762 154.543C567.149 154.543 564.922 153.41 564.941 151.457C564.922 149.485 567.149 148.351 570.762 148.351ZM570.762 149.524C568.105 149.524 566.445 150.246 566.465 151.457C566.445 152.649 568.105 153.351 570.762 153.351C573.399 153.351 575.059 152.649 575.078 151.457C575.059 150.246 573.399 149.524 570.762 149.524Z" fill="black"/>
<path d="M550.41 140.5C550.41 142.922 552.168 145.207 554.707 146.125L553.848 147.316C551.943 146.555 550.43 145.041 549.688 143.156C548.945 145.256 547.363 146.926 545.313 147.746L544.493 146.496C547.09 145.539 548.887 143.118 548.906 140.441V138.293H550.41V140.5ZM558.868 137.238V150.246H557.325V142.61H553.457V141.32H557.325V137.238H558.868ZM559.258 152.922V154.211H547.637V148.762H549.18V152.922H559.258Z" fill="black"/>
<path d="M530.879 138.274C530.879 140.481 534.043 142.414 537.09 142.863L536.484 144.055C533.818 143.625 531.191 142.238 530.097 140.266C528.984 142.258 526.338 143.625 523.672 144.055L523.086 142.863C526.152 142.414 529.297 140.519 529.297 138.274V137.453H530.879V138.274ZM537.988 145.441V146.711H530.82V148.938H536.035V154.582H534.492V150.188H523.925V148.938H529.316V146.711H522.168V145.441H537.988Z" fill="black"/>
<path d="M519.278 137.219V147.57H517.735V143.019H514.238V141.75H517.735V137.219H519.278ZM513.516 148.118C517.129 148.118 519.336 149.289 519.336 151.34C519.336 153.391 517.129 154.563 513.516 154.582C509.903 154.563 507.695 153.391 507.695 151.34C507.695 149.289 509.903 148.118 513.516 148.118ZM513.516 149.309C510.86 149.309 509.2 150.07 509.219 151.34C509.2 152.59 510.86 153.351 513.516 153.351C516.172 153.351 517.813 152.59 517.813 151.34C517.813 150.07 516.172 149.309 513.516 149.309ZM510.918 140.402C510.918 142.668 512.656 144.816 515.195 145.695L514.395 146.926C512.441 146.223 510.928 144.768 510.195 142.961C509.434 145.002 507.823 146.632 505.762 147.414L504.961 146.184C507.539 145.246 509.375 142.903 509.375 140.422V139.777H505.45V138.488H514.805V139.777H510.918V140.402Z" fill="black"/>
<path d="M495.508 138.351C499.2 138.371 501.856 140.168 501.856 142.902C501.856 145.49 499.551 147.209 496.25 147.414V151.066H503.496V152.355H487.598V151.066H494.746V147.414C491.455 147.199 489.16 145.48 489.16 142.902C489.16 140.168 491.816 138.371 495.508 138.351ZM495.508 139.621C492.695 139.621 490.645 140.949 490.645 142.902C490.645 144.914 492.695 146.203 495.508 146.222C498.32 146.203 500.371 144.914 500.371 142.902C500.371 140.949 498.32 139.621 495.508 139.621Z" fill="black"/>
<path d="M481.113 145.344V146.613H473.945V148.469C477.226 148.605 479.16 149.68 479.18 151.515C479.16 153.449 476.934 154.543 473.203 154.543C469.434 154.543 467.207 153.449 467.207 151.515C467.207 149.68 469.13 148.605 472.441 148.469V146.613H465.293V145.344H481.113ZM473.203 149.64C470.41 149.66 468.75 150.344 468.769 151.515C468.75 152.668 470.41 153.351 473.203 153.351C475.957 153.351 477.637 152.668 477.637 151.515C477.637 150.344 475.957 149.66 473.203 149.64ZM479.707 138.039V139.289H474.199C474.297 141.242 477.168 142.755 480.234 143.078L479.668 144.289C476.826 143.947 474.16 142.677 473.203 140.734C472.255 142.677 469.599 143.947 466.738 144.289L466.191 143.078C469.199 142.755 472.09 141.242 472.207 139.289H466.738V138.039H479.707Z" fill="black"/>
<path d="M450.899 137.609C454.668 137.609 457.031 138.82 457.031 140.91C457.031 142.961 454.668 144.152 450.899 144.152C447.129 144.152 444.746 142.961 444.746 140.91C444.746 138.82 447.129 137.609 450.899 137.609ZM450.899 138.84C448.086 138.84 446.309 139.621 446.328 140.91C446.309 142.18 448.086 142.922 450.899 142.941C453.672 142.922 455.469 142.18 455.469 140.91C455.469 139.621 453.672 138.84 450.899 138.84ZM456.875 148.644V154.348H444.922V148.644H456.875ZM446.445 149.875V153.098H455.371V149.875H446.445ZM458.809 145.656V146.926H442.988V145.656H458.809Z" fill="black"/>
<path d="M439.14 137.219V144.094H442.05V145.382H439.14V154.621H437.617V137.219H439.14ZM434.57 138.918V140.188H427.988V148.976C431.132 148.976 433.359 148.83 435.937 148.351L436.132 149.68C433.418 150.168 431.132 150.266 427.832 150.266H426.465V138.918H434.57Z" fill="black"/>
</g>
<g filter="url(#filter3_i_3033_2345)">
<path d="M1099.38 364.25H100.625C97.1732 364.25 94.375 367.048 94.375 370.5V556.75C94.375 560.202 97.1732 563 100.625 563H1099.38C1102.83 563 1105.62 560.202 1105.62 556.75V370.5C1105.62 367.048 1102.83 364.25 1099.38 364.25Z" fill="#E4F9F3"/>
<path d="M121.2 387.392C124.66 387.411 127.15 389.095 127.15 391.659C127.15 394.084 124.99 395.696 121.895 395.888V399.313H128.689V400.521H113.784V399.313H120.485V395.888C117.4 395.687 115.249 394.076 115.249 391.659C115.249 389.095 117.739 387.411 121.2 387.392ZM121.2 388.583C118.563 388.583 116.64 389.828 116.64 391.659C116.64 393.544 118.563 394.753 121.2 394.771C123.837 394.753 125.759 393.544 125.759 391.659C125.759 389.828 123.837 388.583 121.2 388.583ZM143.484 386.33V396.034H142.037V391.768H138.76V390.578H142.037V386.33H143.484ZM138.082 396.548C141.47 396.548 143.539 397.646 143.539 399.569C143.539 401.491 141.47 402.59 138.082 402.608C134.695 402.59 132.625 401.491 132.625 399.569C132.625 397.646 134.695 396.548 138.082 396.548ZM138.082 397.664C135.592 397.664 134.035 398.378 134.054 399.569C134.035 400.741 135.592 401.454 138.082 401.454C140.572 401.454 142.11 400.741 142.11 399.569C142.11 398.378 140.572 397.664 138.082 397.664ZM135.647 389.315C135.647 391.439 137.277 393.453 139.657 394.277L138.906 395.431C137.075 394.771 135.656 393.407 134.969 391.713C134.255 393.627 132.745 395.156 130.813 395.888L130.062 394.734C132.479 393.856 134.2 391.659 134.2 389.333V388.729H130.52V387.52H139.29V388.729H135.647V389.315ZM154.36 387.319C154.36 389.388 157.327 391.201 160.183 391.622L159.615 392.739C157.116 392.336 154.653 391.036 153.628 389.186C152.584 391.054 150.103 392.336 147.604 392.739L147.054 391.622C149.929 391.201 152.877 389.424 152.877 387.319V386.55H154.36V387.319ZM161.025 394.039V395.229H154.305V397.316H159.194V402.608H157.747V398.488H147.842V397.316H152.895V395.229H146.194V394.039H161.025ZM172.67 389.406C172.67 391.677 174.319 393.819 176.699 394.68L175.894 395.797C174.108 395.083 172.689 393.664 171.993 391.896C171.297 393.865 169.814 395.431 167.892 396.199L167.122 395.028C169.558 394.131 171.242 391.86 171.261 389.351V387.337H172.67V389.406ZM180.599 386.348V398.543H179.153V391.384H175.527V390.175H179.153V386.348H180.599ZM180.965 401.052V402.26H170.07V397.152H171.517V401.052H180.965ZM188.162 389.571C188.162 391.366 189.425 393.196 191.512 393.984L190.762 395.083C189.196 394.478 188.07 393.316 187.484 391.915C186.88 393.471 185.717 394.854 184.115 395.54L183.327 394.423C185.47 393.489 186.788 391.384 186.788 389.571V387.356H188.162V389.571ZM197.134 386.348V396.401H195.76V391.915H193.6V395.888H192.245V386.659H193.6V390.724H195.76V386.348H197.134ZM191.75 396.767C195.119 396.767 197.225 397.829 197.225 399.679C197.225 401.509 195.119 402.571 191.75 402.571C188.363 402.571 186.275 401.509 186.294 399.679C186.275 397.829 188.363 396.767 191.75 396.767ZM191.75 397.866C189.26 397.866 187.704 398.543 187.722 399.679C187.704 400.796 189.26 401.454 191.75 401.454C194.222 401.454 195.779 400.796 195.797 399.679C195.779 398.543 194.222 397.866 191.75 397.866ZM212.935 386.33V395.577H211.525V386.33H212.935ZM201.986 387.301V393.105C204.677 393.096 207.095 392.913 209.676 392.354L209.896 393.563C207.149 394.112 204.677 394.314 201.858 394.332H200.539V387.301H201.986ZM212.935 396.328V402.388H202.37V396.328H212.935ZM203.78 397.481V401.216H211.525V397.481H203.78ZM221.047 387.52C223.61 387.52 225.424 389.077 225.424 391.347C225.424 393.618 223.61 395.174 221.047 395.174C218.484 395.174 216.634 393.618 216.653 391.347C216.634 389.077 218.484 387.52 221.047 387.52ZM221.047 388.784C219.308 388.784 218.044 389.828 218.062 391.347C218.044 392.867 219.308 393.911 221.047 393.911C222.769 393.911 224.014 392.867 224.014 391.347C224.014 389.828 222.769 388.784 221.047 388.784ZM229.067 386.33V402.645H227.639V386.33H229.067ZM215.81 397.829C218.814 397.829 222.952 397.811 226.559 397.28L226.669 398.342C222.952 399.038 218.942 399.056 216.012 399.056L215.81 397.829ZM245.657 388.143V388.985C245.638 390.267 245.638 392.428 245.18 395.449L243.734 395.321C244.174 392.593 244.21 390.615 244.21 389.315H237.38V388.143H245.657ZM241.39 392.794V397.738C243.194 397.674 245.043 397.554 246.737 397.353L246.81 398.433C243.386 398.964 239.559 399.038 236.648 399.019L236.465 397.829C237.536 397.82 238.726 397.811 239.98 397.774V392.794H241.39ZM249.19 386.33V393.142H251.827V394.387H249.19V402.608H247.762V386.33H249.19ZM265.78 387.026V392.519H260.964V394.606H267.666V395.778H252.834V394.606H259.536V392.519H254.757V387.026H265.78ZM256.167 388.179V391.366H264.352V388.179H256.167ZM265.835 397.481V402.608H264.388V398.635H254.482V397.481H265.835ZM283.87 394.918V396.089H269.039V394.918H283.87ZM282.223 401.052V402.26H270.962V397.518H272.409V401.052H282.223ZM276.455 386.916C279.952 386.898 282.204 388.106 282.204 390.139C282.204 392.171 279.952 393.379 276.455 393.379C272.921 393.379 270.687 392.171 270.687 390.139C270.687 388.106 272.921 386.898 276.455 386.916ZM276.455 388.069C273.837 388.069 272.152 388.857 272.17 390.139C272.152 391.421 273.837 392.208 276.455 392.208C279.055 392.208 280.74 391.421 280.74 390.139C280.74 388.857 279.055 388.069 276.455 388.069ZM295.406 390.706C295.406 393.581 297.31 396.529 299.618 397.664L298.739 398.818C296.944 397.875 295.443 395.953 294.729 393.691C293.997 396.099 292.459 398.149 290.627 399.129L289.712 397.976C292.092 396.804 293.978 393.673 293.997 390.706V387.74H295.406V390.706ZM302.547 386.33V392.94H305.275V394.185H302.547V402.608H301.119V386.33H302.547ZM319.503 386.33V402.608H318.075V386.33H319.503ZM306.246 398.269C307.638 398.259 309.231 398.25 310.879 398.195V396.419C308.929 396.209 307.656 395.101 307.674 393.471C307.656 391.64 309.231 390.45 311.575 390.45C313.919 390.45 315.511 391.64 315.511 393.471C315.511 395.083 314.248 396.19 312.325 396.401V398.141C313.9 398.076 315.493 397.958 316.994 397.756L317.104 398.854C313.479 399.441 309.487 399.496 306.466 399.496L306.246 398.269ZM316.574 388.344V389.516H306.594V388.344H310.879V386.348H312.325V388.344H316.574ZM311.575 391.567C310.073 391.567 309.011 392.336 309.011 393.471C309.011 394.606 310.073 395.339 311.575 395.321C313.094 395.339 314.138 394.606 314.138 393.471C314.138 392.336 313.094 391.567 311.575 391.567ZM335.799 386.33V395.064H334.371V386.33H335.799ZM326.68 395.888V397.866H334.371V395.888H335.799V402.388H325.252V395.888H326.68ZM326.68 401.216H334.371V399.019H326.68V401.216ZM327.01 387.136C329.482 387.118 331.277 388.638 331.277 390.871C331.277 393.087 329.482 394.606 327.01 394.606C324.539 394.606 322.744 393.087 322.744 390.871C322.744 388.638 324.539 387.118 327.01 387.136ZM327.01 388.344C325.344 388.326 324.135 389.388 324.154 390.871C324.135 392.354 325.344 393.416 327.01 393.416C328.659 393.416 329.867 392.354 329.867 390.871C329.867 389.388 328.659 388.326 327.01 388.344ZM351.986 386.33V402.608H350.558V386.33H351.986ZM341.036 387.941V397.17C343.517 397.161 346.09 396.959 348.818 396.383L349.02 397.609C346.127 398.214 343.545 398.415 340.945 398.415H339.626V387.941H341.036ZM367.367 386.33V392.776H370.095V393.984H367.367V402.645H365.939V386.33H367.367ZM363.082 387.923V389.113H356.912V397.353C359.859 397.353 361.947 397.216 364.364 396.767L364.547 398.013C362.002 398.47 359.859 398.561 356.765 398.561H355.483V387.923H363.082ZM372.695 401.235C372.054 401.235 371.505 400.704 371.524 400.044C371.505 399.404 372.054 398.873 372.695 398.873C373.336 398.873 373.867 399.404 373.867 400.044C373.867 400.704 373.336 401.235 372.695 401.235ZM380.202 397.573C381.2 397.573 382.445 397.564 383.755 397.518V394.771C381.933 394.524 380.697 393.196 380.715 391.329C380.697 389.296 382.235 387.886 384.414 387.886C386.629 387.886 388.167 389.296 388.167 391.329C388.167 393.188 386.95 394.506 385.128 394.771V397.463C386.373 397.408 387.6 397.316 388.662 397.17L388.772 398.232C386.08 398.671 382.601 398.781 380.404 398.781L380.202 397.573ZM394.192 386.33V402.608H392.819V394.332H390.786V401.748H389.431V386.696H390.786V393.123H392.819V386.33H394.192ZM384.414 389.058C383.04 389.058 381.997 390.011 382.015 391.329C381.997 392.702 383.04 393.636 384.414 393.636C385.824 393.636 386.849 392.702 386.849 391.329C386.849 390.011 385.824 389.058 384.414 389.058ZM411.807 390.45V391.677H409.206V395.266H411.807V396.474H409.206V402.608H407.778V386.33H409.206V390.45H411.807ZM398.714 387.941V397.261C401.095 397.253 403.521 397.069 406.204 396.511L406.387 397.756C403.585 398.324 401.058 398.507 398.586 398.507H397.286V387.941H398.714ZM425.411 386.33V393.05H428.139V394.24H425.411V402.608H423.983V386.33H425.411ZM422.409 388.949V390.139H412.722V388.949H416.915V386.531H418.344V388.949H422.409ZM417.647 391.494C419.955 391.494 421.621 393.032 421.639 395.229C421.621 397.426 419.955 398.964 417.647 398.964C415.322 398.964 413.637 397.426 413.656 395.229C413.637 393.032 415.322 391.494 417.647 391.494ZM417.647 392.702C416.128 392.702 415.011 393.764 415.029 395.229C415.011 396.712 416.128 397.756 417.647 397.738C419.149 397.756 420.247 396.712 420.266 395.229C420.247 393.764 419.149 392.702 417.647 392.702ZM437.258 387.758V389.205H441.067V386.348H442.513V398.232H441.067V393.893H437.258V395.357H429.787V387.758H437.258ZM431.215 388.949V394.204H435.848V388.949H431.215ZM442.879 401.052V402.26H431.985V397.17H433.431V401.052H442.879ZM437.258 392.702H441.067V390.413H437.258V392.702ZM458.956 388.143V388.985C458.938 390.267 458.938 392.428 458.48 395.449L457.034 395.321C457.473 392.593 457.51 390.615 457.51 389.315H450.68V388.143H458.956ZM454.69 392.794V397.738C456.494 397.674 458.343 397.554 460.037 397.353L460.11 398.433C456.685 398.964 452.859 399.038 449.947 399.019L449.764 397.829C450.835 397.82 452.025 397.811 453.28 397.774V392.794H454.69ZM462.49 386.33V393.142H465.127V394.387H462.49V402.608H461.062V386.33H462.49ZM479.079 387.026V392.519H474.264V394.606H480.965V395.778H466.134V394.606H472.835V392.519H468.057V387.026H479.079ZM469.466 388.179V391.366H477.651V388.179H469.466ZM479.134 397.481V402.608H477.688V398.635H467.782V397.481H479.134ZM495.76 386.33V402.645H494.314V386.33H495.76ZM487.099 387.594C489.517 387.612 491.256 389.809 491.256 393.27C491.256 396.731 489.517 398.928 487.099 398.928C484.664 398.928 482.943 396.731 482.943 393.27C482.943 389.809 484.664 387.612 487.099 387.594ZM487.099 388.875C485.47 388.894 484.335 390.615 484.335 393.27C484.335 395.925 485.47 397.646 487.099 397.646C488.729 397.646 489.864 395.925 489.864 393.27C489.864 390.615 488.729 388.894 487.099 388.875ZM508.706 390.706C508.706 393.581 510.61 396.529 512.917 397.664L512.039 398.818C510.244 397.875 508.742 395.953 508.029 393.691C507.296 396.099 505.758 398.149 503.927 399.129L503.011 397.976C505.392 396.804 507.278 393.673 507.296 390.706V387.74H508.706V390.706ZM515.847 386.33V392.94H518.575V394.185H515.847V402.608H514.419V386.33H515.847ZM532.802 386.33V402.608H531.374V386.33H532.802ZM519.545 398.269C520.937 398.259 522.53 398.25 524.179 398.195V396.419C522.228 396.209 520.955 395.101 520.974 393.471C520.955 391.64 522.53 390.45 524.874 390.45C527.218 390.45 528.811 391.64 528.811 393.471C528.811 395.083 527.547 396.19 525.625 396.401V398.141C527.2 398.076 528.792 397.958 530.294 397.756L530.404 398.854C526.779 399.441 522.787 399.496 519.765 399.496L519.545 398.269ZM529.873 388.344V389.516H519.894V388.344H524.179V386.348H525.625V388.344H529.873ZM524.874 391.567C523.372 391.567 522.31 392.336 522.31 393.471C522.31 394.606 523.372 395.339 524.874 395.321C526.394 395.339 527.437 394.606 527.437 393.471C527.437 392.336 526.394 391.567 524.874 391.567ZM549.08 386.33V402.645H547.634V386.33H549.08ZM540.42 387.594C542.837 387.612 544.576 389.809 544.576 393.27C544.576 396.731 542.837 398.928 540.42 398.928C537.984 398.928 536.263 396.731 536.263 393.27C536.263 389.809 537.984 387.612 540.42 387.594ZM540.42 388.875C538.79 388.894 537.655 390.615 537.655 393.27C537.655 395.925 538.79 397.646 540.42 397.646C542.049 397.646 543.185 395.925 543.185 393.27C543.185 390.615 542.049 388.894 540.42 388.875ZM565.322 386.33V402.608H563.875V386.33H565.322ZM560.507 388.106C560.488 392.794 558.309 396.932 552.852 399.55L552.065 398.378C556.469 396.291 558.712 393.169 559.042 389.278H552.816V388.106H560.507ZM583.559 386.696V392.995H585.537V386.33H586.91V402.608H585.537V394.185H583.559V401.803H582.223V386.696H583.559ZM576.803 388.399V389.589H574.605V397.133C575.219 397.115 576.025 397.042 576.913 396.822L577.041 398.049C575.667 398.36 574.605 398.36 573.91 398.36H573.269V388.399H576.803ZM581.124 388.399V389.589H578.817V397.133C579.577 397.124 580.483 397.051 581.472 396.767L581.6 397.994C580.245 398.36 579.128 398.36 578.176 398.36H577.517V388.399H581.124ZM603.866 394.661V395.851H597.237V399.184H595.809V395.851H588.961V394.661H603.866ZM601.925 387.136V392.794H590.902V387.136H601.925ZM592.312 388.271V391.64H600.497V388.271H592.312ZM602.2 401.052V402.26H590.865V397.573H592.312V401.052H602.2ZM618.606 386.33V402.645H617.159V386.33H618.606ZM609.945 387.594C612.362 387.612 614.101 389.809 614.101 393.27C614.101 396.731 612.362 398.928 609.945 398.928C607.51 398.928 605.789 396.731 605.789 393.27C605.789 389.809 607.51 387.612 609.945 387.594ZM609.945 388.875C608.315 388.894 607.18 390.615 607.18 393.27C607.18 395.925 608.315 397.646 609.945 397.646C611.575 397.646 612.71 395.925 612.71 393.27C612.71 390.615 611.575 388.894 609.945 388.875ZM626.919 395.632V399.368H630.744V395.632H632.175V399.368H636.294V400.576H621.389V399.368H625.494V395.632H626.919ZM629.556 389.278C629.556 391.896 632.781 394.112 635.581 394.57L634.994 395.723C632.506 395.229 629.875 393.636 628.844 391.384C627.787 393.654 625.169 395.284 622.725 395.778L622.122 394.625C624.868 394.167 628.075 391.896 628.075 389.278V388.985H622.616V387.795H635.012V388.985H629.556V389.278Z" fill="black"/>
</g>
<path d="M1150.87 494.6H1085.67C1069.33 494.6 1056.08 507.846 1056.08 524.187C1056.08 540.527 1069.33 553.774 1085.67 553.774H1150.87C1167.21 553.774 1180.46 540.527 1180.46 524.187C1180.46 507.846 1167.21 494.6 1150.87 494.6Z" fill="white"/>
<path d="M1150.87 494.6H1085.67C1069.33 494.6 1056.08 507.846 1056.08 524.187C1056.08 540.527 1069.33 553.774 1085.67 553.774H1150.87C1167.21 553.774 1180.46 540.527 1180.46 524.187C1180.46 507.846 1167.21 494.6 1150.87 494.6Z" stroke="black"/>
<path d="M1085.31 509.113V509.738H1080.96V509.113H1082.76V507.873H1083.52V509.113H1085.31ZM1083.14 510.324C1084.23 510.324 1085.01 511.144 1085.02 512.297C1085.01 513.459 1084.23 514.289 1083.14 514.289C1082.05 514.289 1081.27 513.459 1081.27 512.297C1081.27 511.144 1082.05 510.324 1083.14 510.324ZM1083.14 510.969C1082.45 510.979 1081.96 511.535 1081.96 512.297C1081.96 513.068 1082.45 513.625 1083.14 513.615C1083.83 513.625 1084.34 513.068 1084.34 512.297C1084.34 511.535 1083.83 510.979 1083.14 510.969ZM1088.37 507.609V516.291H1087.64V511.906H1086.49V515.861H1085.76V507.824H1086.49V511.271H1087.64V507.609H1088.37ZM1096.82 507.609V512.101H1096.04V509.846H1094.11V509.211H1096.04V507.609H1096.82ZM1096.82 512.541V514.611H1091.96V515.559H1097.14V516.174H1091.21V514.026H1096.06V513.156H1091.19V512.541H1096.82ZM1092.58 508.713C1092.57 509.856 1093.47 510.891 1094.74 511.311L1094.32 511.906C1093.36 511.564 1092.6 510.881 1092.22 510.002C1091.84 510.993 1091.06 511.75 1090.03 512.121L1089.61 511.506C1090.92 511.076 1091.82 509.982 1091.82 508.713V507.893H1092.58V508.713ZM1108.24 507.609V516.291H1107.5V507.609H1108.24ZM1106.54 507.824V515.832H1105.81V511.604H1104.6V510.91H1105.81V507.824H1106.54ZM1104.86 508.723V509.357H1104.12V513.371C1104.45 513.351 1104.76 513.323 1105.05 513.283L1105.1 513.849C1103.73 514.104 1101.91 514.143 1100.77 514.143L1100.67 513.488L1101.59 513.479V509.357H1100.86V508.723H1104.86ZM1102.29 513.469C1102.66 513.459 1103.04 513.444 1103.41 513.42V509.357H1102.29V513.469ZM1116.57 507.609V516.311H1115.8V507.609H1116.57ZM1111.96 508.283C1113.24 508.293 1114.17 509.465 1114.17 511.311C1114.17 513.156 1113.24 514.328 1111.96 514.328C1110.66 514.328 1109.74 513.156 1109.74 511.311C1109.74 509.465 1110.66 508.293 1111.96 508.283ZM1111.96 508.967C1111.08 508.976 1110.48 509.894 1110.48 511.311C1110.48 512.726 1111.08 513.644 1111.96 513.644C1112.82 513.644 1113.42 512.726 1113.42 511.311C1113.42 509.894 1112.82 508.976 1111.96 508.967ZM1121.16 510.276C1121.16 511.75 1122.24 513.244 1123.52 513.801L1123.09 514.406C1122.07 513.943 1121.19 512.941 1120.79 511.74C1120.38 513.014 1119.51 514.123 1118.52 514.621L1118.06 514.016C1119.3 513.42 1120.38 511.779 1120.39 510.276V509.143H1118.34V508.508H1123.23V509.143H1121.16V510.276ZM1125.21 507.609V516.291H1124.44V507.609H1125.21ZM1134.14 507.609V516.291H1133.4V507.609H1134.14ZM1132.39 507.795V515.851H1131.66V511.633H1130.55C1130.46 513.323 1129.74 514.377 1128.67 514.377C1127.54 514.377 1126.81 513.205 1126.81 511.359C1126.81 509.514 1127.54 508.342 1128.67 508.342C1129.72 508.342 1130.44 509.362 1130.54 510.998H1131.66V507.795H1132.39ZM1128.67 509.064C1127.97 509.064 1127.52 509.943 1127.53 511.359C1127.52 512.766 1127.97 513.654 1128.67 513.644C1129.37 513.654 1129.82 512.766 1129.82 511.359C1129.82 509.943 1129.37 509.064 1128.67 509.064ZM1138.4 509.943C1138.4 511.516 1139.41 513.098 1140.66 513.674L1140.21 514.299C1139.22 513.791 1138.41 512.751 1138.02 511.516C1137.63 512.814 1136.82 513.928 1135.83 514.455L1135.33 513.84C1136.6 513.215 1137.62 511.545 1137.62 509.943V508.361H1138.4V509.943ZM1142.54 507.609V516.311H1141.77V511.203H1139.72V510.578H1141.77V507.609H1142.54ZM1151.01 510.246V510.861H1145.06V507.932H1145.82V510.246H1151.01ZM1151.92 512.043V512.668H1143.97V512.043H1151.92ZM1151.06 515.441V516.076H1145.01V513.557H1145.77V515.441H1151.06ZM1085.31 520.988V521.613H1080.96V520.988H1082.76V519.748H1083.52V520.988H1085.31ZM1083.14 522.199C1084.23 522.199 1085.01 523.019 1085.02 524.172C1085.01 525.334 1084.23 526.164 1083.14 526.164C1082.05 526.164 1081.27 525.334 1081.27 524.172C1081.27 523.019 1082.05 522.199 1083.14 522.199ZM1083.14 522.844C1082.45 522.854 1081.96 523.41 1081.96 524.172C1081.96 524.943 1082.45 525.5 1083.14 525.49C1083.83 525.5 1084.34 524.943 1084.34 524.172C1084.34 523.41 1083.83 522.854 1083.14 522.844ZM1088.37 519.484V528.166H1087.64V523.781H1086.49V527.736H1085.76V519.699H1086.49V523.146H1087.64V519.484H1088.37ZM1096.82 519.484V523.976H1096.04V521.721H1094.11V521.086H1096.04V519.484H1096.82ZM1096.82 524.416V526.486H1091.96V527.434H1097.14V528.049H1091.21V525.901H1096.06V525.031H1091.19V524.416H1096.82ZM1092.58 520.588C1092.57 521.731 1093.47 522.766 1094.74 523.186L1094.32 523.781C1093.36 523.439 1092.6 522.756 1092.22 521.877C1091.84 522.868 1091.06 523.625 1090.03 523.996L1089.61 523.381C1090.92 522.951 1091.82 521.857 1091.82 520.588V519.768H1092.58V520.588ZM1103.07 520.451V520.901C1103.07 521.584 1103.07 522.736 1102.82 524.348L1102.05 524.279C1102.29 522.824 1102.31 521.769 1102.31 521.076H1098.66V520.451H1103.07ZM1100.8 522.932V525.568C1101.76 525.534 1102.75 525.471 1103.65 525.363L1103.69 525.939C1101.86 526.223 1099.82 526.262 1098.27 526.252L1098.17 525.617C1098.74 525.612 1099.38 525.607 1100.05 525.588V522.932H1100.8ZM1104.96 519.484V523.117H1106.37V523.781H1104.96V528.166H1104.2V519.484H1104.96ZM1117.36 523.928V524.562H1113.82V526.34H1113.06V524.562H1109.41V523.928H1117.36ZM1116.32 519.914V522.932H1110.44V519.914H1116.32ZM1111.19 520.519V522.316H1115.56V520.519H1111.19ZM1116.46 527.336V527.981H1110.42V525.481H1111.19V527.336H1116.46ZM1125.48 519.484V528.166H1124.74V519.484H1125.48ZM1123.72 519.699V527.717H1123V523.244H1121.53V522.619H1123V519.699H1123.72ZM1120.61 521.965C1120.61 523.469 1121.28 524.963 1122.48 525.656L1122.01 526.223C1121.16 525.71 1120.55 524.773 1120.26 523.664C1119.94 524.861 1119.31 525.881 1118.44 526.428L1117.95 525.851C1119.16 525.129 1119.86 523.547 1119.86 521.965V521.144H1118.19V520.51H1122.2V521.144H1120.61V521.965ZM1129.54 520.119C1130.91 520.119 1131.87 520.949 1131.87 522.16C1131.87 523.371 1130.91 524.201 1129.54 524.201C1128.17 524.201 1127.19 523.371 1127.2 522.16C1127.19 520.949 1128.17 520.119 1129.54 520.119ZM1129.54 520.793C1128.61 520.793 1127.94 521.349 1127.95 522.16C1127.94 522.971 1128.61 523.527 1129.54 523.527C1130.46 523.527 1131.12 522.971 1131.12 522.16C1131.12 521.349 1130.46 520.793 1129.54 520.793ZM1133.82 519.484V528.186H1133.06V519.484H1133.82ZM1126.75 525.617C1128.35 525.617 1130.56 525.607 1132.48 525.324L1132.54 525.891C1130.56 526.262 1128.42 526.271 1126.86 526.271L1126.75 525.617ZM1144.64 519.484V521.526H1145.95V522.17H1144.64V524.113H1143.87V519.484H1144.64ZM1142.11 520.061V520.695H1139.02V523.176C1140.77 523.176 1141.76 523.122 1142.92 522.883L1143.02 523.518C1141.8 523.762 1140.76 523.82 1138.94 523.82H1138.26V520.061H1142.11ZM1139.9 524.582V525.666H1143.87V524.582H1144.64V528.019H1139.14V524.582H1139.9ZM1139.9 527.385H1143.87V526.281H1139.9V527.385ZM1150.45 519.641C1152.38 519.641 1153.52 520.168 1153.52 521.135C1153.52 522.121 1152.38 522.649 1150.45 522.658C1148.52 522.649 1147.37 522.121 1147.37 521.135C1147.37 520.168 1148.52 519.641 1150.45 519.641ZM1150.45 520.217C1149.01 520.217 1148.16 520.568 1148.17 521.135C1148.16 521.74 1149.01 522.072 1150.45 522.072C1151.89 522.072 1152.74 521.74 1152.74 521.135C1152.74 520.568 1151.89 520.217 1150.45 520.217ZM1154.41 523.244V523.869H1146.49V523.244H1154.41ZM1153.39 524.621V526.564H1148.23V527.463H1153.65V528.068H1147.47V525.998H1152.64V525.207H1147.45V524.621H1153.39ZM1085.3 531.506V532.336H1089.6V531.506H1090.36V534.357H1087.8V535.217H1091.39V535.842H1083.49V535.217H1087.05V534.357H1084.54V531.506H1085.3ZM1085.3 533.762H1089.6V532.922H1085.3V533.762ZM1090.38 536.564V538.488H1085.22V539.338H1090.64V539.943H1084.46V537.922H1089.63V537.151H1084.44V536.564H1090.38ZM1098.99 532.17C1098.99 533.391 1100.59 534.455 1102.16 534.67L1101.84 535.295C1100.5 535.07 1099.16 534.323 1098.61 533.254C1098.05 534.328 1096.71 535.07 1095.36 535.295L1095.05 534.67C1096.61 534.455 1098.21 533.41 1098.21 532.17V531.672H1098.99V532.17ZM1102.55 536.252V536.896H1098.96V540.041H1098.21V536.896H1094.64V536.252H1102.55ZM1108.73 537.189C1108.73 537.956 1109.14 538.771 1109.97 539.24C1110.79 538.728 1111.23 537.863 1111.23 537.189V536.711H1111.98V537.189C1111.98 538.078 1112.64 538.976 1113.75 539.357L1113.37 539.924C1112.5 539.616 1111.89 539.011 1111.59 538.283C1111.32 538.986 1110.79 539.651 1109.99 539.992C1109.14 539.67 1108.61 539.03 1108.35 538.303C1108.04 539.006 1107.44 539.611 1106.61 539.924L1106.22 539.357C1107.31 538.947 1107.98 538.019 1107.99 537.189V536.711H1108.73V537.189ZM1112.96 531.369V536.33H1112.2V531.369H1112.96ZM1108.27 531.877C1109.59 531.877 1110.55 532.698 1110.55 533.908C1110.55 535.099 1109.59 535.92 1108.27 535.92C1106.96 535.92 1105.99 535.099 1105.99 533.908C1105.99 532.698 1106.96 531.877 1108.27 531.877ZM1108.27 532.531C1107.38 532.521 1106.74 533.098 1106.75 533.908C1106.74 534.709 1107.38 535.276 1108.27 535.285C1109.15 535.276 1109.79 534.709 1109.79 533.908C1109.79 533.098 1109.15 532.521 1108.27 532.531ZM1116.77 532.033C1117.95 532.043 1118.8 533.054 1118.92 534.68H1120.87V531.359H1121.63V540.061H1120.87V535.314H1118.94C1118.84 537.014 1117.98 538.078 1116.77 538.078C1115.49 538.078 1114.59 536.906 1114.59 535.061C1114.59 533.215 1115.49 532.043 1116.77 532.033ZM1116.77 532.717C1115.91 532.726 1115.32 533.644 1115.32 535.061C1115.32 536.476 1115.91 537.394 1116.77 537.394C1117.62 537.394 1118.21 536.476 1118.21 535.061C1118.21 533.644 1117.62 532.726 1116.77 532.717ZM1131.02 538.283V538.928H1123.07V538.283H1125.05V535.939C1124.31 535.554 1123.86 534.929 1123.86 534.143C1123.86 532.795 1125.17 531.916 1127.03 531.906C1128.89 531.916 1130.21 532.795 1130.21 534.143C1130.21 534.914 1129.77 535.534 1129.05 535.92V538.283H1131.02ZM1127.03 532.541C1125.61 532.531 1124.6 533.176 1124.6 534.143C1124.6 535.109 1125.61 535.764 1127.03 535.764C1128.45 535.764 1129.46 535.109 1129.46 534.143C1129.46 533.176 1128.45 532.531 1127.03 532.541ZM1125.8 538.283H1128.28V536.213C1127.91 536.316 1127.49 536.369 1127.03 536.369C1126.59 536.369 1126.17 536.32 1125.8 536.223V538.283Z" fill="black"/>
<path d="M1062.37 505.779L1031.88 491.125" stroke="black"/>
<path d="M1095.62 580.5H1022.5C1019.05 580.5 1016.25 583.298 1016.25 586.75V608.625C1016.25 612.077 1019.05 614.875 1022.5 614.875H1095.62C1099.08 614.875 1101.88 612.077 1101.88 608.625V586.75C1101.88 583.298 1099.08 580.5 1095.62 580.5Z" fill="#265CFF"/>
<path d="M1040.34 591.629H1041.49V604.086H1040.34V591.629ZM1041.22 596.538H1043.53V597.5H1041.22V596.538ZM1032.46 600.03H1033.44C1035.73 600.03 1037.34 599.948 1039.2 599.604L1039.32 600.566C1037.41 600.924 1035.77 600.993 1033.44 600.993H1032.46V600.03ZM1032.46 592.839H1038.24V593.774H1033.59V600.456H1032.46V592.839ZM1050.19 591.918C1052.87 591.918 1054.57 592.798 1054.57 594.269C1054.57 595.74 1052.87 596.606 1050.19 596.606C1047.5 596.606 1045.82 595.74 1045.82 594.269C1045.82 592.798 1047.5 591.918 1050.19 591.918ZM1050.19 592.825C1048.22 592.825 1046.99 593.348 1046.99 594.269C1046.99 595.176 1048.22 595.713 1050.19 595.713C1052.16 595.713 1053.4 595.176 1053.4 594.269C1053.4 593.348 1052.16 592.825 1050.19 592.825ZM1045.95 599.81H1054.43V603.908H1045.95V599.81ZM1053.32 600.731H1047.07V602.986H1053.32V600.731ZM1044.57 597.679H1055.81V598.6H1044.57V597.679ZM1061.09 597.995H1072.35V598.93H1061.09V597.995ZM1066.23 598.573H1067.37V601.433H1066.23V598.573ZM1062.53 592.22H1070.89V596.593H1062.53V592.22ZM1069.76 593.141H1063.64V595.671H1069.76V593.141ZM1062.52 602.863H1071.1V603.798H1062.52V602.863ZM1062.52 600.236H1063.64V603.193H1062.52V600.236ZM1083.2 591.643H1084.3V604.073H1083.2V591.643ZM1078.67 596.098H1081.05V597.046H1078.67V596.098ZM1080.71 591.931H1081.78V603.44H1080.71V591.931ZM1076.28 593.568H1077.16V595.149C1077.16 597.871 1076.12 600.443 1074.29 601.598L1073.59 600.745C1075.32 599.7 1076.28 597.431 1076.28 595.149V593.568ZM1076.51 593.568H1077.39V595.149C1077.39 597.308 1078.33 599.466 1080.04 600.456L1079.33 601.295C1077.52 600.195 1076.51 597.748 1076.51 595.149V593.568ZM1073.93 593.086H1079.61V594.035H1073.93V593.086Z" fill="white"/>
<path d="M1089.38 254.562H103.75C99.0901 254.562 95.3125 258.34 95.3125 263V311.125C95.3125 315.785 99.0901 319.562 103.75 319.562H1089.38C1094.03 319.562 1097.81 315.785 1097.81 311.125V263C1097.81 258.34 1094.03 254.562 1089.38 254.562Z" fill="#E4F9F3"/>
<path d="M1089.38 254.562H103.75C99.0901 254.562 95.3125 258.34 95.3125 263V311.125C95.3125 315.785 99.0901 319.562 103.75 319.562H1089.38C1094.03 319.562 1097.81 315.785 1097.81 311.125V263C1097.81 258.34 1094.03 254.562 1089.38 254.562Z" stroke="#68F665" stroke-width="3"/>
<path d="M128.412 283.554C128.412 286.333 130.252 289.183 132.483 290.279L131.633 291.395C129.899 290.483 128.447 288.625 127.757 286.439C127.049 288.766 125.562 290.749 123.792 291.696L122.907 290.581C125.208 289.448 127.031 286.421 127.049 283.554V280.686H128.412V283.554ZM135.315 279.323V285.713H137.952V286.917H135.315V295.059H133.934V279.323H135.315ZM151.705 279.323V295.059H150.325V279.323H151.705ZM138.89 290.864C140.235 290.855 141.775 290.846 143.369 290.793V289.076C141.484 288.873 140.253 287.802 140.271 286.226C140.253 284.456 141.775 283.306 144.041 283.306C146.307 283.306 147.847 284.456 147.847 286.226C147.847 287.784 146.625 288.855 144.767 289.058V290.74C146.289 290.678 147.829 290.563 149.28 290.368L149.387 291.43C145.882 291.997 142.023 292.049 139.102 292.049L138.89 290.864ZM148.873 281.27V282.403H139.227V281.27H143.369V279.341H144.767V281.27H148.873ZM144.041 284.386C142.59 284.386 141.563 285.129 141.563 286.226C141.563 287.324 142.59 288.032 144.041 288.014C145.51 288.032 146.519 287.324 146.519 286.226C146.519 285.129 145.51 284.386 144.041 284.386Z" fill="black"/>
<path d="M590.371 222.886V234.25H588.995V224.329H588.928L586.153 226.171V224.773L588.995 222.886H590.371ZM597.678 222.354L594.016 235.959H592.818L596.48 222.354H597.678ZM603.203 222.886V234.25H601.827V224.329H601.76L598.986 226.171V224.773L601.827 222.886H603.203ZM610.023 234.405C609.371 234.405 608.785 234.275 608.263 234.017C607.742 233.758 607.324 233.403 607.01 232.952C606.695 232.5 606.523 231.986 606.493 231.409H607.825C607.877 231.923 608.11 232.349 608.525 232.685C608.942 233.018 609.441 233.184 610.023 233.184C610.488 233.184 610.903 233.075 611.265 232.857C611.631 232.639 611.918 232.339 612.125 231.958C612.336 231.574 612.441 231.139 612.441 230.654C612.441 230.159 612.333 229.717 612.115 229.328C611.9 228.936 611.604 228.627 611.226 228.402C610.849 228.176 610.418 228.061 609.934 228.057C609.586 228.054 609.229 228.107 608.863 228.219C608.496 228.325 608.195 228.464 607.958 228.635L606.671 228.479L607.359 222.886H613.263V224.107H608.513L608.114 227.459H608.18C608.413 227.274 608.706 227.12 609.057 226.998C609.408 226.875 609.775 226.815 610.156 226.815C610.851 226.815 611.471 226.981 612.015 227.314C612.562 227.643 612.991 228.095 613.301 228.668C613.616 229.241 613.773 229.896 613.773 230.632C613.773 231.357 613.611 232.004 613.285 232.574C612.963 233.14 612.52 233.588 611.953 233.917C611.388 234.242 610.744 234.405 610.023 234.405Z" fill="#50555C"/>
</g>
</g>
<rect x="0.5" y="1" width="1199" height="639" stroke="black"/>
<defs>
<filter id="filter0_d_3033_2345" x="-4" y="0.5" width="1208" height="51.75" filterUnits="userSpaceOnUse" color-interpolation-filters="sRGB">
<feFlood flood-opacity="0" result="BackgroundImageFix"/>
<feColorMatrix in="SourceAlpha" type="matrix" values="0 0 0 0 0 0 0 0 0 0 0 0 0 0 0 0 0 0 127 0" result="hardAlpha"/>
<feOffset dy="4"/>
<feGaussianBlur stdDeviation="2"/>
<feComposite in2="hardAlpha" operator="out"/>
<feColorMatrix type="matrix" values="0 0 0 0 0.748333 0 0 0 0 0.748333 0 0 0 0 0.748333 0 0 0 0.25 0"/>
<feBlend mode="normal" in2="BackgroundImageFix" result="effect1_dropShadow_3033_2345"/>
<feBlend mode="normal" in="SourceGraphic" in2="effect1_dropShadow_3033_2345" result="shape"/>
</filter>
<filter id="filter1_d_3033_2345" x="1031" y="11.125" width="79.25" height="30.5" filterUnits="userSpaceOnUse" color-interpolation-filters="sRGB">
<feFlood flood-opacity="0" result="BackgroundImageFix"/>
<feColorMatrix in="SourceAlpha" type="matrix" values="0 0 0 0 0 0 0 0 0 0 0 0 0 0 0 0 0 0 127 0" result="hardAlpha"/>
<feOffset dy="4"/>
<feGaussianBlur stdDeviation="2"/>
<feComposite in2="hardAlpha" operator="out"/>
<feColorMatrix type="matrix" values="0 0 0 0 0.62 0 0 0 0 0.62 0 0 0 0 0.62 0 0 0 0.25 0"/>
<feBlend mode="normal" in2="BackgroundImageFix" result="effect1_dropShadow_3033_2345"/>
<feBlend mode="normal" in="SourceGraphic" in2="effect1_dropShadow_3033_2345" result="shape"/>
</filter>
<filter id="filter2_i_3033_2345" x="95" y="85.5" width="1011.25" height="120.625" filterUnits="userSpaceOnUse" color-interpolation-filters="sRGB">
<feFlood flood-opacity="0" result="BackgroundImageFix"/>
<feBlend mode="normal" in="SourceGraphic" in2="BackgroundImageFix" result="shape"/>
<feColorMatrix in="SourceAlpha" type="matrix" values="0 0 0 0 0 0 0 0 0 0 0 0 0 0 0 0 0 0 127 0" result="hardAlpha"/>
<feOffset/>
<feGaussianBlur stdDeviation="5"/>
<feComposite in2="hardAlpha" operator="arithmetic" k2="-1" k3="1"/>
<feColorMatrix type="matrix" values="0 0 0 0 0.404167 0 0 0 0 0.404167 0 0 0 0 0.404167 0 0 0 0.25 0"/>
<feBlend mode="normal" in2="shape" result="effect1_innerShadow_3033_2345"/>
</filter>
<filter id="filter3_i_3033_2345" x="94.375" y="364.25" width="1011.25" height="198.75" filterUnits="userSpaceOnUse" color-interpolation-filters="sRGB">
<feFlood flood-opacity="0" result="BackgroundImageFix"/>
<feBlend mode="normal" in="SourceGraphic" in2="BackgroundImageFix" result="shape"/>
<feColorMatrix in="SourceAlpha" type="matrix" values="0 0 0 0 0 0 0 0 0 0 0 0 0 0 0 0 0 0 127 0" result="hardAlpha"/>
<feOffset/>
<feGaussianBlur stdDeviation="5"/>
<feComposite in2="hardAlpha" operator="arithmetic" k2="-1" k3="1"/>
<feColorMatrix type="matrix" values="0 0 0 0 0.404167 0 0 0 0 0.404167 0 0 0 0 0.404167 0 0 0 0.25 0"/>
<feBlend mode="normal" in2="shape" result="effect1_innerShadow_3033_2345"/>
</filter>
<clipPath id="clip0_3033_2345">
<rect y="0.5" width="1200" height="640" fill="white"/>
</clipPath>
</defs>
</svg>
