<svg width="1200" height="653" viewBox="0 0 1200 653" fill="none" xmlns="http://www.w3.org/2000/svg">
<g clip-path="url(#clip0_3033_2037)">
<mask id="mask0_3033_2037" style="mask-type:luminance" maskUnits="userSpaceOnUse" x="0" y="0" width="1200" height="653">
<path d="M1200 0H0V652.5H1200V0Z" fill="white"/>
</mask>
<g mask="url(#mask0_3033_2037)">
<path d="M1200 0H0V652.5H1200V0Z" fill="#F8F8F8"/>
<g filter="url(#filter0_d_3033_2037)">
<path d="M1200 0H0V43.75H1200V0Z" fill="white"/>
<path d="M31.6375 26.9375C30.0458 26.9375 28.8125 26.5583 27.9375 25.8C27.0625 25.0333 26.625 23.9 26.625 22.4C26.625 20.9083 27.0625 19.7833 27.9375 19.025C28.8125 18.2583 30.075 17.875 31.725 17.875H33.975C35.625 17.875 36.8875 18.2583 37.7625 19.025C38.6375 19.7833 39.075 20.9083 39.075 22.4C39.075 23.9 38.6375 25.0333 37.7625 25.8C36.8875 26.5583 35.6458 26.9375 34.0375 26.9375H33.875V28.25H31.875V26.9375H31.6375ZM33.875 23.75V25.3125C34.95 25.3042 35.7458 25.0708 36.2625 24.6125C36.7792 24.1542 37.0375 23.4167 37.0375 22.4C37.0375 21.3833 36.775 20.6458 36.25 20.1875C35.7333 19.7292 34.9292 19.5 33.8375 19.5H31.8625C30.7792 19.5 29.975 19.7292 29.45 20.1875C28.925 20.6458 28.6625 21.3833 28.6625 22.4C28.6625 23.4167 28.925 24.1583 29.45 24.625C29.975 25.0833 30.7833 25.3125 31.875 25.3125V23.75H33.875ZM39.9458 23.95V22.5125H43.7708V23.95H39.9458ZM44.9551 26.875V20.4375H46.7676V26.875H44.9551ZM44.9426 19.375V17.9625H46.7801V19.375H44.9426ZM48.1411 26.875V20.4375H53.7536C54.4869 20.4375 55.0203 20.6208 55.3536 20.9875C55.6953 21.3458 55.8661 21.8208 55.8661 22.4125V26.875H54.0536V22.625C54.0536 22.125 53.8036 21.875 53.3036 21.875H49.9536V26.875H48.1411ZM60.5243 26.875C59.7993 26.875 59.266 26.6958 58.9243 26.3375C58.5826 25.9708 58.4118 25.4917 58.4118 24.9V21.875H56.5493V20.4375H58.4118V18.4625H60.2243V20.4375H62.8994V21.875H60.2243V24.675C60.2243 25.1833 60.4743 25.4375 60.9743 25.4375H63.2494V26.875H60.5243Z" fill="black"/>
<g filter="url(#filter1_d_3033_2037)">
<path d="M1103.12 10.625H1038.12C1036.4 10.625 1035 12.0241 1035 13.75V30C1035 31.7259 1036.4 33.125 1038.12 33.125H1103.12C1104.85 33.125 1106.25 31.7259 1106.25 30V13.75C1106.25 12.0241 1104.85 10.625 1103.12 10.625Z" fill="#00EDA6"/>
<path d="M1062.37 22.9962V23.5199H1055.91V22.9962H1058.81V21.6632H1056.72V19.4891H1060.94V18.3783H1056.71V17.8626H1061.55V19.9969H1057.34V21.1474H1061.72V21.6632H1059.43V22.9962H1062.37ZM1068.49 18.0926V18.7988C1068.49 19.6875 1068.49 20.6952 1068.23 22.2266L1067.6 22.1631C1067.88 20.719 1067.88 19.6637 1067.88 18.7988V18.6084H1063.63V18.0926H1068.49ZM1069.36 22.8375V23.3532H1062.93V22.8375H1069.36ZM1071.84 17.8864C1072.88 17.8943 1073.62 18.8464 1073.63 20.3461C1073.62 21.8457 1072.88 22.7979 1071.84 22.7979C1070.79 22.7979 1070.07 21.8457 1070.07 20.3461C1070.07 18.8464 1070.79 17.8943 1071.84 17.8864ZM1071.84 18.4417C1071.14 18.4497 1070.65 19.1956 1070.65 20.3461C1070.65 21.4966 1071.14 22.2424 1071.84 22.2424C1072.55 22.2424 1073.03 21.4966 1073.03 20.3461C1073.03 19.1956 1072.55 18.4497 1071.84 18.4417ZM1075.41 17.3389V20.1556H1076.59V20.6952H1075.41V24.3927H1074.79V17.3389H1075.41ZM1083.43 20.5603V21.0999H1080.48V21.8695H1079.88V21.0999H1076.98V20.5603H1083.43ZM1080.49 22.417C1080.49 23.1946 1081.64 23.7579 1082.91 23.8849L1082.71 24.3609C1081.6 24.2419 1080.59 23.8135 1080.18 23.1311C1079.76 23.8056 1078.76 24.2419 1077.65 24.3609L1077.44 23.8849C1078.71 23.7579 1079.86 23.1866 1079.86 22.417V22.1869H1080.49V22.417ZM1080.19 17.4579C1081.74 17.4579 1082.68 17.9181 1082.68 18.7433C1082.68 19.5606 1081.74 20.0366 1080.19 20.0287C1078.64 20.0366 1077.69 19.5606 1077.69 18.7433C1077.69 17.9181 1078.64 17.4579 1080.19 17.4579ZM1080.19 17.9339C1079.04 17.926 1078.33 18.2355 1078.33 18.7433C1078.33 19.2432 1079.04 19.5447 1080.19 19.5447C1081.33 19.5447 1082.05 19.2432 1082.05 18.7433C1082.05 18.2355 1081.33 17.926 1080.19 17.9339Z" fill="black"/>
</g>
<path d="M952.469 18.4375H956.344V23.81H952.469V18.4375ZM955.2 19.3475H953.619V22.8912H955.2V19.3475ZM957.406 17.6762H958.575V25.7787H957.406V17.6762ZM958.313 20.73H959.75V21.6925H958.313V20.73ZM965.831 17.6675H967V25.7962H965.831V17.6675ZM962.638 18.2362C963.863 18.2362 964.763 19.3562 964.763 21.1237C964.763 22.9087 963.863 24.0287 962.638 24.0287C961.413 24.0287 960.512 22.9087 960.512 21.1237C960.512 19.3562 961.413 18.2362 962.638 18.2362ZM962.638 19.295C962.031 19.295 961.619 19.9337 961.619 21.1237C961.619 22.3312 962.031 22.9787 962.638 22.9787C963.238 22.9787 963.644 22.3312 963.644 21.1237C963.644 19.9337 963.238 19.295 962.638 19.295ZM975.819 17.6762H976.931V25.7787H975.819V17.6762ZM973.45 20.625H974.531V21.6487H973.45V20.625ZM974.213 17.8337H975.306V25.4025H974.213V17.8337ZM969.956 18.5862H973.644V19.5137H969.956V18.5862ZM969.938 23.9412L969.819 22.9962C970.831 22.9962 972.538 22.97 973.763 22.8037L973.844 23.6437C972.581 23.915 970.938 23.9412 969.938 23.9412ZM970.456 19.1812H971.5V23.2412H970.456V19.1812ZM972.081 19.1812H973.131V23.2412H972.081V19.1812ZM983.5 17.6675H984.675V25.7962H983.5V17.6675ZM980.306 18.2362C981.531 18.2362 982.431 19.3562 982.431 21.1237C982.431 22.9087 981.531 24.0287 980.306 24.0287C979.081 24.0287 978.181 22.9087 978.181 21.1237C978.181 19.3562 979.081 18.2362 980.306 18.2362ZM980.306 19.295C979.706 19.295 979.294 19.9337 979.294 21.1237C979.294 22.3312 979.706 22.9787 980.306 22.9787C980.913 22.9787 981.313 22.3312 981.313 21.1237C981.313 19.9337 980.913 19.295 980.306 19.295ZM987.944 18.9537H988.875V19.8637C988.875 21.7362 988.113 23.565 986.588 24.2562L985.931 23.3375C987.288 22.7337 987.944 21.2375 987.944 19.8637V18.9537ZM988.206 18.9537H989.125V19.8637C989.125 21.1762 989.775 22.5762 991.131 23.1362L990.5 24.055C988.963 23.39 988.206 21.6662 988.206 19.8637V18.9537ZM986.256 18.455H990.8V19.4087H986.256V18.455ZM991.55 17.6762H992.725V25.7787H991.55V17.6762Z" fill="#00EDA6"/>
</g>
<path d="M592.5 154.375H230C226.548 154.375 223.75 157.173 223.75 160.625V491.25C223.75 494.702 226.548 497.5 230 497.5H592.5C595.952 497.5 598.75 494.702 598.75 491.25V160.625C598.75 157.173 595.952 154.375 592.5 154.375Z" fill="white"/>
<path d="M248.089 173.912H250.127V175.275H248.089V173.912ZM246.852 169.525H248.527V181.1H246.852V169.525ZM239.802 170.637H241.464V177.825H239.802V170.637ZM239.802 176.9H240.802C242.452 176.9 244.239 176.787 246.102 176.412L246.277 177.775C244.364 178.175 242.502 178.275 240.802 178.275H239.802V176.9ZM254.476 170.3C256.301 170.3 257.664 171.487 257.664 173.15C257.664 174.825 256.301 176.012 254.476 176.012C252.664 176.012 251.276 174.825 251.276 173.15C251.276 171.487 252.664 170.3 254.476 170.3ZM254.476 171.725C253.589 171.725 252.914 172.25 252.914 173.15C252.914 174.062 253.589 174.587 254.476 174.587C255.364 174.587 256.039 174.062 256.039 173.15C256.039 172.25 255.364 171.725 254.476 171.725ZM258.751 169.525H260.414V181.137H258.751V169.525ZM251.001 178.787L250.801 177.45C252.839 177.45 255.676 177.425 258.114 177.062L258.239 178.262C255.726 178.762 253.001 178.787 251.001 178.787ZM271.225 172.337H273.425V173.687H271.225V172.337ZM272.975 169.537H274.638V176.412H272.975V169.537ZM270.713 176.662C273.163 176.662 274.675 177.5 274.675 178.9C274.675 180.312 273.163 181.125 270.713 181.125C268.263 181.125 266.75 180.312 266.75 178.9C266.75 177.5 268.263 176.662 270.713 176.662ZM270.713 177.925C269.213 177.925 268.413 178.237 268.413 178.9C268.413 179.55 269.213 179.862 270.713 179.862C272.225 179.862 273.026 179.55 273.026 178.9C273.026 178.237 272.225 177.925 270.713 177.925ZM267.625 170.7H268.975V171.425C268.975 173.637 267.95 175.662 265.738 176.412L264.888 175.1C266.801 174.45 267.625 172.912 267.625 171.425V170.7ZM267.975 170.7H269.313V171.425C269.313 172.787 270.1 174.2 271.925 174.812L271.113 176.125C268.963 175.412 267.975 173.487 267.975 171.425V170.7ZM265.338 170.237H271.563V171.562H265.338V170.237ZM283.7 169.537H285.362V175.737H283.7V169.537ZM284.9 172.025H286.9V173.375H284.9V172.025ZM276.687 174.137H277.65C280.162 174.137 281.412 174.075 282.8 173.787L282.962 175.1C281.55 175.412 280.225 175.475 277.65 175.475H276.687V174.137ZM276.687 170.225H281.825V171.55H278.337V175.025H276.687V170.225ZM277.8 176.3H279.45V177.35H283.712V176.3H285.362V180.975H277.8V176.3ZM279.45 178.637V179.65H283.712V178.637H279.45ZM287.549 174.65H298.036V175.862H287.549V174.65ZM288.724 176.525H296.786V179.275H290.399V180.262H288.749V178.225H295.149V177.65H288.724V176.525ZM288.749 179.912H297.111V181.037H288.749V179.912ZM288.836 169.725H296.761V172.45H290.499V173.4H288.849V171.4H295.124V170.837H288.836V169.725ZM288.849 173.012H296.974V174.137H288.849V173.012ZM290.124 175.062H291.774V177.237H290.124V175.062ZM293.811 175.062H295.461V177.237H293.811V175.062Z" fill="#787878"/>
<path d="M526.875 336.25C526.875 360.972 519.544 385.14 505.809 405.696C492.074 426.253 472.551 442.274 449.711 451.735C426.869 461.196 401.736 463.671 377.489 458.848C353.241 454.025 330.968 442.12 313.487 424.638C296.005 407.157 284.1 384.884 279.277 360.636C274.454 336.389 276.929 311.256 286.39 288.414C295.851 265.574 311.872 246.051 332.429 232.316C352.985 218.581 377.152 211.25 401.875 211.25V275.674C389.894 275.674 378.182 279.227 368.221 285.883C358.259 292.539 350.495 302 345.911 313.069C341.326 324.138 340.126 336.318 342.463 348.068C344.801 359.818 350.57 370.612 359.042 379.083C367.513 387.555 378.307 393.324 390.057 395.662C401.807 397.999 413.987 396.799 425.056 392.214C436.125 387.63 445.586 379.866 452.242 369.904C458.898 359.943 462.451 348.231 462.451 336.25H526.875Z" fill="#5BFF57"/>
<path d="M526.875 336.25C526.875 319.835 523.642 303.58 517.36 288.414C511.078 273.249 501.871 259.469 490.263 247.862C478.656 236.254 464.876 227.047 449.711 220.765C434.545 214.483 418.29 211.25 401.875 211.25V275.332C409.875 275.332 417.796 276.907 425.187 279.969C432.578 283.031 439.294 287.518 444.951 293.174C450.608 298.831 455.094 305.547 458.156 312.938C461.218 320.329 462.793 328.25 462.793 336.25H526.875Z" fill="#FF3263"/>
<path d="M256.25 204.375H248.75V211.875H256.25V204.375Z" fill="#5BFF57"/>
<path d="M263.925 206.925H265.2V207.356H263.925V206.925ZM265.038 205.462H265.557V208.831H265.038V205.462ZM263.7 209C264.863 209 265.582 209.394 265.582 210.056C265.582 210.725 264.863 211.106 263.7 211.106C262.532 211.106 261.813 210.725 261.813 210.056C261.813 209.394 262.532 209 263.7 209ZM263.7 209.406C262.85 209.406 262.332 209.644 262.332 210.056C262.332 210.462 262.85 210.7 263.7 210.7C264.55 210.7 265.069 210.462 265.069 210.056C265.069 209.644 264.55 209.406 263.7 209.406ZM262.35 206.031H262.775V206.487C262.775 207.531 262.138 208.425 261.2 208.775L260.932 208.362C261.769 208.056 262.35 207.3 262.35 206.487V206.031ZM262.45 206.031H262.869V206.487C262.869 207.219 263.419 207.919 264.238 208.206L263.975 208.619C263.057 208.287 262.45 207.437 262.45 206.487V206.031ZM261.088 205.875H264.107V206.3H261.088V205.875ZM270.325 205.462H270.844V208.475H270.325V205.462ZM270.7 206.781H271.681V207.212H270.7V206.781ZM266.719 207.856H267.156C268.319 207.856 268.975 207.819 269.731 207.669L269.787 208.087C269.012 208.25 268.344 208.287 267.156 208.287H266.719V207.856ZM266.719 205.831H269.206V206.256H267.231V208.15H266.719V205.831ZM267.281 208.781H267.794V209.475H270.331V208.781H270.844V211.019H267.281V208.781ZM267.794 209.887V210.594H270.331V209.887H267.794Z" fill="black"/>
<path d="M256.25 216.25H248.75V223.75H256.25V216.25Z" fill="#FF3263"/>
<path d="M263.201 220.531H263.719V221.937H263.201V220.531ZM263.463 217.706C264.657 217.706 265.513 218.287 265.513 219.187C265.513 220.087 264.657 220.669 263.463 220.669C262.269 220.669 261.407 220.087 261.407 219.187C261.407 218.287 262.269 217.706 263.463 217.706ZM263.463 218.119C262.563 218.119 261.907 218.544 261.907 219.187C261.907 219.831 262.563 220.256 263.463 220.256C264.357 220.256 265.013 219.831 265.013 219.187C265.013 218.544 264.357 218.119 263.463 218.119ZM260.913 221.837H266.032V222.269H260.913V221.837ZM270.325 217.337H270.844V220.35H270.325V217.337ZM270.7 218.656H271.681V219.087H270.7V218.656ZM266.719 219.731H267.156C268.319 219.731 268.975 219.694 269.731 219.544L269.787 219.962C269.012 220.125 268.344 220.162 267.156 220.162H266.719V219.731ZM266.719 217.706H269.206V218.131H267.231V220.025H266.719V217.706ZM267.281 220.656H267.794V221.35H270.331V220.656H270.844V222.894H267.281V220.656ZM267.794 221.762V222.469H270.331V221.762H267.794Z" fill="black"/>
<path d="M291.91 435.625L303.122 413.432V413.252H290.107V409.261H308.065V413.342L296.866 435.625H291.91ZM320.831 435.985C319.115 435.985 317.579 435.664 316.223 435.02C314.867 434.367 313.79 433.475 312.992 432.342C312.202 431.209 311.782 429.914 311.731 428.455H316.364C316.451 429.536 316.918 430.42 317.767 431.107C318.617 431.784 319.639 432.124 320.831 432.124C321.767 432.124 322.599 431.909 323.329 431.48C324.058 431.05 324.633 430.454 325.054 429.69C325.474 428.927 325.68 428.055 325.672 427.077C325.68 426.082 325.47 425.198 325.041 424.425C324.612 423.653 324.024 423.048 323.277 422.61C322.531 422.164 321.672 421.941 320.702 421.941C319.913 421.932 319.136 422.079 318.372 422.379C317.609 422.679 317.004 423.074 316.557 423.563L312.245 422.855L313.622 409.261H328.916V413.252H317.574L316.815 420.242H316.969C317.459 419.667 318.149 419.19 319.042 418.813C319.934 418.427 320.913 418.234 321.977 418.234C323.573 418.234 324.998 418.611 326.251 419.367C327.504 420.113 328.491 421.143 329.212 422.456C329.932 423.769 330.293 425.27 330.293 426.961C330.293 428.704 329.889 430.257 329.083 431.621C328.285 432.977 327.174 434.045 325.749 434.827C324.333 435.599 322.694 435.985 320.831 435.985ZM348.501 430.682V429.291C348.501 428.27 348.716 427.33 349.145 426.472C349.582 425.614 350.217 424.923 351.05 424.4C351.882 423.876 352.891 423.614 354.075 423.614C355.294 423.614 356.315 423.876 357.139 424.4C357.962 424.915 358.585 425.601 359.006 426.459C359.434 427.317 359.649 428.262 359.649 429.291V430.682C359.649 431.703 359.434 432.642 359.006 433.501C358.576 434.359 357.946 435.05 357.113 435.574C356.289 436.097 355.277 436.359 354.075 436.359C352.874 436.359 351.857 436.097 351.024 435.574C350.192 435.05 349.561 434.359 349.132 433.501C348.711 432.642 348.501 431.703 348.501 430.682ZM351.861 429.291V430.682C351.861 431.36 352.024 431.982 352.35 432.548C352.676 433.115 353.251 433.398 354.075 433.398C354.907 433.398 355.478 433.119 355.787 432.561C356.105 431.995 356.264 431.368 356.264 430.682V429.291C356.264 428.605 356.113 427.979 355.813 427.412C355.512 426.837 354.933 426.549 354.075 426.549C353.269 426.549 352.697 426.837 352.363 427.412C352.028 427.979 351.861 428.605 351.861 429.291ZM335.101 415.595V414.204C335.101 413.175 335.319 412.23 335.757 411.372C336.195 410.514 336.83 409.827 337.662 409.313C338.495 408.789 339.503 408.527 340.687 408.527C341.897 408.527 342.914 408.789 343.738 409.313C344.571 409.827 345.197 410.514 345.617 411.372C346.038 412.23 346.249 413.175 346.249 414.204V415.595C346.249 416.624 346.034 417.569 345.605 418.427C345.184 419.276 344.558 419.959 343.726 420.474C342.893 420.989 341.88 421.246 340.687 421.246C339.477 421.246 338.456 420.989 337.624 420.474C336.8 419.959 336.173 419.272 335.744 418.414C335.315 417.555 335.101 416.616 335.101 415.595ZM338.486 414.204V415.595C338.486 416.281 338.645 416.908 338.962 417.474C339.289 418.032 339.864 418.311 340.687 418.311C341.511 418.311 342.077 418.032 342.387 417.474C342.704 416.908 342.863 416.281 342.863 415.595V414.204C342.863 413.518 342.712 412.891 342.412 412.325C342.112 411.75 341.537 411.462 340.687 411.462C339.872 411.462 339.301 411.75 338.975 412.325C338.649 412.9 338.486 413.527 338.486 414.204ZM336.568 435.625L354.693 409.261H357.911L339.786 435.625H336.568Z" fill="black"/>
<path d="M478.769 267.5V264.823L485.871 257.862C486.55 257.176 487.116 256.567 487.569 256.034C488.021 255.502 488.361 254.986 488.588 254.486C488.814 253.987 488.927 253.454 488.927 252.888C488.927 252.243 488.781 251.689 488.488 251.23C488.194 250.764 487.791 250.404 487.279 250.152C486.766 249.899 486.184 249.772 485.531 249.772C484.859 249.772 484.269 249.912 483.763 250.191C483.258 250.464 482.864 250.854 482.585 251.36C482.312 251.866 482.175 252.469 482.175 253.168H478.649C478.649 251.869 478.946 250.741 479.539 249.782C480.131 248.823 480.947 248.081 481.986 247.555C483.031 247.029 484.229 246.766 485.581 246.766C486.953 246.766 488.158 247.022 489.196 247.535C490.235 248.048 491.041 248.75 491.614 249.643C492.193 250.534 492.483 251.553 492.483 252.698C492.483 253.464 492.336 254.216 492.043 254.956C491.75 255.695 491.234 256.514 490.495 257.413C489.763 258.311 488.734 259.4 487.409 260.679L483.883 264.264V264.404H492.792V267.5H478.769ZM503.149 267.779C501.817 267.779 500.626 267.53 499.573 267.031C498.521 266.524 497.686 265.832 497.066 264.953C496.454 264.074 496.128 263.069 496.088 261.937H499.683C499.75 262.776 500.113 263.462 500.772 263.994C501.431 264.521 502.223 264.783 503.149 264.783C503.874 264.783 504.521 264.617 505.086 264.284C505.653 263.951 506.099 263.488 506.425 262.896C506.751 262.303 506.911 261.628 506.904 260.868C506.911 260.096 506.748 259.41 506.415 258.811C506.082 258.211 505.626 257.742 505.046 257.403C504.468 257.056 503.801 256.883 503.049 256.883C502.436 256.876 501.834 256.99 501.241 257.223C500.649 257.456 500.179 257.762 499.833 258.142L496.487 257.593L497.556 247.046H509.421V250.142H500.622L500.033 255.565H500.153C500.532 255.119 501.068 254.749 501.761 254.456C502.453 254.157 503.212 254.007 504.038 254.007C505.276 254.007 506.381 254.3 507.354 254.886C508.326 255.465 509.091 256.264 509.651 257.283C510.21 258.301 510.49 259.467 510.49 260.778C510.49 262.13 510.177 263.335 509.551 264.394C508.932 265.446 508.069 266.275 506.964 266.881C505.866 267.48 504.594 267.779 503.149 267.779ZM524.572 263.665V262.586C524.572 261.794 524.738 261.064 525.071 260.399C525.411 259.733 525.904 259.197 526.549 258.791C527.196 258.384 527.978 258.182 528.897 258.182C529.842 258.182 530.634 258.384 531.274 258.791C531.913 259.191 532.396 259.723 532.722 260.389C533.055 261.055 533.221 261.787 533.221 262.586V263.665C533.221 264.457 533.055 265.186 532.722 265.852C532.389 266.518 531.899 267.054 531.254 267.46C530.614 267.866 529.829 268.069 528.897 268.069C527.964 268.069 527.176 267.866 526.529 267.46C525.884 267.054 525.394 266.518 525.061 265.852C524.735 265.186 524.572 264.457 524.572 263.665ZM527.179 262.586V263.665C527.179 264.191 527.305 264.674 527.558 265.113C527.811 265.553 528.258 265.772 528.897 265.772C529.543 265.772 529.985 265.556 530.225 265.123C530.471 264.684 530.594 264.198 530.594 263.665V262.586C530.594 262.054 530.478 261.568 530.245 261.128C530.012 260.682 529.563 260.459 528.897 260.459C528.271 260.459 527.828 260.682 527.568 261.128C527.309 261.568 527.179 262.054 527.179 262.586ZM514.175 251.959V250.881C514.175 250.082 514.344 249.349 514.684 248.683C515.024 248.018 515.516 247.485 516.163 247.086C516.808 246.679 517.591 246.476 518.509 246.476C519.448 246.476 520.238 246.679 520.876 247.086C521.523 247.485 522.009 248.018 522.335 248.683C522.661 249.349 522.824 250.082 522.824 250.881V251.959C522.824 252.758 522.658 253.491 522.325 254.157C521.999 254.816 521.513 255.345 520.866 255.744C520.221 256.144 519.435 256.344 518.509 256.344C517.571 256.344 516.778 256.144 516.133 255.744C515.493 255.345 515.007 254.813 514.674 254.147C514.341 253.481 514.175 252.752 514.175 251.959ZM516.802 250.881V251.959C516.802 252.492 516.925 252.978 517.171 253.418C517.424 253.851 517.87 254.067 518.509 254.067C519.149 254.067 519.588 253.851 519.828 253.418C520.074 252.978 520.198 252.492 520.198 251.959V250.881C520.198 250.348 520.081 249.862 519.848 249.423C519.615 248.976 519.169 248.753 518.509 248.753C517.877 248.753 517.434 248.976 517.181 249.423C516.928 249.869 516.802 250.354 516.802 250.881ZM515.314 267.5L529.376 247.046H531.873L517.811 267.5H515.314Z" fill="black"/>
<g filter="url(#filter2_i_3033_2037)">
<path d="M972.5 186.25H740C737.929 186.25 736.25 187.929 736.25 190V251.25C736.25 253.321 737.929 255 740 255H972.5C974.571 255 976.25 253.321 976.25 251.25V190C976.25 187.929 974.571 186.25 972.5 186.25Z" fill="white"/>
<path d="M768.687 232.893H770.1V235.134H768.687V232.893ZM769.4 227.856C771.506 227.856 773.075 228.929 773.075 230.566C773.075 232.223 771.506 233.286 769.4 233.286C767.294 233.286 765.725 232.223 765.725 230.566C765.725 228.929 767.294 227.856 769.4 227.856ZM769.4 228.972C768.05 228.972 767.112 229.567 767.112 230.566C767.112 231.586 768.05 232.17 769.4 232.17C770.75 232.17 771.681 231.586 771.681 230.566C771.681 229.567 770.75 228.972 769.4 228.972ZM764.956 234.911H773.862V236.059H764.956V234.911ZM780.856 227.357H782.269V232.627H780.856V227.357ZM781.875 229.471H783.575V230.619H781.875V229.471ZM774.893 231.267H775.712C777.85 231.267 778.912 231.214 780.087 230.969L780.225 232.085C779.025 232.351 777.9 232.404 775.712 232.404H774.893V231.267ZM774.893 227.941H779.262V229.068H776.293V232.021H774.893V227.941ZM775.837 233.105H777.244V233.998H780.862V233.105H782.269V237.079H775.837V233.105ZM777.244 235.092V235.953H780.862V235.092H777.244ZM784.094 231.703H793.012V232.733H784.094V231.703ZM785.094 233.296H791.95V235.634H786.519V236.473H785.118V234.741H790.556V234.253H785.094V233.296ZM785.118 236.176H792.225V237.132H785.118V236.176ZM785.187 227.516H791.925V229.833H786.606V230.64H785.2V228.94H790.537V228.462H785.187V227.516ZM785.2 230.311H792.106V231.267H785.2V230.311ZM786.287 232.053H787.687V233.902H786.287V232.053ZM789.418 232.053H790.819V233.902H789.418V232.053Z" fill="#FF3263"/>
<path d="M812.65 236.25V235.571L815.2 232.779C815.5 232.452 815.744 232.168 815.937 231.926C816.131 231.682 816.275 231.453 816.369 231.239C816.462 231.023 816.512 230.797 816.512 230.56C816.512 230.289 816.444 230.053 816.312 229.854C816.187 229.656 816.012 229.503 815.787 229.394C815.562 229.286 815.312 229.232 815.031 229.232C814.737 229.232 814.475 229.294 814.256 229.417C814.037 229.538 813.869 229.708 813.744 229.926C813.625 230.145 813.569 230.402 813.569 230.696H812.675C812.675 230.243 812.781 229.846 812.987 229.504C813.2 229.162 813.481 228.895 813.844 228.704C814.206 228.513 814.612 228.417 815.062 228.417C815.512 228.417 815.919 228.513 816.262 228.704C816.612 228.895 816.887 229.153 817.087 229.478C817.287 229.802 817.387 230.163 817.387 230.56C817.387 230.844 817.337 231.123 817.231 231.394C817.131 231.663 816.956 231.964 816.706 232.296C816.456 232.626 816.106 233.028 815.662 233.503L813.931 235.359V235.42H817.525V236.25H812.65ZM821.294 236.356C820.85 236.356 820.456 236.268 820.1 236.091C819.744 235.916 819.462 235.674 819.244 235.367C819.031 235.06 818.912 234.711 818.894 234.318H819.8C819.837 234.668 819.994 234.957 820.275 235.186C820.562 235.413 820.9 235.526 821.294 235.526C821.612 235.526 821.894 235.451 822.137 235.303C822.387 235.154 822.581 234.951 822.725 234.692C822.869 234.43 822.937 234.134 822.937 233.805C822.937 233.468 822.869 233.168 822.719 232.903C822.569 232.637 822.369 232.427 822.112 232.273C821.856 232.12 821.562 232.042 821.237 232.039C821 232.037 820.756 232.073 820.506 232.149C820.256 232.222 820.05 232.316 819.894 232.432L819.019 232.326L819.481 228.523H823.5V229.353H820.269L820 231.632H820.044C820.2 231.506 820.4 231.402 820.637 231.319C820.875 231.236 821.125 231.194 821.387 231.194C821.856 231.194 822.281 231.308 822.65 231.534C823.019 231.758 823.312 232.064 823.525 232.454C823.737 232.844 823.844 233.289 823.844 233.79C823.844 234.283 823.737 234.723 823.512 235.111C823.294 235.496 822.994 235.8 822.606 236.024C822.225 236.245 821.787 236.356 821.294 236.356ZM829.081 234.801V234.394C829.081 234.112 829.144 233.854 829.256 233.62C829.375 233.384 829.544 233.195 829.769 233.054C829.994 232.911 830.269 232.839 830.594 232.839C830.919 232.839 831.194 232.911 831.412 233.054C831.637 233.195 831.806 233.384 831.919 233.62C832.031 233.854 832.087 234.112 832.087 234.394V234.801C832.087 235.083 832.031 235.342 831.912 235.578C831.8 235.813 831.631 236.001 831.406 236.144C831.187 236.285 830.912 236.356 830.594 236.356C830.269 236.356 829.987 236.285 829.769 236.144C829.544 236.001 829.375 235.813 829.256 235.578C829.144 235.342 829.081 235.083 829.081 234.801ZM829.856 234.394V234.801C829.856 235.035 829.906 235.245 830.019 235.431C830.131 235.615 830.319 235.707 830.594 235.707C830.856 235.707 831.044 235.615 831.15 235.431C831.262 235.245 831.319 235.035 831.319 234.801V234.394C831.319 234.16 831.262 233.951 831.156 233.768C831.05 233.581 830.862 233.488 830.594 233.488C830.331 233.488 830.137 233.581 830.025 233.768C829.912 233.951 829.856 234.16 829.856 234.394ZM825.237 230.379V229.972C825.237 229.69 825.294 229.432 825.406 229.198C825.525 228.962 825.7 228.773 825.919 228.632C826.15 228.489 826.425 228.417 826.744 228.417C827.069 228.417 827.344 228.489 827.569 228.632C827.787 228.773 827.956 228.962 828.069 229.198C828.181 229.432 828.237 229.69 828.237 229.972V230.379C828.237 230.661 828.181 230.92 828.062 231.156C827.95 231.39 827.781 231.579 827.556 231.723C827.337 231.863 827.069 231.934 826.744 231.934C826.419 231.934 826.144 231.863 825.919 231.723C825.694 231.579 825.525 231.39 825.406 231.156C825.294 230.92 825.237 230.661 825.237 230.379ZM826.006 229.972V230.379C826.006 230.613 826.062 230.823 826.169 231.009C826.281 231.193 826.475 231.284 826.744 231.284C827.006 231.284 827.194 231.193 827.3 231.009C827.412 230.823 827.469 230.613 827.469 230.379V229.972C827.469 229.738 827.419 229.529 827.312 229.345C827.206 229.159 827.019 229.066 826.744 229.066C826.481 229.066 826.287 229.159 826.175 229.345C826.062 229.529 826.006 229.738 826.006 229.972ZM825.519 236.25L830.831 228.523H831.694L826.381 236.25H825.519Z" fill="black"/>
<path d="M770.3 206.612H772.175V207.759H770.3V206.612ZM771.788 204.232H773.2V210.076H771.788V204.232ZM769.869 210.288C771.95 210.288 773.238 211 773.238 212.19C773.238 213.391 771.95 214.081 769.869 214.081C767.781 214.081 766.5 213.391 766.5 212.19C766.5 211 767.781 210.288 769.869 210.288ZM769.869 211.361C768.594 211.361 767.913 211.627 767.913 212.19C767.913 212.743 768.594 213.008 769.869 213.008C771.15 213.008 771.831 212.743 771.831 212.19C771.831 211.627 771.15 211.361 769.869 211.361ZM767.244 205.22H768.388V205.836C768.388 207.717 767.519 209.438 765.638 210.076L764.913 208.96C766.544 208.408 767.244 207.101 767.244 205.836V205.22ZM767.538 205.22H768.675V205.836C768.675 206.994 769.344 208.195 770.9 208.716L770.206 209.831C768.381 209.226 767.538 207.589 767.538 205.836V205.22ZM765.3 204.827H770.588V205.953H765.3V204.827ZM780.875 204.232H782.288V209.502H780.875V204.232ZM781.894 206.346H783.594V207.494H781.894V206.346ZM774.913 208.142H775.731C777.869 208.142 778.931 208.089 780.113 207.844L780.25 208.96C779.05 209.226 777.919 209.279 775.731 209.279H774.913V208.142ZM774.913 204.816H779.281V205.943H776.319V208.896H774.913V204.816ZM775.863 209.98H777.263V210.873H780.888V209.98H782.288V213.954H775.863V209.98ZM777.263 211.967V212.828H780.888V211.967H777.263ZM784.119 208.578H793.031V209.608H784.119V208.578ZM785.119 210.171H791.969V212.509H786.538V213.348H785.138V211.616H790.575V211.128H785.119V210.171ZM785.138 213.051H792.244V214.007H785.138V213.051ZM785.213 204.391H791.95V206.708H786.625V207.515H785.225V205.815H790.556V205.337H785.213V204.391ZM785.225 207.186H792.131V208.142H785.225V207.186ZM786.306 208.928H787.706V210.777H786.306V208.928ZM789.438 208.928H790.844V210.777H789.438V208.928Z" fill="#5BFF57"/>
<path d="M812.913 213.125L816.369 206.288V206.228H812.381V205.398H817.331V206.273L813.888 213.125H812.913ZM820.85 213.231C820.406 213.231 820.006 213.143 819.65 212.966C819.3 212.791 819.013 212.549 818.8 212.242C818.588 211.935 818.469 211.586 818.45 211.193H819.356C819.388 211.543 819.55 211.832 819.831 212.061C820.113 212.288 820.456 212.401 820.85 212.401C821.169 212.401 821.45 212.326 821.694 212.178C821.944 212.029 822.138 211.826 822.281 211.567C822.425 211.305 822.494 211.009 822.494 210.68C822.494 210.343 822.419 210.043 822.269 209.778C822.125 209.512 821.925 209.302 821.669 209.148C821.413 208.995 821.119 208.917 820.788 208.914C820.55 208.912 820.313 208.948 820.063 209.024C819.813 209.097 819.606 209.191 819.444 209.307L818.569 209.201L819.038 205.398H823.05V206.228H819.825L819.55 208.507H819.594C819.756 208.381 819.956 208.277 820.194 208.194C820.431 208.111 820.681 208.069 820.938 208.069C821.413 208.069 821.831 208.183 822.206 208.409C822.575 208.633 822.869 208.939 823.081 209.329C823.294 209.719 823.4 210.164 823.4 210.665C823.4 211.158 823.288 211.598 823.069 211.986C822.85 212.371 822.55 212.675 822.163 212.899C821.775 213.12 821.338 213.231 820.85 213.231ZM828.638 211.676V211.269C828.638 210.987 828.694 210.729 828.813 210.495C828.931 210.259 829.1 210.07 829.325 209.929C829.55 209.786 829.825 209.714 830.144 209.714C830.475 209.714 830.75 209.786 830.969 209.929C831.194 210.07 831.356 210.259 831.469 210.495C831.581 210.729 831.644 210.987 831.644 211.269V211.676C831.644 211.958 831.581 212.217 831.469 212.453C831.356 212.688 831.188 212.876 830.963 213.019C830.738 213.16 830.469 213.231 830.144 213.231C829.819 213.231 829.544 213.16 829.319 213.019C829.094 212.876 828.925 212.688 828.813 212.453C828.694 212.217 828.638 211.958 828.638 211.676ZM829.406 211.269V211.676C829.406 211.91 829.463 212.12 829.575 212.306C829.681 212.49 829.875 212.582 830.144 212.582C830.413 212.582 830.6 212.49 830.706 212.306C830.819 212.12 830.869 211.91 830.869 211.676V211.269C830.869 211.035 830.819 210.826 830.713 210.643C830.606 210.456 830.419 210.363 830.144 210.363C829.881 210.363 829.694 210.456 829.575 210.643C829.463 210.826 829.406 211.035 829.406 211.269ZM824.788 207.254V206.847C824.788 206.565 824.844 206.307 824.963 206.073C825.081 205.837 825.25 205.648 825.475 205.507C825.7 205.364 825.975 205.292 826.3 205.292C826.625 205.292 826.9 205.364 827.119 205.507C827.344 205.648 827.513 205.837 827.625 206.073C827.738 206.307 827.794 206.565 827.794 206.847V207.254C827.794 207.536 827.738 207.795 827.619 208.031C827.506 208.265 827.338 208.454 827.113 208.598C826.894 208.738 826.619 208.809 826.3 208.809C825.969 208.809 825.694 208.738 825.475 208.598C825.25 208.454 825.081 208.265 824.963 208.031C824.844 207.795 824.788 207.536 824.788 207.254ZM825.556 206.847V207.254C825.556 207.488 825.613 207.698 825.725 207.884C825.838 208.068 826.025 208.159 826.3 208.159C826.563 208.159 826.75 208.068 826.856 207.884C826.969 207.698 827.025 207.488 827.025 207.254V206.847C827.025 206.613 826.969 206.404 826.863 206.22C826.756 206.034 826.569 205.941 826.3 205.941C826.031 205.941 825.844 206.034 825.731 206.22C825.613 206.404 825.556 206.613 825.556 206.847ZM825.075 213.125L830.388 205.398H831.25L825.938 213.125H825.075Z" fill="black"/>
</g>
<path d="M949.375 348.125H742.5C739.048 348.125 736.25 350.923 736.25 354.375V391.875C736.25 395.327 739.048 398.125 742.5 398.125H949.375C952.827 398.125 955.625 395.327 955.625 391.875V354.375C955.625 350.923 952.827 348.125 949.375 348.125Z" fill="white"/>
<path d="M778.012 370.094H788.094V371.5H778.012V370.094ZM778.012 365.969H787.981V367.375H780.075V370.766H778.012V365.969ZM779.5 368.047H787.656V369.391H779.5V368.047ZM776.438 372.141H789.469V373.672H776.438V372.141ZM777.906 374.344H787.906V377.859H779.969V379.313H777.919V376.484H785.856V375.797H777.906V374.344ZM777.919 378.594H788.281V380.047H777.919V378.594ZM800.512 365.687H802.606V376.344H800.512V365.687ZM792.919 378.234H802.95V379.891H792.919V378.234ZM792.919 375.453H795V379.078H792.919V375.453ZM791.325 372.844H792.594C795.606 372.844 797.375 372.766 799.344 372.391L799.563 374.047C797.531 374.437 795.687 374.516 792.594 374.516H791.325V372.844ZM791.312 366.625H797.969V371.25H793.375V373.312H791.325V369.719H795.919V368.281H791.312V366.625ZM808.425 372.813H821.519V374.469H808.425V372.813ZM814.1 373.859H816.194V376.906H814.1V373.859ZM810.038 366.281H819.862V371.656H810.038V366.281ZM817.819 367.906H812.069V370.031H817.819V367.906ZM809.944 378.234H820.081V379.891H809.944V378.234ZM809.944 375.687H812.006V378.781H809.944V375.687ZM833.056 365.672H835.025V380.141H833.056V365.672ZM828.287 370.609H830.681V372.297H828.287V370.609ZM830.131 365.906H832.069V379.484H830.131V365.906ZM825.162 368.031H826.725V369.516C826.725 372.766 825.837 376 823.537 377.438L822.306 375.906C824.431 374.578 825.162 371.984 825.162 369.516V368.031ZM825.631 368.031H827.181V369.516C827.181 371.922 827.9 374.359 829.994 375.578L828.775 377.094C826.475 375.734 825.631 372.703 825.631 369.516V368.031ZM822.85 367.125H829.306V368.797H822.85V367.125ZM849.7 365.656H851.794V380.172H849.7V365.656ZM851.325 371.016H853.887V372.719H851.325V371.016ZM841.012 374.969H842.231C844.669 374.969 846.594 374.891 848.719 374.516L848.919 376.234C846.731 376.625 844.75 376.688 842.231 376.688H841.012V374.969ZM841.012 367H847.763V368.672H843.075V375.797H841.012V367ZM858.156 366.781H859.844V368.891C859.844 372.609 858.562 375.969 855.687 377.297L854.45 375.578C856.969 374.484 858.156 371.703 858.156 368.891V366.781ZM858.562 366.781H860.25V368.891C860.25 371.562 861.388 374.219 863.856 375.281L862.637 376.953C859.844 375.672 858.562 372.453 858.562 368.891V366.781ZM864.544 365.656H866.637V380.172H864.544V365.656ZM868.812 376.781H881.906V378.469H868.812V376.781ZM874.3 373.688H876.375V377.188H874.3V373.688ZM870.188 366.594H872.25V368.812H878.425V366.594H880.487V374.125H870.188V366.594ZM872.25 370.438V372.469H878.425V370.438H872.25ZM892.944 365.672H895.038V380.141H892.944V365.672ZM888.675 367.172H890.738C890.738 371.594 889.238 375.219 884.1 377.703L883.019 376.047C887.175 374.047 888.675 371.422 888.675 367.547V367.172ZM883.788 367.172H889.662V368.812H883.788V367.172Z" fill="#50555C"/>
<path d="M916.981 369.094L916.381 368.487C915.244 367.337 913.744 366.633 912.137 366.499C910.537 366.364 908.944 366.809 907.637 367.754C906.325 368.699 905.394 370.083 905 371.658C904.606 373.234 904.775 374.901 905.481 376.361C906.187 377.821 907.387 378.98 908.856 379.632C910.331 380.284 911.981 380.387 913.525 379.922C915.062 379.456 916.387 378.454 917.269 377.092C918.144 375.731 918.512 374.098 918.312 372.485M916.981 369.094L913.381 369.094M916.981 369.094V365.452" stroke="#50555C" stroke-width="4" stroke-linecap="round" stroke-linejoin="round"/>
<path d="M739.112 302.738H751.206V304.425H739.112V302.738ZM739.112 297.788H751.075V299.475H741.587V303.544H739.112V297.788ZM740.894 300.281H750.681V301.894H740.894V300.281ZM737.219 305.194H752.856V307.031H737.219V305.194ZM738.981 307.838H750.981V312.056H741.456V313.8H739V310.406H748.525V309.581H738.981V307.838ZM739 312.938H751.431V314.681H739V312.938ZM766.156 297.45H768.669V310.238H766.156V297.45ZM757.044 312.506H769.081V314.494H757.044V312.506ZM757.044 309.169H759.537V313.519H757.044V309.169ZM755.131 306.038H756.65C760.269 306.038 762.387 305.944 764.75 305.494L765.012 307.481C762.575 307.95 760.362 308.044 756.65 308.044H755.131V306.038ZM755.113 298.575H763.1V304.125H757.587V306.6H755.131V302.288H760.644V300.563H755.113V298.575ZM775.731 306H791.444V307.988H775.731V306ZM782.538 307.256H785.05V310.913H782.538V307.256ZM777.662 298.163H789.456V304.613H777.662V298.163ZM787 300.113H780.1V302.663H787V300.113ZM777.55 312.506H789.719V314.494H777.55V312.506ZM777.55 309.45H780.025V313.163H777.55V309.45ZM805.325 297.431H807.688V314.794H805.325V297.431ZM799.606 303.356H802.475V305.381H799.606V303.356ZM801.819 297.713H804.144V314.006H801.819V297.713ZM795.856 300.263H797.731V302.044C797.731 305.944 796.662 309.825 793.906 311.55L792.425 309.713C794.975 308.119 795.856 305.006 795.856 302.044V300.263ZM796.419 300.263H798.275V302.044C798.275 304.931 799.137 307.856 801.65 309.319L800.188 311.138C797.431 309.506 796.419 305.869 796.419 302.044V300.263ZM793.081 299.175H800.825V301.181H793.081V299.175ZM809.825 305.213H825.556V307.031H809.825V305.213ZM811.588 307.894H823.681V312.019H814.1V313.5H811.625V310.444H821.225V309.581H811.588V307.894ZM811.625 312.975H824.169V314.663H811.625V312.975ZM811.756 297.731H823.644V301.819H814.25V303.244H811.775V300.263H821.187V299.4H811.756V297.731ZM811.775 302.719H823.962V304.406H811.775V302.719ZM842.425 297.413H844.937V314.831H842.425V297.413ZM844.375 303.844H847.45V305.888H844.375V303.844ZM832 308.588H833.463C836.388 308.588 838.694 308.494 841.244 308.044L841.487 310.106C838.862 310.575 836.481 310.65 833.463 310.65H832V308.588ZM832 299.025H840.1V301.031H834.475V309.581H832V299.025ZM852.613 298.763H854.638V301.294C854.638 305.756 853.1 309.788 849.65 311.381L848.169 309.319C851.187 308.006 852.613 304.669 852.613 301.294V298.763ZM853.1 298.763H855.125V301.294C855.125 304.5 856.494 307.688 859.456 308.963L857.994 310.969C854.638 309.431 853.1 305.569 853.1 301.294V298.763ZM860.281 297.413H862.794V314.831H860.281V297.413ZM876.944 304.013H879.7V306.019H876.944V304.013ZM872.913 302.25H874.788V302.7C874.788 306.319 873.738 309.938 870.963 311.531L869.556 309.656C872.031 308.213 872.913 305.363 872.913 302.7V302.25ZM873.4 302.25H875.275V302.7C875.275 305.325 876.175 307.969 878.631 309.281L877.281 311.119C874.469 309.656 873.4 306.263 873.4 302.7V302.25ZM870.212 300.338H877.956V302.344H870.212V300.338ZM872.913 298.013H875.275V301.969H872.913V298.013ZM882.419 297.431H884.781V314.794H882.419V297.431ZM878.912 297.713H881.237V314.006H878.912V297.713ZM888.706 298.95H899.638V300.938H888.706V298.95ZM886.944 310.706H902.637V312.75H886.944V310.706ZM898.587 298.95H901.044V300.956C901.044 303.488 901.044 305.888 900.237 309.675L897.781 309.45C898.587 305.944 898.587 303.413 898.587 300.956V298.95ZM899.112 303.713V305.55L888.5 306.075L888.2 304.069L899.112 303.713ZM908.406 300.038H916.712V302.025H908.406V300.038ZM912.587 302.794C914.8 302.794 916.394 304.5 916.394 306.938C916.394 309.356 914.8 311.063 912.587 311.063C910.394 311.063 908.781 309.356 908.781 306.938C908.781 304.5 910.394 302.794 912.587 302.794ZM912.587 304.875C911.65 304.875 910.994 305.625 910.994 306.938C910.994 308.25 911.65 308.981 912.587 308.981C913.525 308.981 914.2 308.25 914.2 306.938C914.2 305.625 913.525 304.875 912.587 304.875ZM920.969 297.431H923.35V314.794H920.969V297.431ZM918.887 304.481H921.756V306.488H918.887V304.481ZM917.331 297.75H919.656V314.063H917.331V297.75ZM911.369 297.9H913.825V301.294H911.369V297.9ZM925.488 310.763H941.2V312.788H925.488V310.763ZM932.069 307.05H934.563V311.25H932.069V307.05ZM927.138 298.538H929.612V301.2H937.019V298.538H939.494V307.575H927.138V298.538ZM929.612 303.15V305.588H937.019V303.15H929.612ZM949.362 303.263H952.231V305.288H949.362V303.263ZM945.65 298.931H947.562V301.856C947.562 305.794 946.475 309.638 943.7 311.344L942.2 309.469C944.75 307.894 945.65 304.8 945.65 301.856V298.931ZM946.194 298.931H948.069V301.744C948.069 304.575 948.8 307.463 951.162 309L949.812 310.95C947.056 309.244 946.194 305.494 946.194 301.744V298.931ZM955.062 297.431H957.444V314.794H955.062V297.431ZM951.537 297.694H953.863V314.006H951.537V297.694ZM963.037 306.244H965.512V311.119H963.037V306.244ZM969.337 306.244H971.831V311.119H969.337V306.244ZM959.587 310.763H975.3V312.788H959.587V310.763ZM967.425 298.275C971.156 298.275 973.912 300.113 973.912 302.944C973.912 305.775 971.156 307.594 967.425 307.594C963.675 307.594 960.937 305.775 960.937 302.944C960.937 300.113 963.675 298.275 967.425 298.275ZM967.425 300.225C965.006 300.225 963.394 301.219 963.394 302.944C963.394 304.65 965.006 305.663 967.425 305.663C969.844 305.663 971.456 304.65 971.456 302.944C971.456 301.219 969.844 300.225 967.425 300.225Z" fill="black"/>
<path d="M745.65 438.4H755.9V439.238H745.65V438.4ZM746.6 434.488H749.6V435.325H746.6V434.488ZM749.25 434.488H750.262V434.813C750.262 435.438 750.262 436.825 749.737 438.713L748.725 438.588C749.25 436.713 749.25 435.463 749.25 434.813V434.488ZM751.025 434.488H754.075V435.325H751.025V434.488ZM753.612 434.488H754.625V434.975C754.625 435.713 754.625 437 754.175 438.763L753.162 438.613C753.612 436.888 753.612 435.7 753.612 434.975V434.488ZM746.937 440.425H754.65V441.225H747.975V444.613H746.937V440.425ZM746.937 444.4H754.725V445.2H746.937V444.4ZM747.537 442.4H754.362V443.175H747.537V442.4ZM765.537 434.05H766.537V445.35H765.537V434.05ZM763.637 438.65H765.812V439.5H763.637V438.65ZM762.975 434.3H763.95V444.775H762.975V434.3ZM757.5 435.413H758.537V441.938H757.5V435.413ZM757.5 441.525H758.225C759.387 441.525 760.687 441.45 762.162 441.163L762.275 442.063C760.737 442.363 759.437 442.425 758.225 442.425H757.5V441.525ZM771.237 435.025H772.087V437.05C772.087 439.65 770.687 442.063 768.837 443L768.2 442.15C769.875 441.35 771.237 439.188 771.237 437.05V435.025ZM771.412 435.025H772.262V437.05C772.262 439.113 773.612 441.188 775.287 441.963L774.662 442.788C772.825 441.888 771.412 439.563 771.412 437.05V435.025ZM776.462 434.038H777.5V445.363H776.462V434.038ZM787.812 434.038H788.85V445.363H787.812V434.038ZM785.587 436.625H788.087V437.475H785.587V436.625ZM779.975 441.863H780.812C782.562 441.863 784 441.813 785.725 441.538L785.825 442.4C784.05 442.675 782.6 442.738 780.812 442.738H779.975V441.863ZM779.95 435.063H784.887V439.113H781V442.063H779.975V438.263H783.862V435.925H779.95V435.063ZM785.512 439.713H788.012V440.563H785.512V439.713ZM796.275 436.038H799.437V436.888H796.275V436.038ZM796.275 438.45H799.462V439.313H796.275V438.45ZM791.375 435.025H796.537V440.325H791.375V435.025ZM795.512 435.863H792.387V439.488H795.512V435.863ZM799.112 434.063H800.15V442.313H799.112V434.063ZM792.887 444.25H800.425V445.1H792.887V444.25ZM792.887 441.563H793.925V444.638H792.887V441.563ZM805.475 443.1H815.712V443.963H805.475V443.1ZM810.05 440.675H811.087V443.463H810.05V440.675ZM806.712 434.888H814.45V438.313H807.775V440.575H806.75V437.475H813.425V435.725H806.712V434.888ZM806.75 440.138H814.712V440.988H806.75V440.138ZM817.875 435.25H825.15V436.088H817.875V435.25ZM816.775 442.838H826.987V443.7H816.775V442.838ZM824.6 435.25H825.612V436.375C825.612 437.825 825.612 439.438 825.187 441.875L824.15 441.775C824.6 439.463 824.6 437.775 824.6 436.375V435.25ZM831.075 434.913C832.737 434.913 833.912 436.45 833.912 438.85C833.912 441.263 832.737 442.8 831.075 442.8C829.412 442.8 828.237 441.263 828.237 438.85C828.237 436.45 829.412 434.913 831.075 434.913ZM831.075 435.85C829.975 435.85 829.225 437.025 829.225 438.85C829.225 440.688 829.975 441.888 831.075 441.888C832.162 441.888 832.925 440.688 832.925 438.85C832.925 437.025 832.162 435.85 831.075 435.85ZM835.712 434.05H836.762V445.35H835.712V434.05ZM836.512 438.563H838.612V439.438H836.512V438.563ZM839.362 439.213H849.612V440.063H839.362V439.213ZM843.95 439.575H844.962V441.3H843.95V439.575ZM843.925 441.825H844.812V442.175C844.812 443.9 842.812 445.038 840.45 445.313L840.112 444.513C842.15 444.3 843.925 443.375 843.925 442.175V441.825ZM844.1 441.825H844.987V442.175C844.987 443.413 846.75 444.313 848.8 444.513L848.462 445.313C846.112 445.038 844.1 443.938 844.1 442.175V441.825ZM844.475 434.213C846.925 434.213 848.45 434.975 848.45 436.288C848.45 437.6 846.925 438.363 844.475 438.363C842.012 438.363 840.5 437.6 840.5 436.288C840.5 434.975 842.012 434.213 844.475 434.213ZM844.475 435.013C842.662 435.013 841.562 435.475 841.562 436.288C841.562 437.088 842.662 437.563 844.475 437.563C846.275 437.563 847.387 437.088 847.387 436.288C847.387 435.475 846.275 435.013 844.475 435.013ZM861.637 434.05H862.675V445.35H861.637V434.05ZM862.425 438.688H864.525V439.563H862.425V438.688ZM853.925 435.85H860.587V436.7H853.925V435.85ZM857.3 437.638C858.9 437.638 860.05 438.713 860.05 440.238C860.05 441.763 858.9 442.838 857.3 442.838C855.712 442.838 854.55 441.763 854.55 440.238C854.55 438.713 855.712 437.638 857.3 437.638ZM857.3 438.5C856.275 438.5 855.537 439.213 855.537 440.238C855.537 441.25 856.275 441.975 857.3 441.975C858.325 441.975 859.062 441.25 859.062 440.238C859.062 439.213 858.325 438.5 857.3 438.5ZM856.762 434.188H857.8V436.238H856.762V434.188ZM869.737 438.088H871.9V438.95H869.737V438.088ZM867.625 435.113H868.437V437.263C868.437 439.625 867.45 441.913 865.8 442.925L865.15 442.138C866.7 441.225 867.625 439.2 867.625 437.263V435.113ZM867.825 435.113H868.625V437.225C868.625 439.038 869.475 440.963 870.962 441.863L870.362 442.675C868.737 441.675 867.825 439.425 867.825 437.225V435.113ZM873.887 434.05H874.887V445.35H873.887V434.05ZM871.6 434.288H872.575V444.788H871.6V434.288ZM879.087 439.863H880.112V443.25H879.087V439.863ZM883.262 439.863H884.3V443.25H883.262V439.863ZM876.587 443.05H886.825V443.913H876.587V443.05ZM881.687 434.763C884.075 434.763 885.787 435.9 885.787 437.675C885.787 439.438 884.075 440.575 881.687 440.575C879.287 440.575 877.575 439.438 877.575 437.675C877.575 435.9 879.287 434.763 881.687 434.763ZM881.687 435.588C879.875 435.588 878.575 436.413 878.575 437.675C878.575 438.925 879.875 439.75 881.687 439.75C883.5 439.75 884.787 438.925 884.787 437.675C884.787 436.413 883.5 435.588 881.687 435.588Z" fill="#999999"/>
<path d="M901.987 443.1H912.225V443.963H901.987V443.1ZM906.562 440.675H907.6V443.463H906.562V440.675ZM903.225 434.888H910.962V438.313H904.287V440.575H903.262V437.475H909.937V435.725H903.225V434.888ZM903.262 440.138H911.225V440.988H903.262V440.138ZM914.387 435.25H921.662V436.088H914.387V435.25ZM913.287 442.838H923.5V443.7H913.287V442.838ZM921.112 435.25H922.125V436.375C922.125 437.825 922.125 439.438 921.7 441.875L920.662 441.775C921.112 439.463 921.112 437.775 921.112 436.375V435.25ZM927.587 434.913C929.25 434.913 930.425 436.45 930.425 438.85C930.425 441.263 929.25 442.8 927.587 442.8C925.925 442.8 924.75 441.263 924.75 438.85C924.75 436.45 925.925 434.913 927.587 434.913ZM927.587 435.85C926.487 435.85 925.737 437.025 925.737 438.85C925.737 440.688 926.487 441.888 927.587 441.888C928.675 441.888 929.437 440.688 929.437 438.85C929.437 437.025 928.675 435.85 927.587 435.85ZM932.225 434.05H933.275V445.35H932.225V434.05ZM933.025 438.563H935.125V439.438H933.025V438.563ZM935.875 439.213H946.125V440.063H935.875V439.213ZM940.462 439.575H941.475V441.3H940.462V439.575ZM940.437 441.825H941.325V442.175C941.325 443.9 939.325 445.038 936.962 445.313L936.625 444.513C938.662 444.3 940.437 443.375 940.437 442.175V441.825ZM940.612 441.825H941.5V442.175C941.5 443.413 943.262 444.313 945.312 444.513L944.975 445.313C942.625 445.038 940.612 443.938 940.612 442.175V441.825ZM940.987 434.213C943.437 434.213 944.962 434.975 944.962 436.288C944.962 437.6 943.437 438.363 940.987 438.363C938.525 438.363 937.012 437.6 937.012 436.288C937.012 434.975 938.525 434.213 940.987 434.213ZM940.987 435.013C939.175 435.013 938.075 435.475 938.075 436.288C938.075 437.088 939.175 437.563 940.987 437.563C942.787 437.563 943.9 437.088 943.9 436.288C943.9 435.475 942.787 435.013 940.987 435.013Z" fill="black"/>
<path d="M745.369 458.975H750.487V459.4H745.369V458.975ZM747.706 459.237H748.225V460.537H747.706V459.237ZM746.025 456.35H749.825V458.337H746.025V456.35ZM749.312 456.769H746.531V457.919H749.312V456.769ZM746.019 461.187H749.919V461.612H746.019V461.187ZM746.019 459.994H746.531V461.337H746.019V459.994ZM755.219 456.087H755.719V461.737H755.219V456.087ZM753.162 458.112H754.244V458.544H753.162V458.112ZM754.087 456.219H754.575V461.45H754.087V456.219ZM752.075 456.962H752.475V457.681C752.475 458.919 752 460.087 751.169 460.612L750.85 460.225C751.637 459.75 752.075 458.719 752.075 457.681V456.962ZM752.181 456.962H752.581V457.681C752.581 458.662 753.006 459.644 753.781 460.094L753.462 460.475C752.637 459.975 752.181 458.862 752.181 457.681V456.962ZM751.006 456.744H753.587V457.175H751.006V456.744ZM760.319 459.281H760.837V460.687H760.319V459.281ZM760.581 456.456C761.775 456.456 762.631 457.037 762.631 457.937C762.631 458.837 761.775 459.419 760.581 459.419C759.387 459.419 758.525 458.837 758.525 457.937C758.525 457.037 759.387 456.456 760.581 456.456ZM760.581 456.869C759.681 456.869 759.025 457.294 759.025 457.937C759.025 458.581 759.681 459.006 760.581 459.006C761.475 459.006 762.131 458.581 762.131 457.937C762.131 457.294 761.475 456.869 760.581 456.869ZM758.031 460.587H763.15V461.019H758.031V460.587ZM763.575 459.45H768.7V459.875H763.575V459.45ZM764.9 459.681H765.425V461.737H764.9V459.681ZM766.844 459.681H767.362V461.737H766.844V459.681ZM764.187 456.306H768.075V457.762H764.725V458.731H764.2V457.362H767.556V456.725H764.187V456.306ZM764.2 458.456H768.206V458.875H764.2V458.456ZM774.794 456.094H775.319V460.231H774.794V456.094ZM771.687 461.187H775.487V461.612H771.687V461.187ZM771.687 459.85H772.2V461.387H771.687V459.85ZM772.156 456.4H772.587V456.975C772.587 458.075 771.962 459.037 771.012 459.425L770.744 459.006C771.594 458.675 772.156 457.85 772.156 456.975V456.4ZM772.25 456.4H772.675V456.975C772.675 457.825 773.244 458.594 774.087 458.9L773.812 459.319C772.875 458.956 772.25 458.05 772.25 456.975V456.4ZM776.775 456.65H780.412V457.081H776.775V456.65ZM776.237 460.519H781.344V460.95H776.237V460.519ZM778.219 458.5H778.737V460.731H778.219V458.5ZM780.219 456.65H780.731V457.212C780.731 457.912 780.731 458.687 780.525 459.831L780.006 459.762C780.219 458.681 780.219 457.887 780.219 457.212V456.65ZM784.987 461.312C784.65 461.312 784.369 461.221 784.131 461.039C783.894 460.856 783.719 460.59 783.594 460.242C783.469 459.893 783.406 459.471 783.406 458.977C783.406 458.486 783.469 458.066 783.594 457.719C783.719 457.369 783.9 457.103 784.131 456.92C784.369 456.735 784.656 456.642 784.987 456.642C785.319 456.642 785.6 456.735 785.837 456.92C786.075 457.103 786.256 457.369 786.375 457.719C786.506 458.066 786.569 458.486 786.569 458.977C786.569 459.471 786.506 459.893 786.381 460.242C786.256 460.59 786.075 460.856 785.844 461.039C785.606 461.221 785.319 461.312 784.987 461.312ZM784.987 460.824C785.319 460.824 785.575 460.664 785.756 460.344C785.944 460.025 786.031 459.569 786.031 458.977C786.031 458.584 785.994 458.249 785.906 457.972C785.825 457.695 785.706 457.484 785.55 457.339C785.394 457.194 785.206 457.122 784.987 457.122C784.656 457.122 784.4 457.284 784.219 457.608C784.031 457.931 783.937 458.387 783.937 458.977C783.937 459.371 783.981 459.705 784.062 459.981C784.144 460.256 784.262 460.465 784.419 460.609C784.575 460.752 784.769 460.824 784.987 460.824ZM788.806 456.704V461.25H788.256V457.282H788.231L787.119 458.019V457.459L788.256 456.704H788.806ZM791.4 461.312C791.062 461.312 790.781 461.221 790.544 461.039C790.306 460.856 790.131 460.59 790.006 460.242C789.881 459.893 789.819 459.471 789.819 458.977C789.819 458.486 789.881 458.066 790.006 457.719C790.131 457.369 790.312 457.103 790.544 456.92C790.781 456.735 791.069 456.642 791.4 456.642C791.731 456.642 792.012 456.735 792.25 456.92C792.487 457.103 792.662 457.369 792.787 457.719C792.912 458.066 792.975 458.486 792.975 458.977C792.975 459.471 792.919 459.893 792.794 460.242C792.669 460.59 792.487 460.856 792.25 461.039C792.019 461.221 791.731 461.312 791.4 461.312ZM791.4 460.824C791.731 460.824 791.987 460.664 792.169 460.344C792.356 460.025 792.444 459.569 792.444 458.977C792.444 458.584 792.406 458.249 792.319 457.972C792.237 457.695 792.119 457.484 791.956 457.339C791.806 457.194 791.619 457.122 791.4 457.122C791.069 457.122 790.812 457.284 790.625 457.608C790.444 457.931 790.35 458.387 790.35 458.977C790.35 459.371 790.394 459.705 790.475 459.981C790.556 460.256 790.675 460.465 790.831 460.609C790.987 460.752 791.175 460.824 791.4 460.824ZM795.581 458.733V459.221H793.594V458.733H795.581ZM797.894 456.704V461.25H797.344V457.282H797.319L796.206 458.019V457.459L797.344 456.704H797.894ZM799 461.25V460.851L800.5 459.208C800.675 459.016 800.825 458.849 800.937 458.706C801.05 458.563 801.137 458.428 801.187 458.302C801.244 458.175 801.275 458.042 801.275 457.903C801.275 457.743 801.237 457.605 801.156 457.488C801.081 457.371 800.981 457.281 800.85 457.217C800.719 457.154 800.569 457.122 800.406 457.122C800.231 457.122 800.075 457.158 799.95 457.231C799.819 457.302 799.719 457.401 799.65 457.53C799.575 457.659 799.544 457.81 799.544 457.983H799.019C799.019 457.717 799.081 457.483 799.206 457.282C799.325 457.081 799.494 456.924 799.706 456.811C799.919 456.699 800.156 456.642 800.425 456.642C800.687 456.642 800.925 456.699 801.131 456.811C801.337 456.924 801.5 457.075 801.612 457.266C801.731 457.457 801.787 457.669 801.787 457.903C801.787 458.07 801.756 458.234 801.7 458.394C801.637 458.552 801.537 458.729 801.387 458.924C801.244 459.118 801.037 459.354 800.775 459.634L799.756 460.726V460.762H801.869V461.25H799ZM804.119 461.312C803.831 461.312 803.569 461.262 803.337 461.161C803.112 461.061 802.931 460.921 802.794 460.742C802.662 460.561 802.587 460.352 802.575 460.114H803.137C803.15 460.26 803.2 460.387 803.287 460.493C803.375 460.598 803.494 460.679 803.637 460.737C803.781 460.795 803.937 460.824 804.112 460.824C804.306 460.824 804.481 460.79 804.631 460.722C804.781 460.654 804.9 460.559 804.987 460.437C805.075 460.316 805.119 460.176 805.119 460.016C805.119 459.849 805.075 459.701 804.994 459.574C804.906 459.446 804.787 459.345 804.625 459.272C804.469 459.2 804.275 459.164 804.044 459.164H803.675V458.676H804.044C804.225 458.676 804.381 458.643 804.519 458.577C804.656 458.512 804.762 458.421 804.837 458.302C804.919 458.184 804.956 458.045 804.956 457.885C804.956 457.731 804.925 457.597 804.856 457.484C804.787 457.369 804.687 457.281 804.562 457.217C804.444 457.154 804.3 457.122 804.131 457.122C803.975 457.122 803.825 457.151 803.687 457.208C803.55 457.264 803.437 457.347 803.35 457.455C803.262 457.561 803.212 457.69 803.206 457.841H802.675C802.681 457.602 802.756 457.394 802.887 457.215C803.025 457.034 803.2 456.894 803.419 456.793C803.637 456.692 803.875 456.642 804.137 456.642C804.419 456.642 804.662 456.699 804.862 456.813C805.062 456.926 805.219 457.074 805.325 457.259C805.437 457.444 805.487 457.644 805.487 457.859C805.487 458.114 805.419 458.333 805.287 458.513C805.156 458.694 804.975 458.819 804.744 458.889V458.924C805.031 458.971 805.256 459.093 805.412 459.29C805.575 459.486 805.656 459.727 805.656 460.016C805.656 460.263 805.587 460.485 805.456 460.682C805.325 460.877 805.137 461.031 804.912 461.144C804.681 461.256 804.419 461.312 804.119 461.312ZM806.256 460.318V459.865L808.256 456.704H808.587V457.406H808.362L806.856 459.794V459.829H809.544V460.318H806.256ZM808.4 461.25V460.18V459.969V456.704H808.925V461.25H808.4ZM812.137 458.733V459.221H810.15V458.733H812.137ZM814.269 461.312C814.012 461.312 813.775 461.261 813.569 461.157C813.356 461.053 813.194 460.911 813.062 460.731C812.937 460.55 812.869 460.344 812.856 460.114H813.394C813.412 460.319 813.506 460.489 813.669 460.624C813.837 460.757 814.037 460.824 814.269 460.824C814.456 460.824 814.625 460.78 814.769 460.693C814.912 460.606 815.031 460.486 815.112 460.333C815.194 460.179 815.237 460.006 815.237 459.812C815.237 459.614 815.194 459.437 815.106 459.281C815.019 459.124 814.9 459.001 814.75 458.911C814.6 458.821 814.431 458.774 814.237 458.773C814.094 458.772 813.95 458.793 813.806 458.837C813.662 458.881 813.537 458.936 813.444 459.004L812.931 458.942L813.206 456.704H815.569V457.193H813.669L813.506 458.533H813.531C813.625 458.459 813.744 458.398 813.881 458.349C814.025 458.301 814.169 458.276 814.325 458.276C814.6 458.276 814.85 458.342 815.069 458.476C815.287 458.607 815.456 458.788 815.581 459.017C815.706 459.247 815.769 459.509 815.769 459.803C815.769 460.093 815.706 460.352 815.575 460.58C815.444 460.806 815.269 460.985 815.044 461.117C814.819 461.247 814.556 461.312 814.269 461.312ZM817.962 461.312C817.775 461.309 817.587 461.274 817.4 461.206C817.219 461.137 817.044 461.023 816.894 460.862C816.737 460.699 816.612 460.479 816.519 460.202C816.425 459.924 816.381 459.575 816.381 459.155C816.381 458.752 816.419 458.396 816.494 458.085C816.569 457.773 816.681 457.51 816.825 457.297C816.969 457.082 817.137 456.92 817.344 456.809C817.544 456.698 817.775 456.642 818.031 456.642C818.287 456.642 818.512 456.694 818.712 456.796C818.912 456.896 819.075 457.037 819.2 457.217C819.325 457.397 819.406 457.606 819.444 457.841H818.9C818.85 457.637 818.756 457.467 818.612 457.332C818.462 457.198 818.275 457.131 818.031 457.131C817.681 457.131 817.4 457.284 817.2 457.59C817 457.896 816.9 458.326 816.894 458.879H816.931C817.012 458.754 817.112 458.647 817.225 458.557C817.344 458.467 817.469 458.398 817.606 458.349C817.75 458.301 817.894 458.276 818.05 458.276C818.312 458.276 818.55 458.341 818.762 458.471C818.981 458.6 819.156 458.778 819.287 459.006C819.412 459.232 819.481 459.492 819.481 459.785C819.481 460.066 819.419 460.324 819.294 460.557C819.162 460.79 818.987 460.975 818.762 461.112C818.531 461.249 818.269 461.315 817.962 461.312ZM817.962 460.824C818.15 460.824 818.312 460.777 818.462 460.684C818.612 460.591 818.731 460.466 818.819 460.309C818.906 460.152 818.95 459.977 818.95 459.785C818.95 459.597 818.906 459.426 818.819 459.272C818.737 459.117 818.625 458.994 818.475 458.902C818.331 458.81 818.169 458.764 817.981 458.764C817.837 458.764 817.706 458.792 817.587 458.849C817.462 458.903 817.356 458.979 817.269 459.075C817.175 459.171 817.106 459.281 817.056 459.406C817 459.529 816.975 459.658 816.975 459.794C816.975 459.974 817.019 460.143 817.1 460.3C817.187 460.457 817.306 460.583 817.456 460.679C817.6 460.776 817.775 460.824 817.962 460.824ZM820.294 461.25L822.325 457.228V457.193H819.981V456.704H822.894V457.219L820.869 461.25H820.294ZM824.887 461.312C824.581 461.312 824.312 461.258 824.081 461.15C823.85 461.041 823.669 460.891 823.537 460.699C823.406 460.507 823.344 460.288 823.344 460.042C823.344 459.85 823.381 459.672 823.456 459.51C823.531 459.346 823.637 459.209 823.769 459.099C823.906 458.988 824.056 458.918 824.219 458.889V458.862C824.006 458.806 823.831 458.684 823.7 458.496C823.575 458.306 823.512 458.091 823.512 457.85C823.512 457.619 823.569 457.412 823.687 457.231C823.806 457.049 823.969 456.905 824.175 456.8C824.381 456.695 824.619 456.642 824.887 456.642C825.15 456.642 825.387 456.695 825.594 456.8C825.8 456.905 825.962 457.049 826.081 457.231C826.2 457.412 826.262 457.619 826.262 457.85C826.262 458.091 826.194 458.306 826.069 458.496C825.937 458.684 825.769 458.806 825.556 458.862V458.889C825.719 458.918 825.862 458.988 826 459.099C826.131 459.209 826.231 459.346 826.312 459.51C826.394 459.672 826.431 459.85 826.431 460.042C826.431 460.288 826.362 460.507 826.231 460.699C826.1 460.891 825.919 461.041 825.687 461.15C825.456 461.258 825.194 461.312 824.887 461.312ZM824.887 460.824C825.094 460.824 825.269 460.791 825.419 460.724C825.569 460.657 825.687 460.564 825.769 460.442C825.85 460.321 825.887 460.179 825.894 460.016C825.887 459.844 825.844 459.692 825.756 459.561C825.669 459.429 825.55 459.326 825.4 459.25C825.25 459.175 825.081 459.137 824.887 459.137C824.694 459.137 824.519 459.175 824.369 459.25C824.219 459.326 824.1 459.429 824.012 459.561C823.925 459.692 823.881 459.844 823.881 460.016C823.881 460.179 823.925 460.321 824 460.442C824.081 460.564 824.2 460.657 824.35 460.724C824.5 460.791 824.681 460.824 824.887 460.824ZM824.887 458.666C825.05 458.666 825.194 458.634 825.319 458.569C825.45 458.504 825.55 458.412 825.619 458.296C825.694 458.179 825.731 458.042 825.731 457.885C825.731 457.731 825.694 457.597 825.625 457.484C825.55 457.368 825.45 457.279 825.325 457.217C825.2 457.154 825.056 457.122 824.887 457.122C824.719 457.122 824.569 457.154 824.444 457.217C824.312 457.279 824.219 457.368 824.144 457.484C824.075 457.597 824.044 457.731 824.044 457.885C824.044 458.042 824.075 458.179 824.15 458.296C824.219 458.412 824.319 458.504 824.45 458.569C824.575 458.634 824.719 458.666 824.887 458.666Z" fill="#6C6B6B"/>
<path d="M1065.87 250.35H1000.67C984.328 250.35 971.081 263.597 971.081 279.937C971.081 296.278 984.328 309.524 1000.67 309.524H1065.87C1082.21 309.524 1095.46 296.278 1095.46 279.937C1095.46 263.597 1082.21 250.35 1065.87 250.35Z" fill="white"/>
<path d="M1065.87 250.35H1000.67C984.328 250.35 971.081 263.597 971.081 279.937C971.081 296.278 984.328 309.524 1000.67 309.524H1065.87C1082.21 309.524 1095.46 296.278 1095.46 279.937C1095.46 263.597 1082.21 250.35 1065.87 250.35Z" stroke="black"/>
<path d="M997.85 273.076V273.721H996.444V278.291H995.681V269.609H996.444V273.076H997.85ZM990.85 270.469V275.439C992.119 275.434 993.413 275.337 994.844 275.039L994.944 275.693C993.45 275.996 992.1 276.084 990.781 276.084H990.088V270.469H990.85ZM1001.21 270.244C1002.58 270.244 1003.54 271.074 1003.54 272.285C1003.54 273.496 1002.58 274.326 1001.21 274.326C999.844 274.326 998.856 273.496 998.869 272.285C998.856 271.074 999.844 270.244 1001.21 270.244ZM1001.21 270.918C1000.28 270.918 999.613 271.474 999.619 272.285C999.613 273.096 1000.28 273.652 1001.21 273.652C1002.13 273.652 1002.79 273.096 1002.79 272.285C1002.79 271.474 1002.13 270.918 1001.21 270.918ZM1005.49 269.609V278.311H1004.73V269.609H1005.49ZM998.419 275.742C1000.02 275.742 1002.23 275.732 1004.15 275.449L1004.21 276.016C1002.23 276.387 1000.09 276.396 998.525 276.396L998.419 275.742ZM1016.72 269.609V274.785H1015.95V272.51H1014.2V271.875H1015.95V269.609H1016.72ZM1013.84 275.059C1015.64 275.059 1016.75 275.644 1016.75 276.67C1016.75 277.695 1015.64 278.281 1013.84 278.291C1012.03 278.281 1010.93 277.695 1010.93 276.67C1010.93 275.644 1012.03 275.059 1013.84 275.059ZM1013.84 275.654C1012.51 275.654 1011.68 276.035 1011.69 276.67C1011.68 277.295 1012.51 277.676 1013.84 277.676C1015.17 277.676 1015.99 277.295 1015.99 276.67C1015.99 276.035 1015.17 275.654 1013.84 275.654ZM1012.54 271.201C1012.54 272.334 1013.41 273.408 1014.68 273.848L1014.28 274.463C1013.3 274.111 1012.54 273.384 1012.18 272.481C1011.8 273.501 1010.99 274.316 1009.96 274.707L1009.56 274.092C1010.85 273.623 1011.77 272.451 1011.77 271.211V270.889H1009.81V270.244H1014.48V270.889H1012.54V271.201ZM1024.95 269.609V271.651H1026.26V272.295H1024.95V274.238H1024.19V269.609H1024.95ZM1022.43 270.186V270.82H1019.34V273.301C1021.08 273.301 1022.07 273.247 1023.23 273.008L1023.33 273.643C1022.11 273.887 1021.08 273.945 1019.25 273.945H1018.58V270.186H1022.43ZM1020.21 274.707V275.791H1024.19V274.707H1024.95V278.144H1019.45V274.707H1020.21ZM1020.21 277.51H1024.19V276.406H1020.21V277.51ZM1034.74 273.574V274.17H1032.6V274.961H1033.75V276.807H1028.54V277.637H1034.03V278.193H1027.76V276.269H1032.99V275.527H1027.76V274.961H1028.96V274.17H1026.8V273.574H1034.74ZM1033.72 269.873V271.66H1028.59V272.402H1033.88V272.959H1027.83V271.143H1032.95V270.42H1027.8V269.873H1033.72ZM1029.71 274.961H1031.84V274.17H1029.71V274.961ZM1040.26 270.576V271.026C1040.26 271.709 1040.26 272.861 1040.01 274.473L1039.24 274.404C1039.48 272.949 1039.49 271.894 1039.49 271.201H1035.85V270.576H1040.26ZM1037.99 273.057V275.693C1038.95 275.659 1039.94 275.596 1040.84 275.488L1040.88 276.064C1039.05 276.348 1037.01 276.387 1035.46 276.377L1035.36 275.742C1035.93 275.737 1036.57 275.732 1037.24 275.713V273.057H1037.99ZM1042.15 269.609V273.242H1043.56V273.906H1042.15V278.291H1041.39V269.609H1042.15ZM1050.56 270.176C1052.4 270.186 1053.73 271.084 1053.73 272.451C1053.73 273.745 1052.58 274.604 1050.93 274.707V276.533H1054.55V277.178H1046.6V276.533H1050.18V274.707C1048.53 274.599 1047.38 273.74 1047.38 272.451C1047.38 271.084 1048.71 270.186 1050.56 270.176ZM1050.56 270.811C1049.15 270.811 1048.13 271.474 1048.13 272.451C1048.13 273.457 1049.15 274.101 1050.56 274.111C1051.96 274.101 1052.99 273.457 1052.99 272.451C1052.99 271.474 1051.96 270.811 1050.56 270.811ZM1062.03 269.609V271.651H1063.34V272.295H1062.03V274.238H1061.27V269.609H1062.03ZM1059.5 270.186V270.82H1056.42V273.301C1058.16 273.301 1059.15 273.247 1060.31 273.008L1060.41 273.643C1059.19 273.887 1058.16 273.945 1056.33 273.945H1055.66V270.186H1059.5ZM1057.29 274.707V275.791H1061.27V274.707H1062.03V278.144H1056.53V274.707H1057.29ZM1057.29 277.51H1061.27V276.406H1057.29V277.51ZM1071.83 273.574V274.17H1069.68V274.961H1070.83V276.807H1065.61V277.637H1071.11V278.193H1064.84V276.269H1070.07V275.527H1064.83V274.961H1066.04V274.17H1063.88V273.574H1071.83ZM1070.8 269.873V271.66H1065.68V272.402H1070.96V272.959H1064.91V271.143H1070.03V270.42H1064.88V269.873H1070.8ZM1066.79 274.961H1068.92V274.17H1066.79V274.961ZM1076.49 269.766C1078.42 269.766 1079.55 270.293 1079.55 271.26C1079.55 272.246 1078.42 272.774 1076.49 272.783C1074.55 272.774 1073.41 272.246 1073.41 271.26C1073.41 270.293 1074.55 269.766 1076.49 269.766ZM1076.49 270.342C1075.04 270.342 1074.2 270.693 1074.21 271.26C1074.2 271.865 1075.04 272.197 1076.49 272.197C1077.92 272.197 1078.77 271.865 1078.77 271.26C1078.77 270.693 1077.92 270.342 1076.49 270.342ZM1080.44 273.369V273.994H1072.53V273.369H1080.44ZM1079.43 274.746V276.689H1074.27V277.588H1079.69V278.193H1073.51V276.123H1078.68V275.332H1073.49V274.746H1079.43ZM991.544 281.631V282.461H995.838V281.631H996.6V284.482H994.044V285.342H997.638V285.967H989.725V285.342H993.294V284.482H990.781V281.631H991.544ZM991.544 283.887H995.838V283.047H991.544V283.887ZM996.619 286.689V288.613H991.463V289.463H996.888V290.068H990.7V288.047H995.869V287.276H990.681V286.689H996.619ZM1005.24 282.295C1005.24 283.516 1006.84 284.58 1008.4 284.795L1008.09 285.42C1006.74 285.195 1005.41 284.448 1004.84 283.379C1004.29 284.453 1002.95 285.195 1001.6 285.42L1001.29 284.795C1002.85 284.58 1004.44 283.535 1004.44 282.295V281.797H1005.24V282.295ZM1008.79 286.377V287.021H1005.19V290.166H1004.44V287.021H1000.88V286.377H1008.79ZM1014.97 287.314C1014.97 288.081 1015.38 288.896 1016.21 289.365C1017.03 288.853 1017.47 287.988 1017.47 287.314V286.836H1018.23V287.314C1018.23 288.203 1018.88 289.101 1019.99 289.482L1019.61 290.049C1018.74 289.741 1018.13 289.136 1017.83 288.408C1017.56 289.111 1017.03 289.776 1016.23 290.117C1015.39 289.795 1014.85 289.155 1014.59 288.428C1014.28 289.131 1013.68 289.736 1012.85 290.049L1012.46 289.482C1013.56 289.072 1014.22 288.144 1014.23 287.314V286.836H1014.97V287.314ZM1019.2 281.494V286.455H1018.44V281.494H1019.2ZM1014.51 282.002C1015.83 282.002 1016.79 282.823 1016.79 284.033C1016.79 285.224 1015.83 286.045 1014.51 286.045C1013.19 286.045 1012.24 285.224 1012.24 284.033C1012.24 282.823 1013.19 282.002 1014.51 282.002ZM1014.51 282.656C1013.63 282.646 1012.98 283.223 1012.99 284.033C1012.98 284.834 1013.63 285.401 1014.51 285.41C1015.39 285.401 1016.04 284.834 1016.04 284.033C1016.04 283.223 1015.39 282.646 1014.51 282.656ZM1023.01 282.158C1024.19 282.168 1025.04 283.179 1025.17 284.805H1027.11V281.484H1027.87V290.186H1027.11V285.439H1025.18C1025.08 287.139 1024.22 288.203 1023.01 288.203C1021.73 288.203 1020.83 287.031 1020.83 285.186C1020.83 283.34 1021.73 282.168 1023.01 282.158ZM1023.01 282.842C1022.15 282.851 1021.56 283.769 1021.56 285.186C1021.56 286.601 1022.15 287.519 1023.01 287.519C1023.86 287.519 1024.45 286.601 1024.45 285.186C1024.45 283.769 1023.86 282.851 1023.01 282.842ZM1037.26 288.408V289.053H1029.32V288.408H1031.29V286.064C1030.55 285.679 1030.1 285.054 1030.1 284.268C1030.1 282.92 1031.42 282.041 1033.27 282.031C1035.13 282.041 1036.44 282.92 1036.44 284.268C1036.44 285.039 1036.01 285.659 1035.29 286.045V288.408H1037.26ZM1033.27 282.666C1031.84 282.656 1030.84 283.301 1030.84 284.268C1030.84 285.234 1031.84 285.889 1033.27 285.889C1034.69 285.889 1035.7 285.234 1035.7 284.268C1035.7 283.301 1034.69 282.656 1033.27 282.666ZM1032.04 288.408H1034.52V286.338C1034.14 286.441 1033.73 286.494 1033.27 286.494C1032.83 286.494 1032.41 286.445 1032.04 286.348V288.408ZM1039.36 282.305L1039.3 287.383H1038.48L1038.41 282.305H1039.36ZM1038.89 289.434C1038.54 289.434 1038.25 289.151 1038.26 288.799C1038.25 288.457 1038.54 288.174 1038.89 288.174C1039.23 288.174 1039.51 288.457 1039.51 288.799C1039.51 289.151 1039.23 289.434 1038.89 289.434Z" fill="black"/>
<path d="M977.369 261.529L946.875 246.875" stroke="black"/>
<path d="M1070.87 399.725H1005.67C989.328 399.725 976.081 412.972 976.081 429.312C976.081 445.653 989.328 458.899 1005.67 458.899H1070.87C1087.21 458.899 1100.46 445.653 1100.46 429.312C1100.46 412.972 1087.21 399.725 1070.87 399.725Z" fill="white"/>
<path d="M1070.87 399.725H1005.67C989.328 399.725 976.081 412.972 976.081 429.312C976.081 445.653 989.328 458.899 1005.67 458.899H1070.87C1087.21 458.899 1100.46 445.653 1100.46 429.312C1100.46 412.972 1087.21 399.725 1070.87 399.725Z" stroke="black"/>
<path d="M1011.7 421.777V422.334H1005.77V419.209H1011.65V419.766H1006.54V420.479H1011.42V421.016H1006.54V421.777H1011.7ZM1012.64 422.998V423.613H1004.74V422.998H1012.64ZM1011.62 424.277V426.152H1006.46V426.992H1011.89V427.568H1005.7V425.606H1010.87V424.844H1005.68V424.277H1011.62ZM1020.52 418.994V425.381H1019.77V418.994H1020.52ZM1020.78 426.836V427.481H1014.83V424.883H1015.61V426.836H1020.78ZM1017.77 419.609V422.119H1014.57V423.506C1016.18 423.506 1017.32 423.457 1018.7 423.213L1018.78 423.848C1017.36 424.092 1016.19 424.141 1014.53 424.151H1013.82V421.514H1017.01V420.234H1013.81V419.609H1017.77ZM1032.46 423.428V424.062H1028.92V425.84H1028.16V424.062H1024.51V423.428H1032.46ZM1031.42 419.414V422.432H1025.55V419.414H1031.42ZM1026.3 420.019V421.816H1030.66V420.019H1026.3ZM1031.57 426.836V427.481H1025.52V424.981H1026.3V426.836H1031.57ZM1040.59 418.984V427.666H1039.86V418.984H1040.59ZM1038.82 419.199V427.217H1038.11V422.744H1036.64V422.119H1038.11V419.199H1038.82ZM1035.71 421.465C1035.71 422.969 1036.39 424.463 1037.59 425.156L1037.12 425.723C1036.26 425.21 1035.66 424.273 1035.36 423.164C1035.04 424.361 1034.41 425.381 1033.54 425.928L1033.06 425.351C1034.27 424.629 1034.97 423.047 1034.97 421.465V420.644H1033.3V420.01H1037.31V420.644H1035.71V421.465ZM1049.74 423.018V423.623H1041.8V423.018H1049.74ZM1048.75 424.316V426.162H1043.54V426.992H1049.03V427.549H1042.76V425.635H1047.99V424.893H1042.76V424.316H1048.75ZM1048.72 419.248V421.045H1043.59V421.807H1048.87V422.363H1042.83V420.518H1047.95V419.805H1042.8V419.248H1048.72ZM1011.44 430.859V434.297H1012.9V434.941H1011.44V439.561H1010.68V430.859H1011.44ZM1009.16 431.709V432.344H1005.87V436.738C1007.44 436.738 1008.56 436.665 1009.84 436.426L1009.94 437.09C1008.58 437.334 1007.44 437.383 1005.79 437.383H1005.11V431.709H1009.16ZM1016.46 433.193C1016.44 434.776 1017.53 436.377 1018.81 436.953L1018.34 437.559C1017.36 437.075 1016.5 436.055 1016.08 434.814C1015.68 436.128 1014.82 437.222 1013.81 437.734L1013.32 437.09C1014.61 436.494 1015.68 434.844 1015.69 433.193V431.611H1016.46V433.193ZM1020.52 430.859V439.561H1019.76V430.859H1020.52ZM1026.34 431.006V431.836H1030.64V431.006H1031.39V433.857H1028.84V434.717H1032.43V435.342H1024.52V434.717H1028.09V433.857H1025.57V431.006H1026.34ZM1026.34 433.262H1030.64V432.422H1026.34V433.262ZM1031.42 436.064V437.988H1026.26V438.838H1031.68V439.443H1025.5V437.422H1030.66V436.651H1025.48V436.064H1031.42ZM1040.03 431.67C1040.03 432.891 1041.63 433.955 1043.19 434.17L1042.88 434.795C1041.53 434.57 1040.2 433.823 1039.64 432.754C1039.08 433.828 1037.74 434.57 1036.39 434.795L1036.08 434.17C1037.64 433.955 1039.24 432.91 1039.24 431.67V431.172H1040.03V431.67ZM1043.58 435.752V436.396H1039.99V439.541H1039.24V436.396H1035.67V435.752H1043.58ZM1049.76 436.689C1049.76 437.456 1050.17 438.271 1051.01 438.74C1051.82 438.228 1052.26 437.363 1052.26 436.689V436.211H1053.02V436.689C1053.02 437.578 1053.67 438.476 1054.79 438.857L1054.41 439.424C1053.54 439.116 1052.92 438.511 1052.62 437.783C1052.36 438.486 1051.82 439.151 1051.02 439.492C1050.18 439.17 1049.64 438.53 1049.39 437.803C1049.07 438.506 1048.47 439.111 1047.64 439.424L1047.26 438.857C1048.35 438.447 1049.01 437.519 1049.02 436.689V436.211H1049.76V436.689ZM1053.99 430.869V435.83H1053.23V430.869H1053.99ZM1049.31 431.377C1050.62 431.377 1051.58 432.198 1051.58 433.408C1051.58 434.599 1050.62 435.42 1049.31 435.42C1047.99 435.42 1047.03 434.599 1047.03 433.408C1047.03 432.198 1047.99 431.377 1049.31 431.377ZM1049.31 432.031C1048.42 432.021 1047.77 432.598 1047.78 433.408C1047.77 434.209 1048.42 434.776 1049.31 434.785C1050.19 434.776 1050.83 434.209 1050.83 433.408C1050.83 432.598 1050.19 432.021 1049.31 432.031ZM1057.8 431.533C1058.99 431.543 1059.83 432.554 1059.96 434.18H1061.91V430.859H1062.67V439.561H1061.91V434.814H1059.97C1059.87 436.514 1059.01 437.578 1057.8 437.578C1056.52 437.578 1055.62 436.406 1055.62 434.561C1055.62 432.715 1056.52 431.543 1057.8 431.533ZM1057.8 432.217C1056.94 432.226 1056.36 433.144 1056.36 434.561C1056.36 435.976 1056.94 436.894 1057.8 436.894C1058.65 436.894 1059.25 435.976 1059.25 434.561C1059.25 433.144 1058.65 432.226 1057.8 432.217ZM1072.06 437.783V438.428H1064.11V437.783H1066.08V435.439C1065.34 435.054 1064.89 434.429 1064.89 433.643C1064.89 432.295 1066.21 431.416 1068.07 431.406C1069.92 431.416 1071.24 432.295 1071.24 433.643C1071.24 434.414 1070.81 435.034 1070.09 435.42V437.783H1072.06ZM1068.07 432.041C1066.64 432.031 1065.64 432.676 1065.64 433.643C1065.64 434.609 1066.64 435.264 1068.07 435.264C1069.48 435.264 1070.5 434.609 1070.5 433.643C1070.5 432.676 1069.48 432.031 1068.07 432.041ZM1066.84 437.783H1069.32V435.713C1068.94 435.816 1068.52 435.869 1068.07 435.869C1067.62 435.869 1067.21 435.82 1066.84 435.723V437.783Z" fill="black"/>
<path d="M982.369 410.904L951.875 396.25" stroke="black"/>
</g>
<path d="M1199.69 0.3125H0.3125V652.188H1199.69V0.3125Z" stroke="black"/>
</g>
<defs>
<filter id="filter0_d_3033_2037" x="-4" y="0" width="1208" height="51.75" filterUnits="userSpaceOnUse" color-interpolation-filters="sRGB">
<feFlood flood-opacity="0" result="BackgroundImageFix"/>
<feColorMatrix in="SourceAlpha" type="matrix" values="0 0 0 0 0 0 0 0 0 0 0 0 0 0 0 0 0 0 127 0" result="hardAlpha"/>
<feOffset dy="4"/>
<feGaussianBlur stdDeviation="2"/>
<feComposite in2="hardAlpha" operator="out"/>
<feColorMatrix type="matrix" values="0 0 0 0 0.748333 0 0 0 0 0.748333 0 0 0 0 0.748333 0 0 0 0.25 0"/>
<feBlend mode="normal" in2="BackgroundImageFix" result="effect1_dropShadow_3033_2037"/>
<feBlend mode="normal" in="SourceGraphic" in2="effect1_dropShadow_3033_2037" result="shape"/>
</filter>
<filter id="filter1_d_3033_2037" x="1031" y="10.625" width="79.25" height="30.5" filterUnits="userSpaceOnUse" color-interpolation-filters="sRGB">
<feFlood flood-opacity="0" result="BackgroundImageFix"/>
<feColorMatrix in="SourceAlpha" type="matrix" values="0 0 0 0 0 0 0 0 0 0 0 0 0 0 0 0 0 0 127 0" result="hardAlpha"/>
<feOffset dy="4"/>
<feGaussianBlur stdDeviation="2"/>
<feComposite in2="hardAlpha" operator="out"/>
<feColorMatrix type="matrix" values="0 0 0 0 0.62 0 0 0 0 0.62 0 0 0 0 0.62 0 0 0 0.25 0"/>
<feBlend mode="normal" in2="BackgroundImageFix" result="effect1_dropShadow_3033_2037"/>
<feBlend mode="normal" in="SourceGraphic" in2="effect1_dropShadow_3033_2037" result="shape"/>
</filter>
<filter id="filter2_i_3033_2037" x="736.25" y="186.25" width="240" height="68.75" filterUnits="userSpaceOnUse" color-interpolation-filters="sRGB">
<feFlood flood-opacity="0" result="BackgroundImageFix"/>
<feBlend mode="normal" in="SourceGraphic" in2="BackgroundImageFix" result="shape"/>
<feColorMatrix in="SourceAlpha" type="matrix" values="0 0 0 0 0 0 0 0 0 0 0 0 0 0 0 0 0 0 127 0" result="hardAlpha"/>
<feOffset/>
<feGaussianBlur stdDeviation="3.5"/>
<feComposite in2="hardAlpha" operator="arithmetic" k2="-1" k3="1"/>
<feColorMatrix type="matrix" values="0 0 0 0 0 0 0 0 0 0 0 0 0 0 0 0 0 0 0.25 0"/>
<feBlend mode="normal" in2="shape" result="effect1_innerShadow_3033_2037"/>
</filter>
<clipPath id="clip0_3033_2037">
<rect width="1200" height="652.5" fill="white"/>
</clipPath>
</defs>
</svg>
