<svg width="1200" height="641" viewBox="0 0 1200 641" fill="none" xmlns="http://www.w3.org/2000/svg">
<g clip-path="url(#clip0_3033_2219)">
<mask id="mask0_3033_2219" style="mask-type:luminance" maskUnits="userSpaceOnUse" x="0" y="0" width="1200" height="641">
<path d="M1200 0.5H0V640.5H1200V0.5Z" fill="white"/>
</mask>
<g mask="url(#mask0_3033_2219)">
<path d="M1200 0.5H0V640.5H1200V0.5Z" fill="#F8F8F8"/>
<g filter="url(#filter0_d_3033_2219)">
<path d="M1200 0.5H0V44.25H1200V0.5Z" fill="white"/>
<path d="M31.6375 27.4375C30.0458 27.4375 28.8125 27.0583 27.9375 26.3C27.0625 25.5333 26.625 24.4 26.625 22.9C26.625 21.4083 27.0625 20.2833 27.9375 19.525C28.8125 18.7583 30.075 18.375 31.725 18.375H33.975C35.625 18.375 36.8875 18.7583 37.7625 19.525C38.6375 20.2833 39.075 21.4083 39.075 22.9C39.075 24.4 38.6375 25.5333 37.7625 26.3C36.8875 27.0583 35.6458 27.4375 34.0375 27.4375H33.875V28.75H31.875V27.4375H31.6375ZM33.875 24.25V25.8125C34.95 25.8042 35.7458 25.5708 36.2625 25.1125C36.7792 24.6542 37.0375 23.9167 37.0375 22.9C37.0375 21.8833 36.775 21.1458 36.25 20.6875C35.7333 20.2292 34.9292 20 33.8375 20H31.8625C30.7792 20 29.975 20.2292 29.45 20.6875C28.925 21.1458 28.6625 21.8833 28.6625 22.9C28.6625 23.9167 28.925 24.6583 29.45 25.125C29.975 25.5833 30.7833 25.8125 31.875 25.8125V24.25H33.875ZM39.9458 24.45V23.0125H43.7708V24.45H39.9458ZM44.9551 27.375V20.9375H46.7676V27.375H44.9551ZM44.9426 19.875V18.4625H46.7801V19.875H44.9426ZM48.1411 27.375V20.9375H53.7536C54.4869 20.9375 55.0203 21.1208 55.3536 21.4875C55.6953 21.8458 55.8661 22.3208 55.8661 22.9125V27.375H54.0536V23.125C54.0536 22.625 53.8036 22.375 53.3036 22.375H49.9536V27.375H48.1411ZM60.5243 27.375C59.7993 27.375 59.266 27.1958 58.9243 26.8375C58.5826 26.4708 58.4118 25.9917 58.4118 25.4V22.375H56.5493V20.9375H58.4118V18.9625H60.2243V20.9375H62.8994V22.375H60.2243V25.175C60.2243 25.6833 60.4743 25.9375 60.9743 25.9375H63.2494V27.375H60.5243Z" fill="black"/>
<path d="M956 18.7398V23.636H952.5V18.7398H956ZM953.15 19.2781V23.0891H955.338V19.2781H953.15ZM958.063 17.9707V21.0041H959.337V21.5852H958.063V25.5671H957.394V17.9707H958.063ZM966.006 17.9707V25.5843H965.331V17.9707H966.006ZM961.969 18.5603C963.094 18.5689 963.906 19.5943 963.906 21.2093C963.906 22.8243 963.094 23.8496 961.969 23.8496C960.831 23.8496 960.025 22.8243 960.025 21.2093C960.025 19.5943 960.831 18.5689 961.969 18.5603ZM961.969 19.1585C961.206 19.167 960.675 19.9702 960.675 21.2093C960.675 22.4483 961.206 23.2515 961.969 23.2515C962.725 23.2515 963.256 22.4483 963.256 21.2093C963.256 19.9702 962.725 19.167 961.969 19.1585ZM976.038 17.9707V25.5671H975.387V17.9707H976.038ZM974.556 18.1587V25.1655H973.913V21.4656H972.85V20.8589H973.913V18.1587H974.556ZM973.075 18.9448V19.5003H972.431V23.0122C972.719 22.9951 972.994 22.9695 973.244 22.9353L973.288 23.431C972.094 23.6531 970.494 23.6873 969.506 23.6873L969.419 23.1148L970.219 23.1062V19.5003H969.581V18.9448H973.075ZM970.837 23.0976C971.15 23.0891 971.488 23.0763 971.813 23.055V19.5003H970.837V23.0976ZM983.331 17.9707V25.5843H982.656V17.9707H983.331ZM979.287 18.5603C980.412 18.5689 981.225 19.5943 981.225 21.2093C981.225 22.8243 980.412 23.8496 979.287 23.8496C978.15 23.8496 977.35 22.8243 977.35 21.2093C977.35 19.5943 978.15 18.5689 979.287 18.5603ZM979.287 19.1585C978.525 19.167 977.994 19.9702 977.994 21.2093C977.994 22.4483 978.525 23.2515 979.287 23.2515C980.05 23.2515 980.575 22.4483 980.575 21.2093C980.575 19.9702 980.05 19.167 979.287 19.1585ZM987.344 20.3035C987.344 21.5938 988.288 22.9011 989.406 23.3882L989.031 23.918C988.137 23.5121 987.369 22.6363 987.019 21.5852C986.662 22.7003 985.894 23.6702 985.031 24.106L984.625 23.5762C985.713 23.055 986.663 21.6194 986.669 20.3035V19.3123H984.875V18.7568H989.156V19.3123H987.344V20.3035ZM990.894 17.9707V25.5671H990.219V17.9707H990.894Z" fill="black"/>
<g filter="url(#filter1_d_3033_2219)">
<path d="M1103.12 11.125H1038.12C1036.4 11.125 1035 12.5241 1035 14.25V30.5C1035 32.2259 1036.4 33.625 1038.12 33.625H1103.12C1104.85 33.625 1106.25 32.2259 1106.25 30.5V14.25C1106.25 12.5241 1104.85 11.125 1103.12 11.125Z" fill="#00EDA6"/>
<path d="M1062.37 23.4962V24.0199H1055.91V23.4962H1058.81V22.1632H1056.72V19.9891H1060.94V18.8783H1056.71V18.3626H1061.55V20.4969H1057.34V21.6474H1061.72V22.1632H1059.43V23.4962H1062.37ZM1068.49 18.5926V19.2988C1068.49 20.1875 1068.49 21.1952 1068.23 22.7266L1067.6 22.6631C1067.88 21.219 1067.88 20.1637 1067.88 19.2988V19.1084H1063.63V18.5926H1068.49ZM1069.36 23.3375V23.8532H1062.93V23.3375H1069.36ZM1071.84 18.3864C1072.88 18.3943 1073.62 19.3464 1073.63 20.8461C1073.62 22.3457 1072.88 23.2979 1071.84 23.2979C1070.79 23.2979 1070.07 22.3457 1070.07 20.8461C1070.07 19.3464 1070.79 18.3943 1071.84 18.3864ZM1071.84 18.9417C1071.14 18.9497 1070.65 19.6956 1070.65 20.8461C1070.65 21.9966 1071.14 22.7424 1071.84 22.7424C1072.55 22.7424 1073.03 21.9966 1073.03 20.8461C1073.03 19.6956 1072.55 18.9497 1071.84 18.9417ZM1075.41 17.8389V20.6556H1076.59V21.1952H1075.41V24.8927H1074.79V17.8389H1075.41ZM1083.43 21.0603V21.5999H1080.48V22.3695H1079.88V21.5999H1076.98V21.0603H1083.43ZM1080.49 22.917C1080.49 23.6946 1081.64 24.2579 1082.91 24.3849L1082.71 24.8609C1081.6 24.7419 1080.59 24.3135 1080.18 23.6311C1079.76 24.3056 1078.76 24.7419 1077.65 24.8609L1077.44 24.3849C1078.71 24.2579 1079.86 23.6866 1079.86 22.917V22.6869H1080.49V22.917ZM1080.19 17.9579C1081.74 17.9579 1082.68 18.4181 1082.68 19.2433C1082.68 20.0606 1081.74 20.5366 1080.19 20.5287C1078.64 20.5366 1077.69 20.0606 1077.69 19.2433C1077.69 18.4181 1078.64 17.9579 1080.19 17.9579ZM1080.19 18.4339C1079.04 18.426 1078.33 18.7355 1078.33 19.2433C1078.33 19.7432 1079.04 20.0447 1080.19 20.0447C1081.33 20.0447 1082.05 19.7432 1082.05 19.2433C1082.05 18.7355 1081.33 18.426 1080.19 18.4339Z" fill="black"/>
</g>
</g>
<g filter="url(#filter2_i_3033_2219)">
<path d="M1099.37 85.5H100.625C97.1732 85.5 94.375 88.2982 94.375 91.75V199.875C94.375 203.327 97.1732 206.125 100.625 206.125H1099.37C1102.83 206.125 1105.62 203.327 1105.62 199.875V91.75C1105.62 88.2982 1102.83 85.5 1099.37 85.5Z" fill="white"/>
<path d="M438.515 137.219V144.094H441.425V145.382H438.515V154.621H436.992V137.219H438.515ZM433.945 138.918V140.188H427.363V148.976C430.507 148.976 432.734 148.83 435.312 148.351L435.507 149.68C432.793 150.168 430.507 150.266 427.207 150.266H425.84V138.918H433.945ZM450.274 137.609C454.043 137.609 456.406 138.82 456.406 140.91C456.406 142.961 454.043 144.152 450.274 144.152C446.504 144.152 444.121 142.961 444.121 140.91C444.121 138.82 446.504 137.609 450.274 137.609ZM450.274 138.84C447.461 138.84 445.684 139.621 445.703 140.91C445.684 142.18 447.461 142.922 450.274 142.941C453.047 142.922 454.844 142.18 454.844 140.91C454.844 139.621 453.047 138.84 450.274 138.84ZM456.25 148.644V154.348H444.297V148.644H456.25ZM445.82 149.875V153.098H454.746V149.875H445.82ZM458.184 145.656V146.926H442.363V145.656H458.184ZM480.488 145.344V146.613H473.32V148.469C476.601 148.606 478.535 149.68 478.555 151.516C478.535 153.449 476.309 154.543 472.578 154.543C468.809 154.543 466.582 153.449 466.582 151.516C466.582 149.68 468.505 148.606 471.816 148.469V146.613H464.668V145.344H480.488ZM472.578 149.641C469.785 149.66 468.125 150.344 468.144 151.516C468.125 152.668 469.785 153.351 472.578 153.351C475.332 153.351 477.012 152.668 477.012 151.516C477.012 150.344 475.332 149.66 472.578 149.641ZM479.082 138.039V139.289H473.574C473.672 141.242 476.543 142.756 479.609 143.078L479.043 144.289C476.201 143.947 473.535 142.677 472.578 140.734C471.63 142.677 468.974 143.947 466.113 144.289L465.566 143.078C468.574 142.756 471.465 141.242 471.582 139.289H466.113V138.039H479.082ZM494.882 138.351C498.574 138.371 501.23 140.168 501.23 142.902C501.23 145.49 498.925 147.209 495.625 147.414V151.066H502.871V152.356H486.972V151.066H494.121V147.414C490.83 147.199 488.535 145.481 488.535 142.902C488.535 140.168 491.191 138.371 494.882 138.351ZM494.882 139.621C492.07 139.621 490.019 140.949 490.019 142.902C490.019 144.914 492.07 146.203 494.882 146.223C497.695 146.203 499.746 144.914 499.746 142.902C499.746 140.949 497.695 139.621 494.882 139.621ZM518.652 137.219V147.57H517.109V143.019H513.613V141.75H517.109V137.219H518.652ZM512.89 148.118C516.504 148.118 518.711 149.289 518.711 151.34C518.711 153.391 516.504 154.563 512.89 154.582C509.277 154.563 507.07 153.391 507.07 151.34C507.07 149.289 509.277 148.118 512.89 148.118ZM512.89 149.309C510.234 149.309 508.574 150.07 508.594 151.34C508.574 152.59 510.234 153.351 512.89 153.351C515.547 153.351 517.187 152.59 517.187 151.34C517.187 150.07 515.547 149.309 512.89 149.309ZM510.293 140.402C510.293 142.668 512.031 144.816 514.57 145.695L513.769 146.926C511.816 146.223 510.302 144.768 509.57 142.961C508.809 145.002 507.197 146.632 505.137 147.414L504.336 146.184C506.914 145.246 508.75 142.903 508.75 140.422V139.777H504.824V138.488H514.18V139.777H510.293V140.402ZM530.254 138.274C530.254 140.481 533.418 142.414 536.465 142.863L535.859 144.055C533.193 143.625 530.566 142.238 529.472 140.266C528.359 142.258 525.713 143.625 523.047 144.055L522.461 142.863C525.527 142.414 528.672 140.519 528.672 138.274V137.453H530.254V138.274ZM537.363 145.441V146.711H530.195V148.938H535.41V154.582H533.867V150.188H523.3V148.938H528.691V146.711H521.543V145.441H537.363ZM549.785 140.5C549.785 142.922 551.543 145.207 554.082 146.125L553.222 147.316C551.318 146.555 549.805 145.041 549.062 143.156C548.32 145.256 546.738 146.926 544.687 147.746L543.867 146.496C546.465 145.539 548.262 143.118 548.281 140.441V138.293H549.785V140.5ZM558.242 137.238V150.246H556.699V142.609H552.832V141.32H556.699V137.238H558.242ZM558.632 152.922V154.211H547.012V148.762H548.555V152.922H558.632ZM566.309 140.676C566.309 142.59 567.656 144.543 569.882 145.382L569.082 146.555C567.412 145.91 566.211 144.67 565.586 143.176C564.941 144.836 563.701 146.311 561.992 147.043L561.152 145.851C563.437 144.856 564.844 142.609 564.844 140.676V138.312H566.309V140.676ZM575.879 137.238V147.961H574.414V143.176H572.109V147.414H570.664V137.57H572.109V141.906H574.414V137.238H575.879ZM570.137 148.351C573.73 148.351 575.976 149.484 575.976 151.457C575.976 153.41 573.73 154.543 570.137 154.543C566.524 154.543 564.297 153.41 564.316 151.457C564.297 149.484 566.524 148.351 570.137 148.351ZM570.137 149.524C567.48 149.524 565.82 150.246 565.84 151.457C565.82 152.649 567.48 153.351 570.137 153.351C572.774 153.351 574.434 152.649 574.453 151.457C574.434 150.246 572.774 149.524 570.137 149.524ZM592.734 137.219V147.082H591.23V137.219H592.734ZM581.055 138.254V144.445C583.925 144.436 586.504 144.24 589.257 143.644L589.492 144.934C586.562 145.519 583.925 145.734 580.918 145.754H579.512V138.254H581.055ZM592.734 147.882V154.348H581.465V147.882H592.734ZM582.969 149.113V153.098H591.23V149.113H582.969ZM601.387 138.488C604.121 138.488 606.055 140.149 606.055 142.57C606.055 144.992 604.121 146.652 601.387 146.652C598.652 146.652 596.68 144.992 596.699 142.57C596.68 140.149 598.652 138.488 601.387 138.488ZM601.387 139.836C599.531 139.836 598.184 140.949 598.203 142.57C598.184 144.191 599.531 145.305 601.387 145.305C603.222 145.305 604.55 144.191 604.55 142.57C604.55 140.949 603.222 139.836 601.387 139.836ZM609.941 137.219V154.621H608.418V137.219H609.941ZM595.8 149.484C599.004 149.484 603.418 149.465 607.265 148.899L607.382 150.031C603.418 150.774 599.14 150.793 596.015 150.793L595.8 149.484ZM627.637 139.152V140.051C627.619 141.418 627.619 143.722 627.131 146.945L625.587 146.809C626.056 143.899 626.094 141.789 626.094 140.402H618.809V139.152H627.637ZM623.086 144.113V149.387C625.012 149.318 626.981 149.191 628.787 148.976L628.869 150.129C625.212 150.695 621.132 150.774 618.027 150.754L617.832 149.484C618.974 149.474 620.244 149.465 621.582 149.426V144.113H623.086ZM631.406 137.219V144.484H634.219V145.812H631.406V154.582H629.881V137.219H631.406ZM649.1 137.961V143.82H643.962V146.047H651.112V147.297H635.294V146.047H642.444V143.82H637.344V137.961H649.1ZM638.85 139.191V142.59H647.575V139.191H638.85ZM649.162 149.113V154.582H647.619V150.344H637.05V149.113H649.162ZM660.487 138.351C664.119 138.351 666.837 140.246 666.837 143.118C666.837 146.008 664.119 147.902 660.487 147.882C656.856 147.902 654.137 146.008 654.137 143.118C654.137 140.246 656.856 138.351 660.487 138.351ZM660.487 139.601C657.694 139.582 655.587 141.047 655.606 143.118C655.587 145.226 657.694 146.632 660.487 146.632C663.262 146.632 665.35 145.226 665.35 143.118C665.35 141.047 663.262 139.582 660.487 139.601ZM668.475 150.988V152.277H652.575V150.988H668.475ZM685.762 151.144V152.434H669.862V151.144H677.012V147.863H671.856V142.512H682.244V139.777H671.819V138.507H683.75V143.762H673.381V146.594H684.162V147.863H678.512V151.144H685.762ZM699.319 147.512V151.379H695.256V153.215C697.469 153.205 698.625 153.137 700.075 152.882L700.256 154.055C698.612 154.368 697.362 154.387 694.762 154.387H693.825V150.266H697.85V148.684H693.75V147.512H699.319ZM707.287 148.371V149.543H699.925V148.371H702.831V146.945H704.319V148.371H707.287ZM703.594 150.168C705.256 150.168 706.525 150.988 706.525 152.375C706.525 153.722 705.256 154.543 703.594 154.543C701.912 154.543 700.662 153.722 700.662 152.375C700.662 150.988 701.912 150.168 703.594 150.168ZM703.594 151.184C702.619 151.184 701.95 151.652 701.95 152.375C701.95 153.078 702.619 153.507 703.594 153.507C704.531 153.507 705.194 153.078 705.212 152.375C705.194 151.652 704.531 151.184 703.594 151.184ZM700.075 137.434C703.944 137.434 706.212 138.488 706.212 140.441C706.212 142.268 704.231 143.312 700.8 143.449V144.757H707.987V146.007H692.169V144.757H699.3V143.449C695.906 143.302 693.925 142.258 693.925 140.441C693.925 138.488 696.212 137.434 700.075 137.434ZM700.075 138.606C697.187 138.625 695.506 139.289 695.525 140.441C695.506 141.613 697.187 142.277 700.075 142.277C702.95 142.277 704.65 141.613 704.65 140.441C704.65 139.289 702.95 138.625 700.075 138.606ZM725.275 146.379V147.629H709.45V146.379H725.275ZM723.512 152.922V154.211H711.506V149.152H713.05V152.922H723.512ZM717.362 137.844C721.094 137.824 723.494 139.113 723.494 141.281C723.494 143.449 721.094 144.738 717.362 144.738C713.594 144.738 711.212 143.449 711.212 141.281C711.212 139.113 713.594 137.824 717.362 137.844ZM717.362 139.074C714.569 139.074 712.775 139.914 712.794 141.281C712.775 142.649 714.569 143.488 717.362 143.488C720.137 143.488 721.931 142.649 721.931 141.281C721.931 139.914 720.137 139.074 717.362 139.074ZM746.15 137.238V148.996H744.612V143.41H740.8V142.121H744.612V137.238H746.15ZM740.725 138.606C740.7 143.059 737.737 146.262 732.737 147.863L732.05 146.632C736.2 145.354 738.762 142.941 739.081 139.856H732.912V138.606H740.725ZM741.269 148.274C741.269 150.813 744.044 152.707 747.112 153.254L746.462 154.484C743.906 153.986 741.55 152.649 740.525 150.618C739.462 152.658 737.081 154.016 734.494 154.524L733.869 153.312C736.931 152.785 739.744 150.832 739.762 148.274V147.473H741.269V148.274ZM764.862 146.379V147.629H749.044V146.379H764.862ZM763.106 152.922V154.211H751.094V149.152H752.637V152.922H763.106ZM756.95 137.844C760.681 137.824 763.087 139.113 763.087 141.281C763.087 143.449 760.681 144.738 756.95 144.738C753.181 144.738 750.8 143.449 750.8 141.281C750.8 139.113 753.181 137.824 756.95 137.844ZM756.95 139.074C754.162 139.074 752.362 139.914 752.381 141.281C752.362 142.649 754.162 143.488 756.95 143.488C759.725 143.488 761.525 142.649 761.525 141.281C761.525 139.914 759.725 139.074 756.95 139.074ZM769.1 148.918C769.119 146.301 769.925 145.5 771.269 144.68C772.069 144.191 772.694 143.41 772.694 142.316C772.694 140.988 771.662 140.149 770.369 140.149C769.256 140.149 768.144 140.812 768.025 142.414H766.25C766.35 140.051 768.144 138.664 770.369 138.664C772.812 138.664 774.412 140.246 774.412 142.394C774.412 143.918 773.694 144.992 772.481 145.734C771.269 146.476 770.819 147.219 770.781 148.918V149.016H769.1V148.918ZM770 153.118C769.319 153.118 768.731 152.551 768.75 151.848C768.731 151.164 769.319 150.598 770 150.598C770.681 150.598 771.25 151.164 771.25 151.848C771.25 152.551 770.681 153.118 770 153.118Z" fill="black"/>
</g>
<path d="M1094.38 579.875H1021.25C1017.8 579.875 1015 582.673 1015 586.125V608C1015 611.452 1017.8 614.25 1021.25 614.25H1094.38C1097.83 614.25 1100.62 611.452 1100.62 608V586.125C1100.62 582.673 1097.83 579.875 1094.38 579.875Z" fill="#265CFF"/>
<path d="M1039.09 591.004H1040.24V603.461H1039.09V591.004ZM1039.97 595.913H1042.28V596.875H1039.97V595.913ZM1031.21 599.405H1032.19C1034.48 599.405 1036.09 599.323 1037.95 598.979L1038.07 599.941C1036.16 600.299 1034.52 600.368 1032.19 600.368H1031.21V599.405ZM1031.21 592.214H1036.99V593.149H1032.34V599.831H1031.21V592.214ZM1048.94 591.293C1051.62 591.293 1053.32 592.173 1053.32 593.644C1053.32 595.115 1051.62 595.981 1048.94 595.981C1046.25 595.981 1044.57 595.115 1044.57 593.644C1044.57 592.173 1046.25 591.293 1048.94 591.293ZM1048.94 592.2C1046.97 592.2 1045.74 592.723 1045.74 593.644C1045.74 594.551 1046.97 595.088 1048.94 595.088C1050.91 595.088 1052.15 594.551 1052.15 593.644C1052.15 592.723 1050.91 592.2 1048.94 592.2ZM1044.7 599.185H1053.18V603.283H1044.7V599.185ZM1052.07 600.106H1045.82V602.361H1052.07V600.106ZM1043.32 597.054H1054.56V597.975H1043.32V597.054ZM1059.84 597.37H1071.1V598.305H1059.84V597.37ZM1064.98 597.948H1066.12V600.808H1064.98V597.948ZM1061.28 591.595H1069.64V595.968H1061.28V591.595ZM1068.51 592.516H1062.39V595.046H1068.51V592.516ZM1061.27 602.238H1069.85V603.173H1061.27V602.238ZM1061.27 599.611H1062.39V602.568H1061.27V599.611ZM1081.95 591.018H1083.05V603.448H1081.95V591.018ZM1077.42 595.473H1079.8V596.421H1077.42V595.473ZM1079.46 591.306H1080.53V602.815H1079.46V591.306ZM1075.03 592.943H1075.91V594.524C1075.91 597.246 1074.87 599.818 1073.04 600.973L1072.34 600.12C1074.07 599.075 1075.03 596.806 1075.03 594.524V592.943ZM1075.26 592.943H1076.14V594.524C1076.14 596.683 1077.08 598.841 1078.79 599.831L1078.08 600.67C1076.27 599.57 1075.26 597.123 1075.26 594.524V592.943ZM1072.68 592.461H1078.36V593.41H1072.68V592.461Z" fill="white"/>
<path d="M1000 579.875H961.875C958.423 579.875 955.625 582.673 955.625 586.125V606.75C955.625 610.202 958.423 613 961.875 613H1000C1003.45 613 1006.25 610.202 1006.25 606.75V586.125C1006.25 582.673 1003.45 579.875 1000 579.875Z" fill="#00EDA6"/>
<path d="M968.788 592.51H974.944V593.445H968.788V592.51ZM971.863 594.27C973.419 594.27 974.544 595.439 974.544 597.116C974.544 598.78 973.419 599.949 971.863 599.949C970.325 599.949 969.2 598.78 969.2 597.116C969.2 595.439 970.325 594.27 971.863 594.27ZM971.863 595.246C970.919 595.246 970.231 596.016 970.231 597.116C970.231 598.216 970.919 598.986 971.863 598.986C972.825 598.986 973.531 598.216 973.531 597.116C973.531 596.016 972.825 595.246 971.863 595.246ZM978.231 590.393H979.331V602.823H978.231V590.393ZM976.25 595.618H978.6V596.566H976.25V595.618ZM975.575 590.668H976.65V602.218H975.575V590.668ZM971.313 590.75H972.444V593.088H971.313V590.75ZM987.844 592.634H991.019V593.583H987.844V592.634ZM990.538 590.393H991.675V596.8H990.538V590.393ZM983.675 597.446H991.675V600.416H984.831V602.3H983.719V599.564H990.55V598.354H983.675V597.446ZM983.719 601.75H992.144V602.658H983.719V601.75ZM984.556 590.778H985.488V591.946C985.488 594.243 984.113 596.099 982.038 596.841L981.45 595.934C983.319 595.301 984.556 593.748 984.556 591.946V590.778ZM984.75 590.778H985.669V591.946C985.669 593.569 986.919 595.068 988.719 595.659L988.131 596.553C986.125 595.838 984.75 594.05 984.75 591.946V590.778Z" fill="white"/>
<path d="M1092.5 254.562H106.875C102.215 254.562 98.4375 258.34 98.4375 263V311.125C98.4375 315.785 102.215 319.562 106.875 319.562H1092.5C1097.16 319.562 1100.94 315.785 1100.94 311.125V263C1100.94 258.34 1097.16 254.562 1092.5 254.562Z" fill="#E4F9F3"/>
<path d="M1092.5 254.562H106.875C102.215 254.562 98.4375 258.34 98.4375 263V311.125C98.4375 315.785 102.215 319.562 106.875 319.562H1092.5C1097.16 319.562 1100.94 315.785 1100.94 311.125V263C1100.94 258.34 1097.16 254.562 1092.5 254.562Z" stroke="#FF3951" stroke-width="3"/>
<path d="M134.988 281.076V281.89C134.971 283.129 134.971 285.217 134.528 288.138L133.13 288.014C133.555 285.377 133.59 283.465 133.59 282.208H126.988V281.076H134.988ZM130.864 285.571V290.351C132.607 290.289 134.396 290.174 136.032 289.979L136.104 291.023C132.794 291.536 129.094 291.607 126.28 291.589L126.103 290.439C127.138 290.43 128.289 290.421 129.501 290.386V285.571H130.864ZM138.404 279.323V285.907H140.953V287.111H138.404V295.059H137.024V279.323H138.404ZM151.343 281.022V282.155H141.962V281.022H145.962V279.252H147.343V281.022H151.343ZM146.653 282.969C148.919 282.987 150.423 284.084 150.441 285.819C150.423 287.536 148.919 288.651 146.653 288.651C144.387 288.651 142.847 287.536 142.865 285.819C142.847 284.084 144.387 282.987 146.653 282.969ZM146.653 284.049C145.166 284.067 144.175 284.757 144.192 285.819C144.175 286.864 145.166 287.536 146.653 287.536C148.122 287.536 149.113 286.864 149.131 285.819C149.113 284.757 148.122 284.067 146.653 284.049ZM154.229 279.323V283.695H156.601V284.863H154.229V289.164H152.848V279.323H154.229ZM154.229 290.032V295.059H152.848V291.164H143.927V290.032H154.229Z" fill="black"/>
<path d="M1092.5 335.188H106.875C102.215 335.188 98.4375 338.965 98.4375 343.625V391.75C98.4375 396.41 102.215 400.188 106.875 400.188H1092.5C1097.16 400.188 1100.94 396.41 1100.94 391.75V343.625C1100.94 338.965 1097.16 335.188 1092.5 335.188Z" fill="#E4F9F3"/>
<path d="M1092.5 335.188H106.875C102.215 335.188 98.4375 338.965 98.4375 343.625V391.75C98.4375 396.41 102.215 400.188 106.875 400.188H1092.5C1097.16 400.188 1100.94 396.41 1100.94 391.75V343.625C1100.94 338.965 1097.16 335.188 1092.5 335.188Z" stroke="#68F665" stroke-width="3"/>
<path d="M131.537 364.179C131.537 366.958 133.377 369.808 135.608 370.904L134.758 372.02C133.024 371.108 131.572 369.25 130.882 367.064C130.174 369.391 128.687 371.374 126.917 372.321L126.032 371.206C128.333 370.073 130.156 367.046 130.174 364.179V361.311H131.537V364.179ZM138.44 359.948V366.338H141.077V367.542H138.44V375.684H137.059V359.948H138.44ZM154.83 359.948V375.684H153.45V359.948H154.83ZM142.015 371.489C143.36 371.48 144.9 371.471 146.494 371.418V369.701C144.609 369.498 143.378 368.427 143.396 366.851C143.378 365.081 144.9 363.931 147.166 363.931C149.432 363.931 150.972 365.081 150.972 366.851C150.972 368.409 149.75 369.48 147.892 369.683V371.365C149.414 371.303 150.954 371.188 152.405 370.993L152.512 372.055C149.007 372.622 145.148 372.674 142.227 372.674L142.015 371.489ZM151.998 361.895V363.028H142.352V361.895H146.494V359.966H147.892V361.895H151.998ZM147.166 365.011C145.715 365.011 144.688 365.754 144.688 366.851C144.688 367.949 145.715 368.657 147.166 368.639C148.635 368.657 149.644 367.949 149.644 366.851C149.644 365.754 148.635 365.011 147.166 365.011Z" fill="black"/>
<path d="M1092.5 414.875H106.875C101.697 414.875 97.5 419.072 97.5 424.25V472.375C97.5 477.553 101.697 481.75 106.875 481.75H1092.5C1097.68 481.75 1101.88 477.553 1101.88 472.375V424.25C1101.88 419.072 1097.68 414.875 1092.5 414.875Z" fill="#E4F9F3"/>
<path d="M134.988 442.326V443.14C134.971 444.379 134.971 446.467 134.528 449.388L133.13 449.264C133.555 446.627 133.59 444.715 133.59 443.458H126.988V442.326H134.988ZM130.864 446.821V451.601C132.607 451.539 134.396 451.424 136.032 451.229L136.104 452.273C132.794 452.786 129.094 452.857 126.28 452.839L126.103 451.689C127.138 451.68 128.289 451.671 129.501 451.636V446.821H130.864ZM138.404 440.573V447.157H140.953V448.361H138.404V456.309H137.024V440.573H138.404ZM151.343 442.272V443.405H141.962V442.272H145.962V440.502H147.343V442.272H151.343ZM146.653 444.219C148.919 444.237 150.423 445.334 150.441 447.069C150.423 448.786 148.919 449.901 146.653 449.901C144.387 449.901 142.847 448.786 142.865 447.069C142.847 445.334 144.387 444.237 146.653 444.219ZM146.653 445.299C145.166 445.317 144.175 446.007 144.192 447.069C144.175 448.114 145.166 448.786 146.653 448.786C148.122 448.786 149.113 448.114 149.131 447.069C149.113 446.007 148.122 445.317 146.653 445.299ZM154.229 440.573V444.945H156.601V446.113H154.229V450.414H152.848V440.573H154.229ZM154.229 451.282V456.309H152.848V452.414H143.927V451.282H154.229Z" fill="black"/>
<path d="M1092.5 495.5H106.875C101.697 495.5 97.5 499.697 97.5 504.875V553C97.5 558.178 101.697 562.375 106.875 562.375H1092.5C1097.68 562.375 1101.88 558.178 1101.88 553V504.875C1101.88 499.697 1097.68 495.5 1092.5 495.5Z" fill="#E4F9F3"/>
<path d="M136.863 522.951V523.765C136.846 525.004 136.846 527.092 136.403 530.013L135.005 529.889C135.43 527.252 135.465 525.34 135.465 524.083H128.863V522.951H136.863ZM132.739 527.446V532.226C134.482 532.164 136.271 532.049 137.907 531.854L137.979 532.898C134.669 533.411 130.969 533.482 128.155 533.464L127.978 532.314C129.013 532.305 130.164 532.296 131.376 532.261V527.446H132.739ZM140.279 521.198V527.782H142.828V528.986H140.279V536.934H138.899V521.198H140.279ZM153.218 522.897V524.03H143.837V522.897H147.837V521.127H149.218V522.897H153.218ZM148.528 524.844C150.794 524.862 152.298 525.959 152.316 527.694C152.298 529.411 150.794 530.526 148.528 530.526C146.262 530.526 144.722 529.411 144.74 527.694C144.722 525.959 146.262 524.862 148.528 524.844ZM148.528 525.924C147.041 525.942 146.05 526.632 146.067 527.694C146.05 528.739 147.041 529.411 148.528 529.411C149.997 529.411 150.988 528.739 151.006 527.694C150.988 526.632 149.997 525.942 148.528 525.924ZM156.104 521.198V525.57H158.476V526.738H156.104V531.039H154.723V521.198H156.104ZM156.104 531.907V536.934H154.723V533.039H145.802V531.907H156.104Z" fill="black"/>
<path d="M590.371 223.511V234.875H588.995V224.954H588.928L586.153 226.796V225.398L588.995 223.511H590.371ZM597.678 222.979L594.016 236.584H592.818L596.48 222.979H597.678ZM603.203 223.511V234.875H601.827V224.954H601.76L598.986 226.796V225.398L601.827 223.511H603.203ZM610.023 235.03C609.371 235.03 608.785 234.9 608.263 234.642C607.742 234.383 607.324 234.028 607.01 233.577C606.695 233.125 606.523 232.611 606.493 232.034H607.825C607.877 232.548 608.11 232.974 608.525 233.31C608.942 233.643 609.441 233.809 610.023 233.809C610.488 233.809 610.903 233.7 611.265 233.482C611.631 233.264 611.918 232.964 612.125 232.583C612.336 232.199 612.441 231.764 612.441 231.279C612.441 230.784 612.333 230.342 612.115 229.953C611.9 229.561 611.604 229.252 611.226 229.027C610.849 228.801 610.418 228.686 609.934 228.682C609.586 228.679 609.229 228.732 608.863 228.844C608.496 228.95 608.195 229.089 607.958 229.26L606.671 229.104L607.359 223.511H613.263V224.732H608.513L608.114 228.084H608.18C608.413 227.899 608.706 227.745 609.057 227.623C609.408 227.5 609.775 227.44 610.156 227.44C610.851 227.44 611.471 227.606 612.015 227.939C612.562 228.268 612.991 228.72 613.301 229.293C613.616 229.866 613.773 230.521 613.773 231.257C613.773 231.982 613.611 232.629 613.285 233.199C612.963 233.765 612.52 234.213 611.953 234.542C611.388 234.867 610.744 235.03 610.023 235.03Z" fill="#50555C"/>
</g>
</g>
<rect x="0.5" y="1" width="1199" height="639" stroke="black"/>
<defs>
<filter id="filter0_d_3033_2219" x="-4" y="0.5" width="1208" height="51.75" filterUnits="userSpaceOnUse" color-interpolation-filters="sRGB">
<feFlood flood-opacity="0" result="BackgroundImageFix"/>
<feColorMatrix in="SourceAlpha" type="matrix" values="0 0 0 0 0 0 0 0 0 0 0 0 0 0 0 0 0 0 127 0" result="hardAlpha"/>
<feOffset dy="4"/>
<feGaussianBlur stdDeviation="2"/>
<feComposite in2="hardAlpha" operator="out"/>
<feColorMatrix type="matrix" values="0 0 0 0 0.748333 0 0 0 0 0.748333 0 0 0 0 0.748333 0 0 0 0.25 0"/>
<feBlend mode="normal" in2="BackgroundImageFix" result="effect1_dropShadow_3033_2219"/>
<feBlend mode="normal" in="SourceGraphic" in2="effect1_dropShadow_3033_2219" result="shape"/>
</filter>
<filter id="filter1_d_3033_2219" x="1031" y="11.125" width="79.25" height="30.5" filterUnits="userSpaceOnUse" color-interpolation-filters="sRGB">
<feFlood flood-opacity="0" result="BackgroundImageFix"/>
<feColorMatrix in="SourceAlpha" type="matrix" values="0 0 0 0 0 0 0 0 0 0 0 0 0 0 0 0 0 0 127 0" result="hardAlpha"/>
<feOffset dy="4"/>
<feGaussianBlur stdDeviation="2"/>
<feComposite in2="hardAlpha" operator="out"/>
<feColorMatrix type="matrix" values="0 0 0 0 0.62 0 0 0 0 0.62 0 0 0 0 0.62 0 0 0 0.25 0"/>
<feBlend mode="normal" in2="BackgroundImageFix" result="effect1_dropShadow_3033_2219"/>
<feBlend mode="normal" in="SourceGraphic" in2="effect1_dropShadow_3033_2219" result="shape"/>
</filter>
<filter id="filter2_i_3033_2219" x="94.375" y="85.5" width="1011.25" height="120.625" filterUnits="userSpaceOnUse" color-interpolation-filters="sRGB">
<feFlood flood-opacity="0" result="BackgroundImageFix"/>
<feBlend mode="normal" in="SourceGraphic" in2="BackgroundImageFix" result="shape"/>
<feColorMatrix in="SourceAlpha" type="matrix" values="0 0 0 0 0 0 0 0 0 0 0 0 0 0 0 0 0 0 127 0" result="hardAlpha"/>
<feOffset/>
<feGaussianBlur stdDeviation="5"/>
<feComposite in2="hardAlpha" operator="arithmetic" k2="-1" k3="1"/>
<feColorMatrix type="matrix" values="0 0 0 0 0.404167 0 0 0 0 0.404167 0 0 0 0 0.404167 0 0 0 0.25 0"/>
<feBlend mode="normal" in2="shape" result="effect1_innerShadow_3033_2219"/>
</filter>
<clipPath id="clip0_3033_2219">
<rect y="0.5" width="1200" height="640" fill="white"/>
</clipPath>
</defs>
</svg>
