<svg width="1200" height="640" viewBox="0 0 1200 640" fill="none" xmlns="http://www.w3.org/2000/svg">
<g clip-path="url(#clip0_3033_2174)">
<mask id="mask0_3033_2174" style="mask-type:luminance" maskUnits="userSpaceOnUse" x="0" y="0" width="1200" height="640">
<path d="M1200 0H0V640H1200V0Z" fill="white"/>
</mask>
<g mask="url(#mask0_3033_2174)">
<path d="M1200 0H0V640H1200V0Z" fill="#F8F8F8"/>
<g filter="url(#filter0_d_3033_2174)">
<path d="M1200 0H0V43.75H1200V0Z" fill="white"/>
<path d="M31.6375 26.9375C30.0458 26.9375 28.8125 26.5583 27.9375 25.8C27.0625 25.0333 26.625 23.9 26.625 22.4C26.625 20.9083 27.0625 19.7833 27.9375 19.025C28.8125 18.2583 30.075 17.875 31.725 17.875H33.975C35.625 17.875 36.8875 18.2583 37.7625 19.025C38.6375 19.7833 39.075 20.9083 39.075 22.4C39.075 23.9 38.6375 25.0333 37.7625 25.8C36.8875 26.5583 35.6458 26.9375 34.0375 26.9375H33.875V28.25H31.875V26.9375H31.6375ZM33.875 23.75V25.3125C34.95 25.3042 35.7458 25.0708 36.2625 24.6125C36.7792 24.1542 37.0375 23.4167 37.0375 22.4C37.0375 21.3833 36.775 20.6458 36.25 20.1875C35.7333 19.7292 34.9292 19.5 33.8375 19.5H31.8625C30.7792 19.5 29.975 19.7292 29.45 20.1875C28.925 20.6458 28.6625 21.3833 28.6625 22.4C28.6625 23.4167 28.925 24.1583 29.45 24.625C29.975 25.0833 30.7833 25.3125 31.875 25.3125V23.75H33.875ZM39.9458 23.95V22.5125H43.7708V23.95H39.9458ZM44.9551 26.875V20.4375H46.7676V26.875H44.9551ZM44.9426 19.375V17.9625H46.7801V19.375H44.9426ZM48.1411 26.875V20.4375H53.7536C54.4869 20.4375 55.0203 20.6208 55.3536 20.9875C55.6953 21.3458 55.8661 21.8208 55.8661 22.4125V26.875H54.0536V22.625C54.0536 22.125 53.8036 21.875 53.3036 21.875H49.9536V26.875H48.1411ZM60.5243 26.875C59.7993 26.875 59.266 26.6958 58.9243 26.3375C58.5826 25.9708 58.4118 25.4917 58.4118 24.9V21.875H56.5493V20.4375H58.4118V18.4625H60.2243V20.4375H62.8994V21.875H60.2243V24.675C60.2243 25.1833 60.4743 25.4375 60.9743 25.4375H63.2494V26.875H60.5243Z" fill="black"/>
<path d="M956 18.2398V23.136H952.5V18.2398H956ZM953.15 18.7781V22.5891H955.338V18.7781H953.15ZM958.063 17.4707V20.5041H959.337V21.0852H958.063V25.0671H957.394V17.4707H958.063ZM966.006 17.4707V25.0843H965.331V17.4707H966.006ZM961.969 18.0603C963.094 18.0689 963.906 19.0943 963.906 20.7093C963.906 22.3243 963.094 23.3496 961.969 23.3496C960.831 23.3496 960.025 22.3243 960.025 20.7093C960.025 19.0943 960.831 18.0689 961.969 18.0603ZM961.969 18.6585C961.206 18.667 960.675 19.4702 960.675 20.7093C960.675 21.9483 961.206 22.7515 961.969 22.7515C962.725 22.7515 963.256 21.9483 963.256 20.7093C963.256 19.4702 962.725 18.667 961.969 18.6585ZM976.038 17.4707V25.0671H975.387V17.4707H976.038ZM974.556 17.6587V24.6655H973.913V20.9656H972.85V20.3589H973.913V17.6587H974.556ZM973.075 18.4448V19.0003H972.431V22.5122C972.719 22.4951 972.994 22.4695 973.244 22.4353L973.288 22.931C972.094 23.1531 970.494 23.1873 969.506 23.1873L969.419 22.6148L970.219 22.6062V19.0003H969.581V18.4448H973.075ZM970.837 22.5976C971.15 22.5891 971.488 22.5763 971.813 22.555V19.0003H970.837V22.5976ZM983.331 17.4707V25.0843H982.656V17.4707H983.331ZM979.287 18.0603C980.412 18.0689 981.225 19.0943 981.225 20.7093C981.225 22.3243 980.412 23.3496 979.287 23.3496C978.15 23.3496 977.35 22.3243 977.35 20.7093C977.35 19.0943 978.15 18.0689 979.287 18.0603ZM979.287 18.6585C978.525 18.667 977.994 19.4702 977.994 20.7093C977.994 21.9483 978.525 22.7515 979.287 22.7515C980.05 22.7515 980.575 21.9483 980.575 20.7093C980.575 19.4702 980.05 18.667 979.287 18.6585ZM987.344 19.8035C987.344 21.0938 988.288 22.4011 989.406 22.8882L989.031 23.418C988.137 23.0121 987.369 22.1363 987.019 21.0852C986.662 22.2003 985.894 23.1702 985.031 23.606L984.625 23.0762C985.713 22.555 986.663 21.1194 986.669 19.8035V18.8123H984.875V18.2568H989.156V18.8123H987.344V19.8035ZM990.894 17.4707V25.0671H990.219V17.4707H990.894Z" fill="black"/>
<g filter="url(#filter1_d_3033_2174)">
<path d="M1103.12 10.625H1038.12C1036.4 10.625 1035 12.0241 1035 13.75V30C1035 31.7259 1036.4 33.125 1038.12 33.125H1103.12C1104.85 33.125 1106.25 31.7259 1106.25 30V13.75C1106.25 12.0241 1104.85 10.625 1103.12 10.625Z" fill="#00EDA6"/>
<path d="M1062.37 22.9962V23.5199H1055.91V22.9962H1058.81V21.6632H1056.72V19.4891H1060.94V18.3783H1056.71V17.8626H1061.55V19.9969H1057.34V21.1474H1061.72V21.6632H1059.43V22.9962H1062.37ZM1068.49 18.0926V18.7988C1068.49 19.6875 1068.49 20.6952 1068.23 22.2266L1067.6 22.1631C1067.88 20.719 1067.88 19.6637 1067.88 18.7988V18.6084H1063.63V18.0926H1068.49ZM1069.36 22.8375V23.3532H1062.93V22.8375H1069.36ZM1071.84 17.8864C1072.88 17.8943 1073.62 18.8464 1073.63 20.3461C1073.62 21.8457 1072.88 22.7979 1071.84 22.7979C1070.79 22.7979 1070.07 21.8457 1070.07 20.3461C1070.07 18.8464 1070.79 17.8943 1071.84 17.8864ZM1071.84 18.4417C1071.14 18.4497 1070.65 19.1956 1070.65 20.3461C1070.65 21.4966 1071.14 22.2424 1071.84 22.2424C1072.55 22.2424 1073.03 21.4966 1073.03 20.3461C1073.03 19.1956 1072.55 18.4497 1071.84 18.4417ZM1075.41 17.3389V20.1556H1076.59V20.6952H1075.41V24.3927H1074.79V17.3389H1075.41ZM1083.43 20.5603V21.0999H1080.48V21.8695H1079.88V21.0999H1076.98V20.5603H1083.43ZM1080.49 22.417C1080.49 23.1946 1081.64 23.7579 1082.91 23.8849L1082.71 24.3609C1081.6 24.2419 1080.59 23.8135 1080.18 23.1311C1079.76 23.8056 1078.76 24.2419 1077.65 24.3609L1077.44 23.8849C1078.71 23.7579 1079.86 23.1866 1079.86 22.417V22.1869H1080.49V22.417ZM1080.19 17.4579C1081.74 17.4579 1082.68 17.9181 1082.68 18.7433C1082.68 19.5606 1081.74 20.0366 1080.19 20.0287C1078.64 20.0366 1077.69 19.5606 1077.69 18.7433C1077.69 17.9181 1078.64 17.4579 1080.19 17.4579ZM1080.19 17.9339C1079.04 17.926 1078.33 18.2355 1078.33 18.7433C1078.33 19.2432 1079.04 19.5447 1080.19 19.5447C1081.33 19.5447 1082.05 19.2432 1082.05 18.7433C1082.05 18.2355 1081.33 17.926 1080.19 17.9339Z" fill="black"/>
</g>
</g>
<g filter="url(#filter2_i_3033_2174)">
<path d="M1099.38 85H100.625C97.1732 85 94.375 87.7982 94.375 91.25V199.375C94.375 202.827 97.1732 205.625 100.625 205.625H1099.38C1102.83 205.625 1105.62 202.827 1105.62 199.375V91.25C1105.62 87.7982 1102.83 85 1099.38 85Z" fill="white"/>
<path d="M438.515 136.719V143.594H441.425V144.882H438.515V154.121H436.992V136.719H438.515ZM433.945 138.418V139.688H427.363V148.476C430.507 148.476 432.734 148.33 435.312 147.851L435.507 149.18C432.793 149.668 430.507 149.766 427.207 149.766H425.84V138.418H433.945ZM450.274 137.109C454.043 137.109 456.406 138.32 456.406 140.41C456.406 142.461 454.043 143.652 450.274 143.652C446.504 143.652 444.121 142.461 444.121 140.41C444.121 138.32 446.504 137.109 450.274 137.109ZM450.274 138.34C447.461 138.34 445.684 139.121 445.703 140.41C445.684 141.68 447.461 142.422 450.274 142.441C453.047 142.422 454.844 141.68 454.844 140.41C454.844 139.121 453.047 138.34 450.274 138.34ZM456.25 148.144V153.848H444.297V148.144H456.25ZM445.82 149.375V152.598H454.746V149.375H445.82ZM458.184 145.156V146.426H442.363V145.156H458.184ZM480.488 144.844V146.113H473.32V147.969C476.601 148.106 478.535 149.18 478.555 151.016C478.535 152.949 476.309 154.043 472.578 154.043C468.809 154.043 466.582 152.949 466.582 151.016C466.582 149.18 468.505 148.106 471.816 147.969V146.113H464.668V144.844H480.488ZM472.578 149.141C469.785 149.16 468.125 149.844 468.144 151.016C468.125 152.168 469.785 152.851 472.578 152.851C475.332 152.851 477.012 152.168 477.012 151.016C477.012 149.844 475.332 149.16 472.578 149.141ZM479.082 137.539V138.789H473.574C473.672 140.742 476.543 142.256 479.609 142.578L479.043 143.789C476.201 143.447 473.535 142.177 472.578 140.234C471.63 142.177 468.974 143.447 466.113 143.789L465.566 142.578C468.574 142.256 471.465 140.742 471.582 138.789H466.113V137.539H479.082ZM494.882 137.851C498.574 137.871 501.23 139.668 501.23 142.402C501.23 144.99 498.925 146.709 495.625 146.914V150.566H502.871V151.856H486.972V150.566H494.121V146.914C490.83 146.699 488.535 144.981 488.535 142.402C488.535 139.668 491.191 137.871 494.882 137.851ZM494.882 139.121C492.07 139.121 490.019 140.449 490.019 142.402C490.019 144.414 492.07 145.703 494.882 145.723C497.695 145.703 499.746 144.414 499.746 142.402C499.746 140.449 497.695 139.121 494.882 139.121ZM518.652 136.719V147.07H517.109V142.519H513.613V141.25H517.109V136.719H518.652ZM512.89 147.618C516.504 147.618 518.711 148.789 518.711 150.84C518.711 152.891 516.504 154.063 512.89 154.082C509.277 154.063 507.07 152.891 507.07 150.84C507.07 148.789 509.277 147.618 512.89 147.618ZM512.89 148.809C510.234 148.809 508.574 149.57 508.594 150.84C508.574 152.09 510.234 152.851 512.89 152.851C515.547 152.851 517.187 152.09 517.187 150.84C517.187 149.57 515.547 148.809 512.89 148.809ZM510.293 139.902C510.293 142.168 512.031 144.316 514.57 145.195L513.769 146.426C511.816 145.723 510.302 144.268 509.57 142.461C508.809 144.502 507.197 146.132 505.137 146.914L504.336 145.684C506.914 144.746 508.75 142.403 508.75 139.922V139.277H504.824V137.988H514.18V139.277H510.293V139.902ZM530.254 137.774C530.254 139.981 533.418 141.914 536.465 142.363L535.859 143.555C533.193 143.125 530.566 141.738 529.472 139.766C528.359 141.758 525.713 143.125 523.047 143.555L522.461 142.363C525.527 141.914 528.672 140.019 528.672 137.774V136.953H530.254V137.774ZM537.363 144.941V146.211H530.195V148.438H535.41V154.082H533.867V149.688H523.3V148.438H528.691V146.211H521.543V144.941H537.363ZM549.785 140C549.785 142.422 551.543 144.707 554.082 145.625L553.222 146.816C551.318 146.055 549.805 144.541 549.062 142.656C548.32 144.756 546.738 146.426 544.687 147.246L543.867 145.996C546.465 145.039 548.262 142.618 548.281 139.941V137.793H549.785V140ZM558.242 136.738V149.746H556.699V142.109H552.832V140.82H556.699V136.738H558.242ZM558.632 152.422V153.711H547.012V148.262H548.555V152.422H558.632ZM566.309 140.176C566.309 142.09 567.656 144.043 569.882 144.882L569.082 146.055C567.412 145.41 566.211 144.17 565.586 142.676C564.941 144.336 563.701 145.811 561.992 146.543L561.152 145.351C563.437 144.356 564.844 142.109 564.844 140.176V137.812H566.309V140.176ZM575.879 136.738V147.461H574.414V142.676H572.109V146.914H570.664V137.07H572.109V141.406H574.414V136.738H575.879ZM570.137 147.851C573.73 147.851 575.976 148.984 575.976 150.957C575.976 152.91 573.73 154.043 570.137 154.043C566.524 154.043 564.297 152.91 564.316 150.957C564.297 148.984 566.524 147.851 570.137 147.851ZM570.137 149.024C567.48 149.024 565.82 149.746 565.84 150.957C565.82 152.149 567.48 152.851 570.137 152.851C572.774 152.851 574.434 152.149 574.453 150.957C574.434 149.746 572.774 149.024 570.137 149.024ZM592.734 136.719V146.582H591.23V136.719H592.734ZM581.055 137.754V143.945C583.925 143.936 586.504 143.74 589.257 143.144L589.492 144.434C586.562 145.019 583.925 145.234 580.918 145.254H579.512V137.754H581.055ZM592.734 147.382V153.848H581.465V147.382H592.734ZM582.969 148.613V152.598H591.23V148.613H582.969ZM601.387 137.988C604.121 137.988 606.055 139.649 606.055 142.07C606.055 144.492 604.121 146.152 601.387 146.152C598.652 146.152 596.68 144.492 596.699 142.07C596.68 139.649 598.652 137.988 601.387 137.988ZM601.387 139.336C599.531 139.336 598.184 140.449 598.203 142.07C598.184 143.691 599.531 144.805 601.387 144.805C603.222 144.805 604.55 143.691 604.55 142.07C604.55 140.449 603.222 139.336 601.387 139.336ZM609.941 136.719V154.121H608.418V136.719H609.941ZM595.8 148.984C599.004 148.984 603.418 148.965 607.265 148.399L607.382 149.531C603.418 150.274 599.14 150.293 596.015 150.293L595.8 148.984ZM627.637 138.652V139.551C627.619 140.918 627.619 143.222 627.131 146.445L625.587 146.309C626.056 143.399 626.094 141.289 626.094 139.902H618.809V138.652H627.637ZM623.086 143.613V148.887C625.012 148.818 626.981 148.691 628.787 148.476L628.869 149.629C625.212 150.195 621.132 150.274 618.027 150.254L617.832 148.984C618.974 148.974 620.244 148.965 621.582 148.926V143.613H623.086ZM631.406 136.719V143.984H634.219V145.312H631.406V154.082H629.881V136.719H631.406ZM649.1 137.461V143.32H643.962V145.547H651.112V146.797H635.294V145.547H642.444V143.32H637.344V137.461H649.1ZM638.85 138.691V142.09H647.575V138.691H638.85ZM649.162 148.613V154.082H647.619V149.844H637.05V148.613H649.162ZM660.487 137.851C664.119 137.851 666.837 139.746 666.837 142.618C666.837 145.508 664.119 147.402 660.487 147.382C656.856 147.402 654.137 145.508 654.137 142.618C654.137 139.746 656.856 137.851 660.487 137.851ZM660.487 139.101C657.694 139.082 655.587 140.547 655.606 142.618C655.587 144.726 657.694 146.132 660.487 146.132C663.262 146.132 665.35 144.726 665.35 142.618C665.35 140.547 663.262 139.082 660.487 139.101ZM668.475 150.488V151.777H652.575V150.488H668.475ZM685.762 150.644V151.934H669.862V150.644H677.012V147.363H671.856V142.012H682.244V139.277H671.819V138.007H683.75V143.262H673.381V146.094H684.162V147.363H678.512V150.644H685.762ZM699.319 147.012V150.879H695.256V152.715C697.469 152.705 698.625 152.637 700.075 152.382L700.256 153.555C698.612 153.868 697.362 153.887 694.762 153.887H693.825V149.766H697.85V148.184H693.75V147.012H699.319ZM707.287 147.871V149.043H699.925V147.871H702.831V146.445H704.319V147.871H707.287ZM703.594 149.668C705.256 149.668 706.525 150.488 706.525 151.875C706.525 153.222 705.256 154.043 703.594 154.043C701.912 154.043 700.662 153.222 700.662 151.875C700.662 150.488 701.912 149.668 703.594 149.668ZM703.594 150.684C702.619 150.684 701.95 151.152 701.95 151.875C701.95 152.578 702.619 153.007 703.594 153.007C704.531 153.007 705.194 152.578 705.212 151.875C705.194 151.152 704.531 150.684 703.594 150.684ZM700.075 136.934C703.944 136.934 706.212 137.988 706.212 139.941C706.212 141.768 704.231 142.812 700.8 142.949V144.257H707.987V145.507H692.169V144.257H699.3V142.949C695.906 142.802 693.925 141.758 693.925 139.941C693.925 137.988 696.212 136.934 700.075 136.934ZM700.075 138.106C697.187 138.125 695.506 138.789 695.525 139.941C695.506 141.113 697.187 141.777 700.075 141.777C702.95 141.777 704.65 141.113 704.65 139.941C704.65 138.789 702.95 138.125 700.075 138.106ZM725.275 145.879V147.129H709.45V145.879H725.275ZM723.512 152.422V153.711H711.506V148.652H713.05V152.422H723.512ZM717.362 137.344C721.094 137.324 723.494 138.613 723.494 140.781C723.494 142.949 721.094 144.238 717.362 144.238C713.594 144.238 711.212 142.949 711.212 140.781C711.212 138.613 713.594 137.324 717.362 137.344ZM717.362 138.574C714.569 138.574 712.775 139.414 712.794 140.781C712.775 142.149 714.569 142.988 717.362 142.988C720.137 142.988 721.931 142.149 721.931 140.781C721.931 139.414 720.137 138.574 717.362 138.574ZM746.15 136.738V148.496H744.612V142.91H740.8V141.621H744.612V136.738H746.15ZM740.725 138.106C740.7 142.559 737.737 145.762 732.737 147.363L732.05 146.132C736.2 144.854 738.762 142.441 739.081 139.356H732.912V138.106H740.725ZM741.269 147.774C741.269 150.313 744.044 152.207 747.112 152.754L746.462 153.984C743.906 153.486 741.55 152.149 740.525 150.118C739.462 152.158 737.081 153.516 734.494 154.024L733.869 152.812C736.931 152.285 739.744 150.332 739.762 147.774V146.973H741.269V147.774ZM764.862 145.879V147.129H749.044V145.879H764.862ZM763.106 152.422V153.711H751.094V148.652H752.637V152.422H763.106ZM756.95 137.344C760.681 137.324 763.087 138.613 763.087 140.781C763.087 142.949 760.681 144.238 756.95 144.238C753.181 144.238 750.8 142.949 750.8 140.781C750.8 138.613 753.181 137.324 756.95 137.344ZM756.95 138.574C754.162 138.574 752.362 139.414 752.381 140.781C752.362 142.149 754.162 142.988 756.95 142.988C759.725 142.988 761.525 142.149 761.525 140.781C761.525 139.414 759.725 138.574 756.95 138.574ZM769.1 148.418C769.119 145.801 769.925 145 771.269 144.18C772.069 143.691 772.694 142.91 772.694 141.816C772.694 140.488 771.662 139.649 770.369 139.649C769.256 139.649 768.144 140.312 768.025 141.914H766.25C766.35 139.551 768.144 138.164 770.369 138.164C772.812 138.164 774.412 139.746 774.412 141.894C774.412 143.418 773.694 144.492 772.481 145.234C771.269 145.976 770.819 146.719 770.781 148.418V148.516H769.1V148.418ZM770 152.618C769.319 152.618 768.731 152.051 768.75 151.348C768.731 150.664 769.319 150.098 770 150.098C770.681 150.098 771.25 150.664 771.25 151.348C771.25 152.051 770.681 152.618 770 152.618Z" fill="black"/>
</g>
<path d="M1094.38 579.375H1021.25C1017.8 579.375 1015 582.173 1015 585.625V607.5C1015 610.952 1017.8 613.75 1021.25 613.75H1094.38C1097.83 613.75 1100.62 610.952 1100.62 607.5V585.625C1100.62 582.173 1097.83 579.375 1094.38 579.375Z" fill="#265CFF"/>
<path d="M1039.09 590.504H1040.24V602.961H1039.09V590.504ZM1039.97 595.413H1042.28V596.375H1039.97V595.413ZM1031.21 598.905H1032.19C1034.48 598.905 1036.09 598.823 1037.95 598.479L1038.07 599.441C1036.16 599.799 1034.52 599.868 1032.19 599.868H1031.21V598.905ZM1031.21 591.714H1036.99V592.649H1032.34V599.331H1031.21V591.714ZM1048.94 590.793C1051.62 590.793 1053.32 591.673 1053.32 593.144C1053.32 594.615 1051.62 595.481 1048.94 595.481C1046.25 595.481 1044.57 594.615 1044.57 593.144C1044.57 591.673 1046.25 590.793 1048.94 590.793ZM1048.94 591.7C1046.97 591.7 1045.74 592.223 1045.74 593.144C1045.74 594.051 1046.97 594.588 1048.94 594.588C1050.91 594.588 1052.15 594.051 1052.15 593.144C1052.15 592.223 1050.91 591.7 1048.94 591.7ZM1044.7 598.685H1053.18V602.783H1044.7V598.685ZM1052.07 599.606H1045.82V601.861H1052.07V599.606ZM1043.32 596.554H1054.56V597.475H1043.32V596.554ZM1059.84 596.87H1071.1V597.805H1059.84V596.87ZM1064.98 597.448H1066.12V600.308H1064.98V597.448ZM1061.28 591.095H1069.64V595.468H1061.28V591.095ZM1068.51 592.016H1062.39V594.546H1068.51V592.016ZM1061.27 601.738H1069.85V602.673H1061.27V601.738ZM1061.27 599.111H1062.39V602.068H1061.27V599.111ZM1081.95 590.518H1083.05V602.948H1081.95V590.518ZM1077.42 594.973H1079.8V595.921H1077.42V594.973ZM1079.46 590.806H1080.53V602.315H1079.46V590.806ZM1075.03 592.443H1075.91V594.024C1075.91 596.746 1074.87 599.318 1073.04 600.473L1072.34 599.62C1074.07 598.575 1075.03 596.306 1075.03 594.024V592.443ZM1075.26 592.443H1076.14V594.024C1076.14 596.183 1077.08 598.341 1078.79 599.331L1078.08 600.17C1076.27 599.07 1075.26 596.623 1075.26 594.024V592.443ZM1072.68 591.961H1078.36V592.91H1072.68V591.961Z" fill="white"/>
<path d="M1000 579.375H961.875C958.423 579.375 955.625 582.173 955.625 585.625V606.25C955.625 609.702 958.423 612.5 961.875 612.5H1000C1003.45 612.5 1006.25 609.702 1006.25 606.25V585.625C1006.25 582.173 1003.45 579.375 1000 579.375Z" fill="#00EDA6"/>
<path d="M968.788 592.01H974.944V592.945H968.788V592.01ZM971.863 593.77C973.419 593.77 974.544 594.939 974.544 596.616C974.544 598.28 973.419 599.449 971.863 599.449C970.325 599.449 969.2 598.28 969.2 596.616C969.2 594.939 970.325 593.77 971.863 593.77ZM971.863 594.746C970.919 594.746 970.231 595.516 970.231 596.616C970.231 597.716 970.919 598.486 971.863 598.486C972.825 598.486 973.531 597.716 973.531 596.616C973.531 595.516 972.825 594.746 971.863 594.746ZM978.231 589.893H979.331V602.323H978.231V589.893ZM976.25 595.118H978.6V596.066H976.25V595.118ZM975.575 590.168H976.65V601.718H975.575V590.168ZM971.313 590.25H972.444V592.588H971.313V590.25ZM987.844 592.134H991.019V593.083H987.844V592.134ZM990.538 589.893H991.675V596.3H990.538V589.893ZM983.675 596.946H991.675V599.916H984.831V601.8H983.719V599.064H990.55V597.854H983.675V596.946ZM983.719 601.25H992.144V602.158H983.719V601.25ZM984.556 590.278H985.488V591.446C985.488 593.743 984.113 595.599 982.038 596.341L981.45 595.434C983.319 594.801 984.556 593.248 984.556 591.446V590.278ZM984.75 590.278H985.669V591.446C985.669 593.069 986.919 594.568 988.719 595.159L988.131 596.053C986.125 595.338 984.75 593.55 984.75 591.446V590.278Z" fill="white"/>
<path d="M1092.5 254.062H106.875C102.215 254.062 98.4375 257.84 98.4375 262.5V310.625C98.4375 315.285 102.215 319.062 106.875 319.062H1092.5C1097.16 319.062 1100.94 315.285 1100.94 310.625V262.5C1100.94 257.84 1097.16 254.062 1092.5 254.062Z" fill="#E4F9F3"/>
<path d="M1092.5 254.062H106.875C102.215 254.062 98.4375 257.84 98.4375 262.5V310.625C98.4375 315.285 102.215 319.062 106.875 319.062H1092.5C1097.16 319.062 1100.94 315.285 1100.94 310.625V262.5C1100.94 257.84 1097.16 254.062 1092.5 254.062Z" stroke="#FF3951" stroke-width="3"/>
<path d="M134.988 280.576V281.39C134.971 282.629 134.971 284.718 134.528 287.639L133.13 287.514C133.555 284.877 133.59 282.965 133.59 281.709H126.988V280.576H134.988ZM130.864 285.072V289.851C132.607 289.789 134.396 289.674 136.032 289.479L136.104 290.524C132.794 291.037 129.094 291.107 126.28 291.09L126.103 289.939C127.138 289.93 128.289 289.922 129.501 289.886V285.072H130.864ZM138.404 278.824V285.408H140.953V286.612H138.404V294.559H137.024V278.824H138.404ZM151.343 280.523V281.655H141.962V280.523H145.962V278.753H147.343V280.523H151.343ZM146.653 282.47C148.919 282.487 150.423 283.585 150.441 285.32C150.423 287.037 148.919 288.152 146.653 288.152C144.387 288.152 142.847 287.037 142.865 285.32C142.847 283.585 144.387 282.487 146.653 282.47ZM146.653 283.55C145.166 283.567 144.175 284.258 144.192 285.32C144.175 286.364 145.166 287.037 146.653 287.037C148.122 287.037 149.113 286.364 149.131 285.32C149.113 284.258 148.122 283.567 146.653 283.55ZM154.229 278.824V283.195H156.601V284.364H154.229V288.665H152.848V278.824H154.229ZM154.229 289.532V294.559H152.848V290.665H143.927V289.532H154.229Z" fill="black"/>
<path d="M1092.5 334.688H106.875C102.215 334.688 98.4375 338.465 98.4375 343.125V391.25C98.4375 395.91 102.215 399.688 106.875 399.688H1092.5C1097.16 399.688 1100.94 395.91 1100.94 391.25V343.125C1100.94 338.465 1097.16 334.688 1092.5 334.688Z" fill="#E4F9F3"/>
<path d="M1092.5 334.688H106.875C102.215 334.688 98.4375 338.465 98.4375 343.125V391.25C98.4375 395.91 102.215 399.688 106.875 399.688H1092.5C1097.16 399.688 1100.94 395.91 1100.94 391.25V343.125C1100.94 338.465 1097.16 334.688 1092.5 334.688Z" stroke="#68F665" stroke-width="3"/>
<path d="M131.537 363.679C131.537 366.458 133.377 369.308 135.608 370.404L134.758 371.52C133.024 370.608 131.572 368.75 130.882 366.564C130.174 368.891 128.687 370.874 126.917 371.821L126.032 370.706C128.333 369.573 130.156 366.546 130.174 363.679V360.811H131.537V363.679ZM138.44 359.448V365.838H141.077V367.042H138.44V375.184H137.059V359.448H138.44ZM154.83 359.448V375.184H153.45V359.448H154.83ZM142.015 370.989C143.36 370.98 144.9 370.971 146.494 370.918V369.201C144.609 368.998 143.378 367.927 143.396 366.351C143.378 364.581 144.9 363.431 147.166 363.431C149.432 363.431 150.972 364.581 150.972 366.351C150.972 367.909 149.75 368.98 147.892 369.183V370.865C149.414 370.803 150.954 370.688 152.405 370.493L152.512 371.555C149.007 372.122 145.148 372.174 142.227 372.174L142.015 370.989ZM151.998 361.395V362.528H142.352V361.395H146.494V359.466H147.892V361.395H151.998ZM147.166 364.511C145.715 364.511 144.688 365.254 144.688 366.351C144.688 367.449 145.715 368.157 147.166 368.139C148.635 368.157 149.644 367.449 149.644 366.351C149.644 365.254 148.635 364.511 147.166 364.511Z" fill="black"/>
<path d="M1092.5 414.375H106.875C101.697 414.375 97.5 418.572 97.5 423.75V471.875C97.5 477.053 101.697 481.25 106.875 481.25H1092.5C1097.68 481.25 1101.88 477.053 1101.88 471.875V423.75C1101.88 418.572 1097.68 414.375 1092.5 414.375Z" fill="#E4F9F3"/>
<path d="M134.988 441.826V442.64C134.971 443.879 134.971 445.968 134.528 448.889L133.13 448.764C133.555 446.127 133.59 444.215 133.59 442.959H126.988V441.826H134.988ZM130.864 446.322V451.101C132.607 451.039 134.396 450.924 136.032 450.729L136.104 451.774C132.794 452.287 129.094 452.357 126.28 452.34L126.103 451.189C127.138 451.18 128.289 451.172 129.501 451.136V446.322H130.864ZM138.404 440.074V446.658H140.953V447.862H138.404V455.809H137.024V440.074H138.404ZM151.343 441.773V442.905H141.962V441.773H145.962V440.003H147.343V441.773H151.343ZM146.653 443.72C148.919 443.737 150.423 444.835 150.441 446.57C150.423 448.287 148.919 449.402 146.653 449.402C144.387 449.402 142.847 448.287 142.865 446.57C142.847 444.835 144.387 443.737 146.653 443.72ZM146.653 444.8C145.166 444.817 144.175 445.508 144.192 446.57C144.175 447.614 145.166 448.287 146.653 448.287C148.122 448.287 149.113 447.614 149.131 446.57C149.113 445.508 148.122 444.817 146.653 444.8ZM154.229 440.074V444.445H156.601V445.614H154.229V449.915H152.848V440.074H154.229ZM154.229 450.782V455.809H152.848V451.915H143.927V450.782H154.229Z" fill="black"/>
<path d="M1092.5 495H106.875C101.697 495 97.5 499.197 97.5 504.375V552.5C97.5 557.678 101.697 561.875 106.875 561.875H1092.5C1097.68 561.875 1101.88 557.678 1101.88 552.5V504.375C1101.88 499.197 1097.68 495 1092.5 495Z" fill="#E4F9F3"/>
<path d="M136.863 522.451V523.265C136.846 524.504 136.846 526.593 136.403 529.514L135.005 529.389C135.43 526.752 135.465 524.84 135.465 523.584H128.863V522.451H136.863ZM132.739 526.947V531.726C134.482 531.664 136.271 531.549 137.907 531.354L137.979 532.399C134.669 532.912 130.969 532.982 128.155 532.965L127.978 531.814C129.013 531.805 130.164 531.797 131.376 531.761V526.947H132.739ZM140.279 520.699V527.283H142.828V528.487H140.279V536.434H138.899V520.699H140.279ZM153.218 522.398V523.53H143.837V522.398H147.837V520.628H149.218V522.398H153.218ZM148.528 524.345C150.794 524.362 152.298 525.46 152.316 527.195C152.298 528.912 150.794 530.027 148.528 530.027C146.262 530.027 144.722 528.912 144.74 527.195C144.722 525.46 146.262 524.362 148.528 524.345ZM148.528 525.425C147.041 525.442 146.05 526.133 146.067 527.195C146.05 528.239 147.041 528.912 148.528 528.912C149.997 528.912 150.988 528.239 151.006 527.195C150.988 526.133 149.997 525.442 148.528 525.425ZM156.104 520.699V525.07H158.476V526.239H156.104V530.54H154.723V520.699H156.104ZM156.104 531.407V536.434H154.723V532.54H145.802V531.407H156.104Z" fill="black"/>
<path d="M590.371 223.011V234.375H588.995V224.454H588.928L586.153 226.296V224.898L588.995 223.011H590.371ZM597.678 222.479L594.016 236.084H592.818L596.48 222.479H597.678ZM603.203 223.011V234.375H601.827V224.454H601.76L598.986 226.296V224.898L601.827 223.011H603.203ZM610.023 234.53C609.371 234.53 608.785 234.4 608.263 234.142C607.742 233.883 607.324 233.528 607.01 233.077C606.695 232.625 606.523 232.111 606.493 231.534H607.825C607.877 232.048 608.11 232.474 608.525 232.81C608.942 233.143 609.441 233.309 610.023 233.309C610.488 233.309 610.903 233.2 611.265 232.982C611.631 232.764 611.918 232.464 612.125 232.083C612.336 231.699 612.441 231.264 612.441 230.779C612.441 230.284 612.333 229.842 612.115 229.453C611.9 229.061 611.604 228.752 611.226 228.527C610.849 228.301 610.418 228.186 609.934 228.182C609.586 228.179 609.229 228.232 608.863 228.344C608.496 228.45 608.195 228.589 607.958 228.76L606.671 228.604L607.359 223.011H613.263V224.232H608.513L608.114 227.584H608.18C608.413 227.399 608.706 227.245 609.057 227.123C609.408 227 609.775 226.94 610.156 226.94C610.851 226.94 611.471 227.106 612.015 227.439C612.562 227.768 612.991 228.22 613.301 228.793C613.616 229.366 613.773 230.021 613.773 230.757C613.773 231.482 613.611 232.129 613.285 232.699C612.963 233.265 612.52 233.713 611.953 234.042C611.388 234.367 610.744 234.53 610.023 234.53Z" fill="#50555C"/>
<path d="M1200 0H0V640H1200V0Z" fill="#50555C" fill-opacity="0.4"/>
<path d="M646.324 140.412H581.123C564.783 140.412 551.536 153.659 551.536 169.999C551.536 186.34 564.783 199.586 581.123 199.586H646.324C662.665 199.586 675.911 186.34 675.911 169.999C675.911 153.659 662.665 140.412 646.324 140.412Z" fill="white"/>
<path d="M646.324 140.412H581.123C564.783 140.412 551.536 153.659 551.536 169.999C551.536 186.34 564.783 199.586 581.123 199.586H646.324C662.665 199.586 675.911 186.34 675.911 169.999C675.911 153.659 662.665 140.412 646.324 140.412Z" stroke="black"/>
<path d="M569.101 168.701V169.346H567.695V173.916H566.934V165.234H567.695V168.701H569.101ZM562.099 166.094V171.064C563.369 171.059 564.663 170.962 566.094 170.664L566.191 171.318C564.697 171.621 563.349 171.709 562.031 171.709H561.338V166.094H562.099ZM572.461 165.869C573.828 165.869 574.795 166.699 574.795 167.91C574.795 169.121 573.828 169.951 572.461 169.951C571.094 169.951 570.107 169.121 570.117 167.91C570.107 166.699 571.094 165.869 572.461 165.869ZM572.461 166.543C571.533 166.543 570.859 167.099 570.869 167.91C570.859 168.721 571.533 169.277 572.461 169.277C573.379 169.277 574.043 168.721 574.043 167.91C574.043 167.099 573.379 166.543 572.461 166.543ZM576.738 165.234V173.936H575.976V165.234H576.738ZM569.668 171.367C571.269 171.367 573.476 171.357 575.4 171.074L575.459 171.641C573.476 172.012 571.338 172.021 569.775 172.021L569.668 171.367ZM587.969 165.234V170.41H587.197V168.135H585.449V167.5H587.197V165.234H587.969ZM585.088 170.684C586.894 170.684 587.998 171.269 587.998 172.295C587.998 173.32 586.894 173.906 585.088 173.916C583.281 173.906 582.177 173.32 582.177 172.295C582.177 171.269 583.281 170.684 585.088 170.684ZM585.088 171.279C583.76 171.279 582.93 171.66 582.939 172.295C582.93 172.92 583.76 173.301 585.088 173.301C586.416 173.301 587.236 172.92 587.236 172.295C587.236 171.66 586.416 171.279 585.088 171.279ZM583.789 166.826C583.789 167.959 584.658 169.033 585.927 169.473L585.527 170.088C584.55 169.736 583.794 169.009 583.427 168.106C583.047 169.126 582.241 169.941 581.211 170.332L580.81 169.717C582.099 169.248 583.017 168.076 583.017 166.836V166.514H581.055V165.869H585.732V166.514H583.789V166.826ZM593.369 165.801C595.215 165.811 596.543 166.709 596.543 168.076C596.543 169.37 595.39 170.229 593.74 170.332V172.158H597.363V172.803H589.414V172.158H592.988V170.332C591.342 170.224 590.195 169.365 590.195 168.076C590.195 166.709 591.524 165.811 593.369 165.801ZM593.369 166.436C591.963 166.436 590.937 167.099 590.937 168.076C590.937 169.082 591.963 169.726 593.369 169.736C594.775 169.726 595.8 169.082 595.8 168.076C595.8 167.099 594.775 166.436 593.369 166.436ZM604.844 165.234V167.276H606.152V167.92H604.844V169.863H604.082V165.234H604.844ZM602.314 165.811V166.445H599.229V168.926C600.972 168.926 601.963 168.872 603.125 168.633L603.222 169.268C602.002 169.512 600.967 169.57 599.14 169.57H598.467V165.811H602.314ZM600.107 170.332V171.416H604.082V170.332H604.844V173.769H599.345V170.332H600.107ZM600.107 173.135H604.082V172.031H600.107V173.135ZM610.654 165.391C612.588 165.391 613.72 165.918 613.72 166.885C613.72 167.871 612.588 168.399 610.654 168.408C608.72 168.399 607.578 167.871 607.578 166.885C607.578 165.918 608.72 165.391 610.654 165.391ZM610.654 165.967C609.209 165.967 608.369 166.318 608.379 166.885C608.369 167.49 609.209 167.822 610.654 167.822C612.09 167.822 612.939 167.49 612.939 166.885C612.939 166.318 612.09 165.967 610.654 165.967ZM614.609 168.994V169.619H606.699V168.994H614.609ZM613.594 170.371V172.314H608.437V173.213H613.857V173.818H607.675V171.748H612.842V170.957H607.656V170.371H613.594ZM624.639 165.234V167.119H625.95V167.764H624.639V169.658H623.877V165.234H624.639ZM624.639 170.068V172.188H619.873V173.184H624.961V173.799H619.121V171.601H623.877V170.684H619.101V170.068H624.639ZM620.274 165.557C621.582 165.566 622.529 166.347 622.529 167.481C622.529 168.623 621.582 169.414 620.274 169.414C618.974 169.414 618.007 168.623 618.017 167.481C618.007 166.347 618.974 165.566 620.274 165.557ZM620.274 166.201C619.404 166.191 618.76 166.729 618.769 167.481C618.76 168.242 619.404 168.789 620.274 168.789C621.142 168.789 621.777 168.242 621.777 167.481C621.777 166.729 621.142 166.191 620.274 166.201ZM633.362 166.045C633.362 167.266 634.962 168.33 636.525 168.545L636.212 169.17C634.862 168.945 633.531 168.198 632.969 167.129C632.412 168.203 631.075 168.945 629.725 169.17L629.412 168.545C630.975 168.33 632.569 167.285 632.569 166.045V165.547H633.362V166.045ZM636.912 170.127V170.771H633.319V173.916H632.569V170.771H629.006V170.127H636.912ZM643.093 171.064C643.093 171.831 643.506 172.646 644.337 173.115C645.156 172.603 645.593 171.738 645.593 171.064V170.586H646.35V171.064C646.35 171.953 647 172.851 648.112 173.232L647.737 173.799C646.862 173.491 646.256 172.886 645.956 172.158C645.687 172.861 645.156 173.526 644.356 173.867C643.512 173.545 642.975 172.905 642.712 172.178C642.406 172.881 641.806 173.486 640.975 173.799L640.587 173.232C641.681 172.822 642.344 171.894 642.356 171.064V170.586H643.093V171.064ZM647.325 165.244V170.205H646.562V165.244H647.325ZM642.637 165.752C643.956 165.752 644.912 166.573 644.912 167.783C644.912 168.974 643.956 169.795 642.637 169.795C641.319 169.795 640.362 168.974 640.362 167.783C640.362 166.573 641.319 165.752 642.637 165.752ZM642.637 166.406C641.75 166.396 641.106 166.973 641.112 167.783C641.106 168.584 641.75 169.151 642.637 169.16C643.512 169.151 644.162 168.584 644.162 167.783C644.162 166.973 643.512 166.396 642.637 166.406ZM651.131 165.908C652.312 165.918 653.162 166.929 653.294 168.555H655.237V165.234H655.993V173.936H655.237V169.189H653.3C653.206 170.889 652.344 171.953 651.131 171.953C649.856 171.953 648.956 170.781 648.956 168.936C648.956 167.09 649.856 165.918 651.131 165.908ZM651.131 166.592C650.275 166.601 649.687 167.519 649.687 168.936C649.687 170.351 650.275 171.269 651.131 171.269C651.981 171.269 652.575 170.351 652.575 168.936C652.575 167.519 651.981 166.601 651.131 166.592ZM665.387 172.158V172.803H657.444V172.158H659.412V169.814C658.675 169.429 658.225 168.804 658.225 168.018C658.225 166.67 659.544 165.791 661.394 165.781C663.25 165.791 664.569 166.67 664.569 168.018C664.569 168.789 664.137 169.409 663.419 169.795V172.158H665.387ZM661.394 166.416C659.969 166.406 658.962 167.051 658.962 168.018C658.962 168.984 659.969 169.639 661.394 169.639C662.812 169.639 663.825 168.984 663.825 168.018C663.825 167.051 662.812 166.406 661.394 166.416ZM660.169 172.158H662.644V170.088C662.269 170.191 661.85 170.244 661.394 170.244C660.95 170.244 660.537 170.195 660.169 170.098V172.158Z" fill="black"/>
<path d="M552.663 178.125L523.776 195.734" stroke="black"/>
<path d="M712.5 206.15H487.5C480.596 206.15 475 211.747 475 218.65V487.4C475 494.304 480.596 499.9 487.5 499.9H712.5C719.404 499.9 725 494.304 725 487.4V218.65C725 211.747 719.404 206.15 712.5 206.15Z" fill="white"/>
<path d="M502.284 261.539H489.924V260.547H502.284V261.539ZM496.684 260.99H495.509V258.854H496.684V260.99ZM496.684 255.375H495.509V253.482H496.684V255.375ZM496.501 255.695C496.501 256.407 496.254 257.033 495.761 257.572C495.267 258.111 494.609 258.544 493.785 258.869C492.961 259.194 492.04 259.413 491.023 259.525L490.641 258.594C491.526 258.513 492.335 258.34 493.067 258.076C493.8 257.811 494.38 257.476 494.807 257.069C495.234 256.662 495.448 256.204 495.448 255.695V255.466H496.501V255.695ZM496.76 255.695C496.76 256.204 496.974 256.662 497.401 257.069C497.828 257.476 498.406 257.811 499.133 258.076C499.861 258.34 500.666 258.513 501.551 258.594L501.185 259.525C500.178 259.413 499.26 259.194 498.431 258.869C497.602 258.544 496.941 258.111 496.447 257.572C495.954 257.033 495.707 256.407 495.707 255.695V255.466H496.76V255.695ZM501.032 255.817H491.206V254.841H501.032V255.817ZM496.104 262.562C497.091 262.562 497.93 262.648 498.622 262.821C499.314 262.994 499.845 263.248 500.216 263.584C500.587 263.919 500.773 264.327 500.773 264.805C500.773 265.282 500.59 265.69 500.224 266.026C499.857 266.361 499.326 266.616 498.629 266.788C497.932 266.961 497.091 267.047 496.104 267.047C495.127 267.047 494.288 266.961 493.586 266.788C492.884 266.616 492.348 266.361 491.977 266.026C491.606 265.69 491.419 265.282 491.419 264.805C491.419 264.327 491.606 263.919 491.977 263.584C492.348 263.248 492.884 262.994 493.586 262.821C494.288 262.648 495.127 262.562 496.104 262.562ZM496.104 263.462C495.382 263.462 494.759 263.512 494.235 263.614C493.711 263.716 493.314 263.869 493.045 264.072C492.775 264.276 492.641 264.52 492.641 264.805C492.641 265.089 492.775 265.329 493.045 265.522C493.314 265.715 493.709 265.862 494.227 265.964C494.746 266.066 495.372 266.117 496.104 266.117C496.826 266.117 497.447 266.066 497.966 265.964C498.484 265.862 498.881 265.715 499.156 265.522C499.431 265.329 499.568 265.089 499.568 264.805C499.568 264.52 499.431 264.276 499.156 264.072C498.881 263.869 498.484 263.716 497.966 263.614C497.447 263.512 496.826 263.462 496.104 263.462ZM519.755 261.447H507.334V260.456H519.755V261.447ZM514.232 264.225H513.041V261.066H514.232V264.225ZM518.138 258.899H508.952V254.184H518.138V258.899ZM510.127 257.938H516.947V255.131H510.127V257.938ZM518.367 266.788H508.921V265.781H518.367V266.788ZM510.127 266.132H508.921V262.882H510.127V266.132ZM532.451 267.078H531.306V253.513H532.451V267.078ZM528.941 259.388H526.286V258.411H528.941V259.388ZM529.704 266.376H528.575V253.849H529.704V266.376ZM524.622 257.389C524.622 258.366 524.493 259.309 524.234 260.219C523.974 261.13 523.608 261.946 523.135 262.669C522.662 263.391 522.1 263.955 521.449 264.362L520.686 263.462C521.306 263.096 521.843 262.595 522.296 261.959C522.749 261.323 523.092 260.609 523.326 259.815C523.56 259.022 523.677 258.213 523.677 257.389V255.619H524.622V257.389ZM524.836 257.389C524.836 258.172 524.951 258.94 525.18 259.693C525.409 260.446 525.744 261.122 526.187 261.722C526.629 262.322 527.156 262.801 527.766 263.157L527.034 264.042C526.382 263.645 525.826 263.106 525.363 262.424C524.9 261.742 524.546 260.967 524.302 260.097C524.058 259.227 523.936 258.325 523.936 257.389V255.619H524.836V257.389ZM527.324 256.107H521.067V255.116H527.324V256.107ZM544.902 254.779C544.902 255.604 544.645 256.359 544.131 257.046C543.617 257.732 542.938 258.299 542.094 258.747C541.25 259.194 540.354 259.5 539.409 259.662L538.92 258.686C539.744 258.574 540.535 258.327 541.293 257.946C542.051 257.564 542.666 257.096 543.139 256.542C543.612 255.987 543.849 255.4 543.849 254.779V254.001H544.902V254.779ZM545.085 254.779C545.085 255.39 545.324 255.975 545.802 256.534C546.28 257.094 546.901 257.564 547.664 257.946C548.426 258.327 549.215 258.574 550.029 258.686L549.541 259.662C548.594 259.5 547.702 259.192 546.862 258.739C546.023 258.287 545.344 257.717 544.826 257.031C544.307 256.344 544.047 255.594 544.047 254.779V254.001H545.085V254.779ZM545.024 267.078H543.849V261.906H545.024V267.078ZM550.639 262.165H538.279V261.158H550.639V262.165ZM557.139 264.377C556.966 264.377 556.804 264.332 556.651 264.24C556.498 264.149 556.379 264.026 556.292 263.874C556.206 263.721 556.162 263.559 556.162 263.386C556.162 263.212 556.206 263.05 556.292 262.897C556.379 262.745 556.498 262.625 556.651 262.539C556.804 262.452 556.966 262.409 557.139 262.409C557.312 262.409 557.475 262.452 557.627 262.539C557.78 262.625 557.899 262.745 557.986 262.897C558.072 263.05 558.116 263.212 558.116 263.386C558.116 263.559 558.072 263.721 557.986 263.874C557.899 264.026 557.78 264.149 557.627 264.24C557.475 264.332 557.312 264.377 557.139 264.377ZM557.139 258.243C556.966 258.243 556.804 258.197 556.651 258.106C556.498 258.014 556.379 257.892 556.292 257.74C556.206 257.587 556.162 257.424 556.162 257.252C556.162 257.079 556.206 256.916 556.292 256.763C556.379 256.611 556.498 256.491 556.651 256.405C556.804 256.318 556.966 256.275 557.139 256.275C557.312 256.275 557.475 256.318 557.627 256.405C557.78 256.491 557.899 256.611 557.986 256.763C558.072 256.916 558.116 257.079 558.116 257.252C558.116 257.424 558.072 257.587 557.986 257.74C557.899 257.892 557.78 258.014 557.627 258.106C557.475 258.197 557.312 258.243 557.139 258.243ZM567.988 265.842H566.6V256.229H566.539L563.853 258.014V256.626L566.6 254.795H567.988V265.842ZM574.534 265.995C573.883 265.995 573.288 265.867 572.749 265.613C572.21 265.359 571.782 265.011 571.467 264.568C571.152 264.126 570.979 263.624 570.949 263.065H572.276C572.317 263.391 572.441 263.683 572.65 263.942C572.858 264.202 573.128 264.408 573.459 264.561C573.789 264.713 574.147 264.789 574.534 264.789C575.002 264.789 575.424 264.682 575.801 264.469C576.177 264.256 576.472 263.963 576.686 263.592C576.899 263.221 577.006 262.806 577.006 262.348C577.006 261.87 576.897 261.442 576.678 261.066C576.459 260.69 576.154 260.392 575.762 260.174C575.371 259.955 574.931 259.846 574.442 259.846C573.964 259.836 573.552 259.909 573.207 260.067C572.861 260.224 572.586 260.481 572.382 260.837H571.055L571.834 254.795H577.815V256.016H572.978L572.566 259.251H572.672C572.927 259.057 573.232 258.902 573.588 258.785C573.944 258.668 574.311 258.609 574.687 258.609C575.379 258.609 576.004 258.767 576.564 259.082C577.123 259.398 577.561 259.838 577.876 260.402C578.191 260.967 578.349 261.606 578.349 262.317C578.349 263.019 578.184 263.65 577.853 264.209C577.522 264.769 577.067 265.206 576.487 265.522C575.907 265.837 575.256 265.995 574.534 265.995Z" fill="black"/>
<path d="M500.33 291.795H497.233V290.803H500.33V291.795ZM501.17 295.35H499.964V287.263H501.17V295.35ZM496.668 295.777C497.615 295.777 498.428 295.876 499.11 296.075C499.792 296.273 500.313 296.56 500.674 296.937C501.035 297.313 501.215 297.766 501.215 298.295C501.215 298.824 501.035 299.276 500.674 299.653C500.313 300.03 499.792 300.316 499.11 300.515C498.428 300.713 497.615 300.818 496.668 300.828C495.733 300.818 494.924 300.713 494.242 300.515C493.561 300.316 493.037 300.03 492.67 299.653C492.305 299.276 492.122 298.824 492.122 298.295C492.122 297.766 492.305 297.313 492.67 296.937C493.037 296.56 493.561 296.273 494.242 296.075C494.924 295.876 495.733 295.777 496.668 295.777ZM496.668 296.708C495.987 296.708 495.392 296.771 494.883 296.899C494.375 297.026 493.985 297.209 493.716 297.448C493.446 297.687 493.312 297.97 493.312 298.295C493.312 298.61 493.446 298.888 493.716 299.126C493.985 299.366 494.375 299.548 494.883 299.676C495.392 299.803 495.987 299.866 496.668 299.866C497.36 299.866 497.958 299.803 498.462 299.676C498.965 299.548 499.352 299.366 499.621 299.126C499.89 298.888 500.025 298.61 500.025 298.295C500.025 297.97 499.89 297.687 499.621 297.448C499.352 297.209 498.965 297.026 498.462 296.899C497.958 296.771 497.36 296.708 496.668 296.708ZM494.425 289.765C494.425 290.579 494.263 291.35 493.937 292.077C493.612 292.804 493.162 293.44 492.587 293.984C492.012 294.528 491.354 294.943 490.611 295.228L489.985 294.266C490.657 294.023 491.254 293.669 491.778 293.206C492.302 292.743 492.708 292.211 492.998 291.611C493.288 291.011 493.433 290.396 493.433 289.765V288.636H494.425V289.765ZM494.639 289.75C494.639 290.33 494.779 290.895 495.058 291.444C495.338 291.993 495.733 292.479 496.241 292.901C496.75 293.323 497.33 293.651 497.981 293.885L497.355 294.846C496.623 294.582 495.979 294.193 495.425 293.679C494.87 293.165 494.438 292.568 494.128 291.886C493.818 291.205 493.662 290.493 493.662 289.75V288.636H494.639V289.75ZM497.675 289.261H490.367V288.255H497.675V289.261ZM514.033 294.495H512.843V287.263H514.033V294.495ZM516.078 291.459H513.697V290.452H516.078V291.459ZM505.122 293.031C506.607 293.031 507.795 293 508.685 292.939C509.575 292.878 510.462 292.756 511.347 292.573L511.5 293.565C510.574 293.748 509.651 293.872 508.73 293.938C507.81 294.005 506.607 294.038 505.122 294.038H504.069V293.031H505.122ZM510.081 289.155H505.259V293.717H504.069V288.163H510.081V289.155ZM506.632 296.921H512.843V295.228H514.033V300.599H505.442V295.228H506.632V296.921ZM512.843 299.607V297.883H506.632V299.607H512.843ZM522.288 298.127C522.115 298.127 521.952 298.081 521.8 297.99C521.647 297.898 521.527 297.776 521.441 297.623C521.355 297.471 521.312 297.308 521.312 297.135C521.312 296.962 521.355 296.8 521.441 296.647C521.527 296.495 521.647 296.375 521.8 296.288C521.952 296.202 522.115 296.158 522.288 296.158C522.461 296.158 522.623 296.202 522.776 296.288C522.929 296.375 523.048 296.495 523.135 296.647C523.221 296.8 523.265 296.962 523.265 297.135C523.265 297.308 523.221 297.471 523.135 297.623C523.048 297.776 522.929 297.898 522.776 297.99C522.623 298.081 522.461 298.127 522.288 298.127ZM522.288 291.993C522.115 291.993 521.952 291.947 521.8 291.856C521.647 291.764 521.527 291.642 521.441 291.49C521.355 291.337 521.312 291.174 521.312 291.001C521.312 290.828 521.355 290.665 521.441 290.513C521.527 290.36 521.647 290.241 521.8 290.155C521.952 290.068 522.115 290.025 522.288 290.025C522.461 290.025 522.623 290.068 522.776 290.155C522.929 290.241 523.048 290.36 523.135 290.513C523.221 290.665 523.265 290.828 523.265 291.001C523.265 291.174 523.221 291.337 523.135 291.49C523.048 291.642 522.929 291.764 522.776 291.856C522.623 291.947 522.461 291.993 522.288 291.993ZM533.137 299.592H531.748V289.979H531.687L529.002 291.764V290.376L531.748 288.545H533.137V299.592ZM539.698 299.745C538.884 299.745 538.19 299.523 537.615 299.081C537.04 298.638 536.601 297.992 536.295 297.143C535.99 296.293 535.838 295.268 535.838 294.068C535.838 292.878 535.99 291.858 536.295 291.009C536.601 290.16 537.043 289.511 537.623 289.063C538.203 288.616 538.895 288.392 539.698 288.392C540.502 288.392 541.193 288.616 541.773 289.063C542.353 289.511 542.796 290.16 543.101 291.009C543.406 291.858 543.558 292.878 543.558 294.068C543.558 295.268 543.408 296.293 543.108 297.143C542.808 297.992 542.368 298.638 541.788 299.081C541.209 299.523 540.512 299.745 539.698 299.745ZM539.698 298.524C540.227 298.524 540.68 298.351 541.056 298.005C541.433 297.659 541.72 297.153 541.918 296.486C542.117 295.82 542.216 295.014 542.216 294.068C542.216 293.122 542.117 292.313 541.918 291.642C541.72 290.971 541.433 290.46 541.056 290.108C540.68 289.758 540.227 289.582 539.698 289.582C539.169 289.582 538.717 289.758 538.34 290.108C537.964 290.46 537.674 290.971 537.47 291.642C537.267 292.313 537.165 293.122 537.165 294.068C537.165 295.014 537.265 295.82 537.463 296.486C537.661 297.153 537.951 297.659 538.333 298.005C538.714 298.351 539.169 298.524 539.698 298.524Z" fill="black"/>
<path d="M496.684 332.075H495.509V328.673H496.684V332.075ZM496.104 321.898C497.061 321.898 497.915 322.045 498.667 322.34C499.421 322.635 500.008 323.052 500.43 323.591C500.852 324.131 501.063 324.751 501.063 325.453C501.063 326.165 500.852 326.788 500.43 327.322C500.008 327.856 499.421 328.271 498.667 328.566C497.915 328.861 497.061 329.008 496.104 329.008C495.148 329.008 494.293 328.861 493.541 328.566C492.788 328.271 492.201 327.856 491.778 327.322C491.356 326.788 491.145 326.165 491.145 325.453C491.145 324.751 491.356 324.131 491.778 323.591C492.201 323.052 492.788 322.635 493.541 322.34C494.293 322.045 495.148 321.898 496.104 321.898ZM496.104 322.89C495.382 322.89 494.731 322.996 494.151 323.21C493.571 323.424 493.119 323.726 492.793 324.118C492.467 324.51 492.305 324.955 492.305 325.453C492.305 325.961 492.467 326.412 492.793 326.803C493.119 327.195 493.569 327.498 494.143 327.711C494.718 327.925 495.372 328.037 496.104 328.047C496.836 328.037 497.49 327.925 498.065 327.711C498.639 327.498 499.09 327.195 499.415 326.803C499.741 326.412 499.904 325.961 499.904 325.453C499.904 324.955 499.741 324.51 499.415 324.118C499.09 323.726 498.639 323.424 498.065 323.21C497.49 322.996 496.836 322.89 496.104 322.89ZM502.345 332.838H489.924V331.831H502.345V332.838ZM514.033 328.245H512.843V321.013H514.033V328.245ZM516.078 325.209H513.697V324.202H516.078V325.209ZM505.122 326.781C506.607 326.781 507.795 326.75 508.685 326.689C509.575 326.628 510.462 326.506 511.347 326.323L511.5 327.315C510.574 327.498 509.651 327.622 508.731 327.688C507.81 327.755 506.607 327.788 505.122 327.788H504.069V326.781H505.122ZM510.081 322.905H505.259V327.467H504.069V321.913H510.081V322.905ZM506.632 330.671H512.843V328.978H514.033V334.349H505.442V328.978H506.632V330.671ZM512.843 333.357V331.633H506.632V333.357H512.843ZM522.288 331.877C522.115 331.877 521.952 331.831 521.8 331.74C521.647 331.648 521.527 331.526 521.441 331.373C521.355 331.221 521.312 331.058 521.312 330.885C521.312 330.712 521.355 330.55 521.441 330.397C521.527 330.245 521.647 330.125 521.8 330.038C521.952 329.952 522.115 329.908 522.288 329.908C522.461 329.908 522.624 329.952 522.776 330.038C522.929 330.125 523.049 330.245 523.135 330.397C523.221 330.55 523.265 330.712 523.265 330.885C523.265 331.058 523.221 331.221 523.135 331.373C523.049 331.526 522.929 331.648 522.776 331.74C522.624 331.831 522.461 331.877 522.288 331.877ZM522.288 325.743C522.115 325.743 521.952 325.697 521.8 325.606C521.647 325.514 521.527 325.392 521.441 325.24C521.355 325.087 521.312 324.924 521.312 324.751C521.312 324.578 521.355 324.415 521.441 324.263C521.527 324.11 521.647 323.991 521.8 323.905C521.952 323.818 522.115 323.775 522.288 323.775C522.461 323.775 522.624 323.818 522.776 323.905C522.929 323.991 523.049 324.11 523.135 324.263C523.221 324.415 523.265 324.578 523.265 324.751C523.265 324.924 523.221 325.087 523.135 325.24C523.049 325.392 522.929 325.514 522.776 325.606C522.624 325.697 522.461 325.743 522.288 325.743ZM532.832 333.495C532.181 333.495 531.586 333.367 531.047 333.113C530.507 332.859 530.081 332.51 529.765 332.068C529.449 331.625 529.277 331.124 529.246 330.565H530.574C530.614 330.89 530.739 331.183 530.947 331.442C531.156 331.701 531.426 331.908 531.756 332.06C532.087 332.213 532.446 332.289 532.832 332.289C533.3 332.289 533.722 332.182 534.099 331.968C534.475 331.755 534.77 331.463 534.984 331.091C535.197 330.72 535.304 330.305 535.304 329.848C535.304 329.37 535.194 328.942 534.976 328.566C534.757 328.19 534.452 327.892 534.061 327.673C533.669 327.455 533.229 327.345 532.741 327.345C532.262 327.335 531.851 327.409 531.504 327.566C531.159 327.724 530.884 327.981 530.681 328.337H529.353L530.131 322.295H536.112V323.515H531.276L530.864 326.75H530.971C531.225 326.557 531.53 326.401 531.886 326.285C532.242 326.168 532.608 326.109 532.984 326.109C533.676 326.109 534.302 326.267 534.861 326.582C535.421 326.898 535.858 327.338 536.174 327.902C536.489 328.466 536.647 329.105 536.647 329.817C536.647 330.519 536.481 331.15 536.151 331.709C535.82 332.269 535.365 332.706 534.785 333.021C534.206 333.337 533.554 333.495 532.832 333.495Z" fill="black"/>
<path d="M705.625 393.332H495.625C492.864 393.332 490.625 395.571 490.625 398.332V416.457C490.625 419.218 492.864 421.457 495.625 421.457H705.625C708.386 421.457 710.625 419.218 710.625 416.457V398.332C710.625 395.571 708.386 393.332 705.625 393.332Z" fill="#00EDA6"/>
<path d="M562.736 403.613H566.186V409.193H562.736V403.613ZM565.406 404.273H563.516V408.533H565.406V404.273ZM569.296 402.573H570.096V411.613H569.296V402.573ZM565.766 405.973H567.846V406.662H565.766V405.973ZM567.506 402.763H568.296V411.163H567.506V402.763ZM577.985 402.583H578.825V409.183H577.985V402.583ZM573.015 410.733H579.095V411.413H573.015V410.733ZM573.015 408.503H573.835V410.963H573.015V408.503ZM573.975 403.203C575.325 403.203 576.325 404.123 576.325 405.433C576.325 406.733 575.325 407.663 573.975 407.663C572.625 407.663 571.615 406.733 571.615 405.433C571.615 404.123 572.625 403.203 573.975 403.203ZM573.975 403.923C573.095 403.923 572.425 404.543 572.425 405.433C572.425 406.313 573.095 406.933 573.975 406.933C574.855 406.933 575.525 406.313 575.525 405.433C575.525 404.543 574.855 403.923 573.975 403.923ZM589.947 402.573H590.746V411.613H589.947V402.573ZM586.967 406.013H588.467V406.743H586.967V406.013ZM588.197 402.793H588.986V411.143H588.197V402.793ZM583.106 403.713H587.236V404.393H583.106V403.713ZM583.026 409.393L582.926 408.693C584.096 408.693 586.056 408.653 587.426 408.473L587.486 409.083C586.076 409.353 584.186 409.393 583.026 409.393ZM583.846 404.153H584.606V408.882H583.846V404.153ZM585.726 404.153H586.486V408.882H585.726V404.153ZM598.586 402.562H599.416V411.623H598.586V402.562ZM594.646 403.262C595.986 403.262 596.946 404.493 596.946 406.413C596.946 408.343 595.986 409.573 594.646 409.573C593.316 409.573 592.356 408.343 592.356 406.413C592.356 404.493 593.316 403.262 594.646 403.262ZM594.646 404.013C593.766 404.013 593.146 404.953 593.146 406.413C593.146 407.883 593.766 408.843 594.646 408.843C595.536 408.843 596.146 407.883 596.146 406.413C596.146 404.953 595.536 404.013 594.646 404.013ZM603.415 403.863H604.085V405.333C604.085 407.243 602.935 409.163 601.495 409.873L601.015 409.213C602.325 408.593 603.415 406.893 603.415 405.333V403.863ZM603.575 403.863H604.245V405.333C604.245 406.863 605.335 408.423 606.665 408.993L606.195 409.652C604.735 408.972 603.575 407.213 603.575 405.333V403.863ZM601.315 403.493H606.365V404.193H601.315V403.493ZM607.585 402.573H608.415V411.613H607.585V402.573ZM610.025 409.813H618.215V410.503H610.025V409.813ZM613.685 407.873H614.515V410.103H613.685V407.873ZM611.015 403.243H617.205V405.983H611.865V407.793H611.045V405.313H616.385V403.913H611.015V403.243ZM611.045 407.443H617.415V408.122H611.045V407.443ZM628.194 402.562H629.025V411.623H628.194V402.562ZM624.256 403.262C625.594 403.262 626.556 404.493 626.556 406.413C626.556 408.343 625.594 409.573 624.256 409.573C622.926 409.573 621.966 408.343 621.966 406.413C621.966 404.493 622.926 403.262 624.256 403.262ZM624.256 404.013C623.376 404.013 622.756 404.953 622.756 406.413C622.756 407.883 623.376 408.843 624.256 408.843C625.144 408.843 625.756 407.883 625.756 406.413C625.756 404.953 625.144 404.013 624.256 404.013ZM630.638 407.023H638.806V407.702H630.638V407.023ZM634.306 405.573H635.125V407.303H634.306V405.573ZM631.663 405.313H637.856V405.993H631.663V405.313ZM631.663 402.982H637.788V403.653H632.488V405.713H631.663V402.982ZM634.706 408.353C636.638 408.353 637.806 408.943 637.806 409.973C637.806 411.023 636.638 411.603 634.706 411.603C632.775 411.603 631.606 411.023 631.606 409.973C631.606 408.943 632.775 408.353 634.706 408.353ZM634.706 408.993C633.294 408.993 632.444 409.353 632.444 409.973C632.444 410.603 633.294 410.953 634.706 410.953C636.125 410.953 636.963 410.603 636.963 409.973C636.963 409.353 636.125 408.993 634.706 408.993Z" fill="white"/>
<path d="M705.625 426.457H495.625C492.864 426.457 490.625 428.696 490.625 431.457V449.582C490.625 452.343 492.864 454.582 495.625 454.582H705.625C708.386 454.582 710.625 452.343 710.625 449.582V431.457C710.625 428.696 708.386 426.457 705.625 426.457Z" fill="#265CFF"/>
<path d="M562.766 436.598H566.916V442.448H562.766V436.598ZM566.106 437.268H563.576V441.778H566.106V437.268ZM568.526 435.698H569.366V444.738H568.526V435.698ZM569.166 439.308H570.846V440.008H569.166V439.308ZM577.975 435.688H578.805V444.748H577.975V435.688ZM574.035 436.387C575.375 436.387 576.335 437.618 576.335 439.538C576.335 441.468 575.375 442.698 574.035 442.698C572.705 442.698 571.745 441.468 571.745 439.538C571.745 437.618 572.705 436.387 574.035 436.387ZM574.035 437.138C573.155 437.138 572.535 438.078 572.535 439.538C572.535 441.008 573.155 441.968 574.035 441.968C574.925 441.968 575.535 441.008 575.535 439.538C575.535 438.078 574.925 437.138 574.035 437.138ZM589.947 435.698H590.746V444.738H589.947V435.698ZM586.967 439.138H588.467V439.868H586.967V439.138ZM588.197 435.918H588.986V444.268H588.197V435.918ZM583.106 436.838H587.236V437.518H583.106V436.838ZM583.026 442.518L582.926 441.818C584.096 441.818 586.056 441.778 587.426 441.598L587.486 442.208C586.076 442.478 584.186 442.518 583.026 442.518ZM583.846 437.278H584.606V442.007H583.846V437.278ZM585.726 437.278H586.486V442.007H585.726V437.278ZM598.586 435.688H599.416V444.748H598.586V435.688ZM594.646 436.387C595.986 436.387 596.946 437.618 596.946 439.538C596.946 441.468 595.986 442.698 594.646 442.698C593.316 442.698 592.356 441.468 592.356 439.538C592.356 437.618 593.316 436.387 594.646 436.387ZM594.646 437.138C593.766 437.138 593.146 438.078 593.146 439.538C593.146 441.008 593.766 441.968 594.646 441.968C595.536 441.968 596.146 441.008 596.146 439.538C596.146 438.078 595.536 437.138 594.646 437.138ZM603.415 436.988H604.085V438.458C604.085 440.368 602.935 442.288 601.495 442.998L601.015 442.338C602.325 441.718 603.415 440.018 603.415 438.458V436.988ZM603.575 436.988H604.245V438.458C604.245 439.988 605.335 441.548 606.665 442.118L606.195 442.777C604.735 442.097 603.575 440.338 603.575 438.458V436.988ZM601.315 436.618H606.365V437.318H601.315V436.618ZM607.585 435.698H608.415V444.738H607.585V435.698ZM610.024 442.938H618.214V443.628H610.024V442.938ZM613.684 440.998H614.514V443.228H613.684V440.998ZM611.014 436.368H617.204V439.108H611.864V440.918H611.044V438.438H616.384V437.038H611.014V436.368ZM611.044 440.568H617.414V441.247H611.044V440.568ZM628.194 435.688H629.025V444.748H628.194V435.688ZM624.256 436.387C625.594 436.387 626.556 437.618 626.556 439.538C626.556 441.468 625.594 442.698 624.256 442.698C622.926 442.698 621.966 441.468 621.966 439.538C621.966 437.618 622.926 436.387 624.256 436.387ZM624.256 437.138C623.376 437.138 622.756 438.078 622.756 439.538C622.756 441.008 623.376 441.968 624.256 441.968C625.144 441.968 625.756 441.008 625.756 439.538C625.756 438.078 625.144 437.138 624.256 437.138ZM630.638 440.148H638.806V440.827H630.638V440.148ZM634.306 438.698H635.125V440.428H634.306V438.698ZM631.662 438.438H637.856V439.118H631.662V438.438ZM631.662 436.107H637.788V436.778H632.487V438.838H631.662V436.107ZM634.706 441.478C636.638 441.478 637.806 442.068 637.806 443.098C637.806 444.148 636.638 444.728 634.706 444.728C632.775 444.728 631.606 444.148 631.606 443.098C631.606 442.068 632.775 441.478 634.706 441.478ZM634.706 442.118C633.294 442.118 632.444 442.478 632.444 443.098C632.444 443.728 633.294 444.078 634.706 444.078C636.125 444.078 636.963 443.728 636.963 443.098C636.963 442.478 636.125 442.118 634.706 442.118Z" fill="white"/>
</g>
<path d="M1199.69 0.3125H0.3125V639.688H1199.69V0.3125Z" stroke="black"/>
</g>
<defs>
<filter id="filter0_d_3033_2174" x="-4" y="0" width="1208" height="51.75" filterUnits="userSpaceOnUse" color-interpolation-filters="sRGB">
<feFlood flood-opacity="0" result="BackgroundImageFix"/>
<feColorMatrix in="SourceAlpha" type="matrix" values="0 0 0 0 0 0 0 0 0 0 0 0 0 0 0 0 0 0 127 0" result="hardAlpha"/>
<feOffset dy="4"/>
<feGaussianBlur stdDeviation="2"/>
<feComposite in2="hardAlpha" operator="out"/>
<feColorMatrix type="matrix" values="0 0 0 0 0.748333 0 0 0 0 0.748333 0 0 0 0 0.748333 0 0 0 0.25 0"/>
<feBlend mode="normal" in2="BackgroundImageFix" result="effect1_dropShadow_3033_2174"/>
<feBlend mode="normal" in="SourceGraphic" in2="effect1_dropShadow_3033_2174" result="shape"/>
</filter>
<filter id="filter1_d_3033_2174" x="1031" y="10.625" width="79.25" height="30.5" filterUnits="userSpaceOnUse" color-interpolation-filters="sRGB">
<feFlood flood-opacity="0" result="BackgroundImageFix"/>
<feColorMatrix in="SourceAlpha" type="matrix" values="0 0 0 0 0 0 0 0 0 0 0 0 0 0 0 0 0 0 127 0" result="hardAlpha"/>
<feOffset dy="4"/>
<feGaussianBlur stdDeviation="2"/>
<feComposite in2="hardAlpha" operator="out"/>
<feColorMatrix type="matrix" values="0 0 0 0 0.62 0 0 0 0 0.62 0 0 0 0 0.62 0 0 0 0.25 0"/>
<feBlend mode="normal" in2="BackgroundImageFix" result="effect1_dropShadow_3033_2174"/>
<feBlend mode="normal" in="SourceGraphic" in2="effect1_dropShadow_3033_2174" result="shape"/>
</filter>
<filter id="filter2_i_3033_2174" x="94.375" y="85" width="1011.25" height="120.625" filterUnits="userSpaceOnUse" color-interpolation-filters="sRGB">
<feFlood flood-opacity="0" result="BackgroundImageFix"/>
<feBlend mode="normal" in="SourceGraphic" in2="BackgroundImageFix" result="shape"/>
<feColorMatrix in="SourceAlpha" type="matrix" values="0 0 0 0 0 0 0 0 0 0 0 0 0 0 0 0 0 0 127 0" result="hardAlpha"/>
<feOffset/>
<feGaussianBlur stdDeviation="5"/>
<feComposite in2="hardAlpha" operator="arithmetic" k2="-1" k3="1"/>
<feColorMatrix type="matrix" values="0 0 0 0 0.404167 0 0 0 0 0.404167 0 0 0 0 0.404167 0 0 0 0.25 0"/>
<feBlend mode="normal" in2="shape" result="effect1_innerShadow_3033_2174"/>
</filter>
<clipPath id="clip0_3033_2174">
<rect width="1200" height="640" fill="white"/>
</clipPath>
</defs>
</svg>
