<svg width="1200" height="803" viewBox="0 0 1200 803" fill="none" xmlns="http://www.w3.org/2000/svg">
<g clip-path="url(#clip0_3033_2282)">
<mask id="mask0_3033_2282" style="mask-type:luminance" maskUnits="userSpaceOnUse" x="0" y="0" width="1200" height="803">
<path d="M1200 0.5H0V803H1200V0.5Z" fill="white"/>
</mask>
<g mask="url(#mask0_3033_2282)">
<path d="M1200 0.5H0V803H1200V0.5Z" fill="#F8F8F8"/>
<g filter="url(#filter0_d_3033_2282)">
<path d="M1200 0.5H0V44.25H1200V0.5Z" fill="white"/>
<path d="M60.5243 27.3744C59.7993 27.3744 59.266 27.1952 58.9243 26.8369C58.5826 26.4702 58.4118 25.991 58.4118 25.3994V22.3744H56.5493V20.9369H58.4118V18.9619H60.2243V20.9369H62.8993V22.3744H60.2243V25.1744C60.2243 25.6827 60.4743 25.9369 60.9743 25.9369H63.2493V27.3744H60.5243Z" fill="black"/>
<path d="M48.1411 27.374V20.9365H53.7536C54.4869 20.9365 55.0202 21.1199 55.3536 21.4865C55.6952 21.8449 55.8661 22.3199 55.8661 22.9115V27.374H54.0536V23.124C54.0536 22.624 53.8036 22.374 53.3036 22.374H49.9536V27.374H48.1411Z" fill="black"/>
<path d="M44.9549 27.3754V20.9379H46.7674V27.3754H44.9549ZM44.9424 19.8754V18.4629H46.7799V19.8754H44.9424Z" fill="black"/>
<path d="M39.9458 24.4492V23.0117H43.7708V24.4492H39.9458Z" fill="black"/>
<path d="M31.6375 27.4375C30.0458 27.4375 28.8125 27.0583 27.9375 26.3C27.0625 25.5333 26.625 24.4 26.625 22.9C26.625 21.4083 27.0625 20.2833 27.9375 19.525C28.8125 18.7583 30.075 18.375 31.725 18.375H33.975C35.625 18.375 36.8875 18.7583 37.7625 19.525C38.6375 20.2833 39.075 21.4083 39.075 22.9C39.075 24.4 38.6375 25.5333 37.7625 26.3C36.8875 27.0583 35.6458 27.4375 34.0375 27.4375H33.875V28.75H31.875V27.4375H31.6375ZM33.875 24.25V25.8125C34.95 25.8042 35.7458 25.5708 36.2625 25.1125C36.7792 24.6542 37.0375 23.9167 37.0375 22.9C37.0375 21.8833 36.775 21.1458 36.25 20.6875C35.7333 20.2292 34.9292 20 33.8375 20H31.8625C30.7792 20 29.975 20.2292 29.45 20.6875C28.925 21.1458 28.6625 21.8833 28.6625 22.9C28.6625 23.9167 28.925 24.6583 29.45 25.125C29.975 25.5833 30.7833 25.8125 31.875 25.8125V24.25H33.875Z" fill="black"/>
<path d="M987.344 20.3035C987.344 21.5938 988.288 22.9011 989.406 23.3882L989.031 23.918C988.137 23.5121 987.369 22.6363 987.019 21.5852C986.662 22.7003 985.894 23.6702 985.031 24.106L984.625 23.5762C985.713 23.055 986.663 21.6194 986.669 20.3035V19.3123H984.875V18.7568H989.156V19.3123H987.344V20.3035ZM990.894 17.9707V25.5671H990.219V17.9707H990.894Z" fill="black"/>
<path d="M983.331 17.9707V25.5843H982.656V17.9707H983.331ZM979.288 18.5603C980.413 18.5689 981.225 19.5943 981.225 21.2093C981.225 22.8243 980.413 23.8496 979.288 23.8496C978.15 23.8496 977.35 22.8243 977.35 21.2093C977.35 19.5943 978.15 18.5689 979.288 18.5603ZM979.288 19.1585C978.525 19.167 977.994 19.9702 977.994 21.2093C977.994 22.4483 978.525 23.2515 979.288 23.2515C980.05 23.2515 980.575 22.4483 980.575 21.2093C980.575 19.9702 980.05 19.167 979.288 19.1585Z" fill="black"/>
<path d="M976.038 17.9707V25.5671H975.388V17.9707H976.038ZM974.557 18.1587V25.1655H973.913V21.4656H972.85V20.8589H973.913V18.1587H974.557ZM973.075 18.9448V19.5003H972.431V23.0122C972.719 22.9951 972.994 22.9695 973.244 22.9353L973.288 23.431C972.094 23.6531 970.494 23.6873 969.506 23.6873L969.419 23.1148L970.219 23.1062V19.5003H969.581V18.9448H973.075ZM970.838 23.0976C971.15 23.0891 971.488 23.0763 971.813 23.055V19.5003H970.838V23.0976Z" fill="black"/>
<path d="M966.006 17.9707V25.5843H965.331V17.9707H966.006ZM961.969 18.5603C963.094 18.5689 963.906 19.5943 963.906 21.2093C963.906 22.8243 963.094 23.8496 961.969 23.8496C960.831 23.8496 960.025 22.8243 960.025 21.2093C960.025 19.5943 960.831 18.5689 961.969 18.5603ZM961.969 19.1585C961.206 19.167 960.675 19.9702 960.675 21.2093C960.675 22.4483 961.206 23.2515 961.969 23.2515C962.725 23.2515 963.256 22.4483 963.256 21.2093C963.256 19.9702 962.725 19.167 961.969 19.1585Z" fill="black"/>
<path d="M956 18.7398V23.636H952.5V18.7398H956ZM953.15 19.2781V23.0891H955.338V19.2781H953.15ZM958.063 17.9707V21.0041H959.337V21.5852H958.063V25.5671H957.394V17.9707H958.063Z" fill="black"/>
<g filter="url(#filter1_d_3033_2282)">
<path d="M1103.12 11.125H1038.12C1036.4 11.125 1035 12.5241 1035 14.25V30.5C1035 32.2259 1036.4 33.625 1038.12 33.625H1103.12C1104.85 33.625 1106.25 32.2259 1106.25 30.5V14.25C1106.25 12.5241 1104.85 11.125 1103.12 11.125Z" fill="#00EDA6"/>
<path d="M1083.43 21.0614V21.6009H1080.48V22.3706H1079.88V21.6009H1076.98V21.0614H1083.43ZM1080.49 22.9181C1080.49 23.6957 1081.64 24.259 1082.91 24.386L1082.71 24.862C1081.6 24.743 1080.59 24.3145 1080.18 23.6322C1079.76 24.3066 1078.76 24.743 1077.65 24.862L1077.44 24.386C1078.71 24.259 1079.86 23.6877 1079.86 22.9181V22.688H1080.49V22.9181ZM1080.19 17.959C1081.74 17.959 1082.68 18.4192 1082.68 19.2444C1082.68 20.0617 1081.74 20.5377 1080.19 20.5298C1078.64 20.5377 1077.69 20.0617 1077.69 19.2444C1077.69 18.4192 1078.64 17.959 1080.19 17.959ZM1080.19 18.435C1079.04 18.4271 1078.33 18.7365 1078.33 19.2444C1078.33 19.7442 1079.04 20.0458 1080.19 20.0458C1081.33 20.0458 1082.05 19.7442 1082.05 19.2444C1082.05 18.7365 1081.33 18.4271 1080.19 18.435Z" fill="black"/>
<path d="M1071.84 18.3864C1072.88 18.3943 1073.62 19.3464 1073.63 20.8461C1073.62 22.3457 1072.88 23.2979 1071.84 23.2979C1070.79 23.2979 1070.07 22.3457 1070.07 20.8461C1070.07 19.3464 1070.79 18.3943 1071.84 18.3864ZM1071.84 18.9417C1071.14 18.9497 1070.65 19.6956 1070.65 20.8461C1070.65 21.9966 1071.14 22.7424 1071.84 22.7424C1072.55 22.7424 1073.03 21.9966 1073.03 20.8461C1073.03 19.6956 1072.55 18.9497 1071.84 18.9417ZM1075.41 17.8389V20.6556H1076.59V21.1952H1075.41V24.8927H1074.79V17.8389H1075.41Z" fill="black"/>
<path d="M1068.49 18.5928V19.299C1068.49 20.1876 1068.49 21.1953 1068.23 22.7267L1067.6 22.6632C1067.88 21.2191 1067.88 20.1638 1067.88 19.299V19.1085H1063.63V18.5928H1068.49ZM1069.36 23.3376V23.8534H1062.93V23.3376H1069.36Z" fill="black"/>
<path d="M1062.37 23.4959V24.0196H1055.91V23.4959H1058.81V22.1629H1056.72V19.9889H1060.94V18.8781H1056.71V18.3623H1061.55V20.4967H1057.34V21.6472H1061.72V22.1629H1059.43V23.4959H1062.37Z" fill="black"/>
</g>
</g>
<g filter="url(#filter2_i_3033_2282)">
<path d="M1099.38 86.75H100.625C97.1732 86.75 94.375 89.5482 94.375 93V201.125C94.375 204.577 97.1732 207.375 100.625 207.375H1099.38C1102.83 207.375 1105.62 204.577 1105.62 201.125V93C1105.62 89.5482 1102.83 86.75 1099.38 86.75Z" fill="white"/>
<path d="M769.1 150.168C769.119 147.551 769.925 146.75 771.269 145.93C772.069 145.442 772.694 144.66 772.694 143.567C772.694 142.238 771.662 141.399 770.369 141.399C769.256 141.399 768.144 142.063 768.025 143.664H766.25C766.35 141.301 768.144 139.914 770.369 139.914C772.812 139.914 774.413 141.497 774.413 143.645C774.413 145.168 773.694 146.243 772.481 146.985C771.269 147.727 770.819 148.469 770.781 150.168V150.266H769.1V150.168ZM770 154.368C769.319 154.368 768.731 153.801 768.75 153.098C768.731 152.414 769.319 151.848 770 151.848C770.681 151.848 771.25 152.414 771.25 153.098C771.25 153.801 770.681 154.368 770 154.368Z" fill="black"/>
<path d="M764.863 147.63V148.88H749.044V147.63H764.863ZM763.106 154.172V155.461H751.094V150.403H752.638V154.172H763.106ZM756.95 139.094C760.681 139.075 763.088 140.364 763.088 142.531C763.088 144.7 760.681 145.989 756.95 145.989C753.181 145.989 750.8 144.7 750.8 142.531C750.8 140.364 753.181 139.075 756.95 139.094ZM756.95 140.325C754.163 140.325 752.363 141.165 752.381 142.531C752.363 143.899 754.163 144.739 756.95 144.739C759.725 144.739 761.525 143.899 761.525 142.531C761.525 141.165 759.725 140.325 756.95 140.325Z" fill="black"/>
<path d="M746.15 138.488V150.246H744.612V144.66H740.8V143.371H744.612V138.488H746.15ZM740.725 139.856C740.7 144.309 737.737 147.512 732.737 149.113L732.05 147.883C736.2 146.604 738.762 144.191 739.081 141.106H732.912V139.856H740.725ZM741.269 149.524C741.269 152.063 744.044 153.957 747.112 154.504L746.462 155.735C743.906 155.236 741.55 153.899 740.525 151.868C739.462 153.908 737.081 155.266 734.493 155.774L733.868 154.563C736.931 154.035 739.744 152.082 739.762 149.524V148.723H741.269V149.524Z" fill="black"/>
<path d="M725.275 147.63V148.88H709.45V147.63H725.275ZM723.513 154.172V155.461H711.506V150.403H713.05V154.172H723.513ZM717.363 139.094C721.094 139.075 723.494 140.364 723.494 142.531C723.494 144.7 721.094 145.989 717.363 145.989C713.594 145.989 711.213 144.7 711.213 142.531C711.213 140.364 713.594 139.075 717.363 139.094ZM717.363 140.325C714.569 140.325 712.775 141.165 712.794 142.531C712.775 143.899 714.569 144.739 717.363 144.739C720.138 144.739 721.931 143.899 721.931 142.531C721.931 141.165 720.138 140.325 717.363 140.325Z" fill="black"/>
<path d="M699.319 148.762V152.629H695.256V154.465C697.469 154.455 698.625 154.387 700.075 154.132L700.256 155.305C698.613 155.617 697.363 155.637 694.763 155.637H693.825V151.515H697.85V149.934H693.75V148.762H699.319ZM707.288 149.621V150.793H699.925V149.621H702.831V148.195H704.319V149.621H707.288ZM703.594 151.418C705.256 151.418 706.525 152.238 706.525 153.625C706.525 154.972 705.256 155.793 703.594 155.793C701.913 155.793 700.663 154.972 700.663 153.625C700.663 152.238 701.913 151.418 703.594 151.418ZM703.594 152.434C702.619 152.434 701.95 152.902 701.95 153.625C701.95 154.328 702.619 154.757 703.594 154.757C704.531 154.757 705.194 154.328 705.213 153.625C705.194 152.902 704.531 152.434 703.594 152.434ZM700.075 138.684C703.944 138.684 706.213 139.738 706.213 141.691C706.213 143.517 704.231 144.562 700.8 144.699V146.007H707.988V147.257H692.169V146.007H699.3V144.699C695.906 144.552 693.925 143.507 693.925 141.691C693.925 139.738 696.213 138.684 700.075 138.684ZM700.075 139.855C697.188 139.875 695.506 140.539 695.525 141.691C695.506 142.863 697.188 143.527 700.075 143.527C702.95 143.527 704.65 142.863 704.65 141.691C704.65 140.539 702.95 139.875 700.075 139.855Z" fill="black"/>
<path d="M685.762 152.395V153.684H669.862V152.395H677.012V149.113H671.856V143.762H682.244V141.028H671.819V139.758H683.75V145.012H673.381V147.844H684.162V149.113H678.512V152.395H685.762Z" fill="black"/>
<path d="M660.488 139.602C664.119 139.602 666.838 141.497 666.838 144.368C666.838 147.258 664.119 149.153 660.488 149.133C656.856 149.153 654.138 147.258 654.138 144.368C654.138 141.497 656.856 139.602 660.488 139.602ZM660.488 140.852C657.694 140.832 655.588 142.297 655.606 144.368C655.588 146.477 657.694 147.883 660.488 147.883C663.263 147.883 665.35 146.477 665.35 144.368C665.35 142.297 663.263 140.832 660.488 140.852ZM668.475 152.238V153.528H652.575V152.238H668.475Z" fill="black"/>
<path d="M649.1 139.211V145.07H643.963V147.297H651.113V148.547H635.294V147.297H642.444V145.07H637.344V139.211H649.1ZM638.85 140.441V143.84H647.575V140.441H638.85ZM649.163 150.363V155.832H647.619V151.593H637.05V150.363H649.163Z" fill="black"/>
<path d="M627.638 140.402V141.301C627.619 142.668 627.619 144.972 627.131 148.195L625.588 148.059C626.056 145.149 626.094 143.039 626.094 141.652H618.809V140.402H627.638ZM623.086 145.363V150.637C625.013 150.568 626.981 150.441 628.788 150.226L628.869 151.379C625.213 151.945 621.133 152.024 618.028 152.004L617.832 150.734C618.975 150.724 620.245 150.715 621.582 150.676V145.363H623.086ZM631.406 138.469V145.734H634.219V147.062H631.406V155.832H629.881V138.469H631.406Z" fill="black"/>
<path d="M601.387 139.738C604.121 139.738 606.055 141.399 606.055 143.82C606.055 146.242 604.121 147.902 601.387 147.902C598.653 147.902 596.68 146.242 596.7 143.82C596.68 141.399 598.653 139.738 601.387 139.738ZM601.387 141.086C599.531 141.086 598.184 142.199 598.203 143.82C598.184 145.441 599.531 146.555 601.387 146.555C603.223 146.555 604.551 145.441 604.551 143.82C604.551 142.199 603.223 141.086 601.387 141.086ZM609.941 138.469V155.871H608.418V138.469H609.941ZM595.801 150.734C599.004 150.734 603.418 150.715 607.266 150.149L607.383 151.281C603.418 152.024 599.141 152.043 596.016 152.043L595.801 150.734Z" fill="black"/>
<path d="M592.734 138.469V148.332H591.23V138.469H592.734ZM581.055 139.504V145.695C583.925 145.686 586.504 145.49 589.257 144.894L589.492 146.184C586.562 146.769 583.925 146.984 580.918 147.004H579.512V139.504H581.055ZM592.734 149.132V155.598H581.465V149.132H592.734ZM582.969 150.363V154.348H591.23V150.363H582.969Z" fill="black"/>
<path d="M566.309 141.926C566.309 143.84 567.656 145.793 569.882 146.633L569.082 147.805C567.412 147.16 566.211 145.92 565.586 144.426C564.941 146.086 563.701 147.561 561.992 148.293L561.152 147.101C563.437 146.106 564.844 143.86 564.844 141.926V139.563H566.309V141.926ZM575.879 138.488V149.211H574.414V144.426H572.109V148.664H570.664V138.82H572.109V143.156H574.414V138.488H575.879ZM570.137 149.601C573.73 149.601 575.976 150.735 575.976 152.707C575.976 154.66 573.73 155.793 570.137 155.793C566.524 155.793 564.297 154.66 564.316 152.707C564.297 150.735 566.524 149.601 570.137 149.601ZM570.137 150.774C567.48 150.774 565.82 151.496 565.84 152.707C565.82 153.899 567.48 154.601 570.137 154.601C572.774 154.601 574.434 153.899 574.453 152.707C574.434 151.496 572.774 150.774 570.137 150.774Z" fill="black"/>
<path d="M549.785 141.75C549.785 144.172 551.543 146.457 554.082 147.375L553.223 148.566C551.318 147.805 549.805 146.291 549.063 144.406C548.32 146.506 546.738 148.176 544.688 148.996L543.868 147.746C546.465 146.789 548.262 144.368 548.281 141.691V139.543H549.785V141.75ZM558.243 138.488V151.496H556.7V143.86H552.832V142.57H556.7V138.488H558.243ZM558.633 154.172V155.461H547.012V150.012H548.555V154.172H558.633Z" fill="black"/>
<path d="M530.254 139.524C530.254 141.731 533.418 143.664 536.465 144.113L535.859 145.305C533.193 144.875 530.566 143.488 529.472 141.516C528.359 143.508 525.713 144.875 523.047 145.305L522.461 144.113C525.527 143.664 528.672 141.769 528.672 139.524V138.703H530.254V139.524ZM537.363 146.691V147.961H530.195V150.188H535.41V155.832H533.867V151.438H523.3V150.188H528.691V147.961H521.543V146.691H537.363Z" fill="black"/>
<path d="M518.653 138.469V148.82H517.11V144.269H513.613V143H517.11V138.469H518.653ZM512.891 149.368C516.504 149.368 518.711 150.539 518.711 152.59C518.711 154.641 516.504 155.813 512.891 155.832C509.278 155.813 507.07 154.641 507.07 152.59C507.07 150.539 509.278 149.368 512.891 149.368ZM512.891 150.559C510.235 150.559 508.575 151.32 508.594 152.59C508.575 153.84 510.235 154.601 512.891 154.601C515.547 154.601 517.188 153.84 517.188 152.59C517.188 151.32 515.547 150.559 512.891 150.559ZM510.293 141.652C510.293 143.918 512.031 146.066 514.57 146.945L513.77 148.176C511.816 147.473 510.303 146.018 509.57 144.211C508.809 146.252 507.198 147.882 505.137 148.664L504.336 147.434C506.914 146.496 508.75 144.153 508.75 141.672V141.027H504.825V139.738H514.18V141.027H510.293V141.652Z" fill="black"/>
<path d="M494.883 139.602C498.575 139.622 501.231 141.418 501.231 144.153C501.231 146.74 498.926 148.459 495.625 148.664V152.317H502.871V153.606H486.973V152.317H494.121V148.664C490.83 148.45 488.535 146.731 488.535 144.153C488.535 141.418 491.191 139.622 494.883 139.602ZM494.883 140.872C492.07 140.872 490.02 142.2 490.02 144.153C490.02 146.164 492.07 147.453 494.883 147.473C497.695 147.453 499.746 146.164 499.746 144.153C499.746 142.2 497.695 140.872 494.883 140.872Z" fill="black"/>
<path d="M480.488 146.594V147.863H473.32V149.719C476.601 149.856 478.535 150.93 478.555 152.766C478.535 154.7 476.309 155.793 472.578 155.793C468.809 155.793 466.582 154.7 466.582 152.766C466.582 150.93 468.505 149.856 471.816 149.719V147.863H464.668V146.594H480.488ZM472.578 150.891C469.785 150.91 468.125 151.594 468.144 152.766C468.125 153.918 469.785 154.602 472.578 154.602C475.332 154.602 477.012 153.918 477.012 152.766C477.012 151.594 475.332 150.91 472.578 150.891ZM479.082 139.289V140.539H473.574C473.672 142.493 476.543 144.006 479.609 144.328L479.043 145.539C476.201 145.198 473.535 143.928 472.578 141.985C471.63 143.928 468.974 145.198 466.113 145.539L465.566 144.328C468.574 144.006 471.465 142.493 471.582 140.539H466.113V139.289H479.082Z" fill="black"/>
<path d="M450.274 138.859C454.043 138.859 456.406 140.07 456.406 142.16C456.406 144.211 454.043 145.402 450.274 145.402C446.504 145.402 444.121 144.211 444.121 142.16C444.121 140.07 446.504 138.859 450.274 138.859ZM450.274 140.09C447.461 140.09 445.684 140.871 445.703 142.16C445.684 143.43 447.461 144.172 450.274 144.191C453.047 144.172 454.844 143.43 454.844 142.16C454.844 140.871 453.047 140.09 450.274 140.09ZM456.25 149.894V155.598H444.297V149.894H456.25ZM445.82 151.125V154.348H454.746V151.125H445.82ZM458.184 146.906V148.176H442.363V146.906H458.184Z" fill="black"/>
<path d="M438.515 138.469V145.344H441.425V146.632H438.515V155.871H436.992V138.469H438.515ZM433.945 140.168V141.438H427.363V150.226C430.507 150.226 432.734 150.08 435.312 149.601L435.507 150.93C432.793 151.418 430.507 151.516 427.207 151.516H425.84V140.168H433.945Z" fill="black"/>
</g>
<g filter="url(#filter3_i_3033_2282)">
<path d="M1099.38 442.375H100.625C97.1732 442.375 94.375 445.173 94.375 448.625V722.375C94.375 725.827 97.1732 728.625 100.625 728.625H1099.38C1102.83 728.625 1105.62 725.827 1105.62 722.375V448.625C1105.62 445.173 1102.83 442.375 1099.38 442.375Z" fill="#E4F9F3"/>
<path d="M121.2 465.517C124.66 465.536 127.15 467.22 127.15 469.784C127.15 472.209 124.99 473.821 121.895 474.013V477.438H128.689V478.646H113.784V477.438H120.485V474.013C117.4 473.812 115.249 472.201 115.249 469.784C115.249 467.22 117.739 465.536 121.2 465.517ZM121.2 466.708C118.563 466.708 116.64 467.953 116.64 469.784C116.64 471.669 118.563 472.878 121.2 472.896C123.837 472.878 125.759 471.669 125.759 469.784C125.759 467.953 123.837 466.708 121.2 466.708ZM143.484 464.455V474.159H142.037V469.893H138.76V468.703H142.037V464.455H143.484ZM138.082 474.673C141.47 474.673 143.539 475.771 143.539 477.694C143.539 479.616 141.47 480.715 138.082 480.733C134.695 480.715 132.625 479.616 132.625 477.694C132.625 475.771 134.695 474.673 138.082 474.673ZM138.082 475.789C135.592 475.789 134.035 476.503 134.054 477.694C134.035 478.866 135.592 479.579 138.082 479.579C140.572 479.579 142.11 478.866 142.11 477.694C142.11 476.503 140.572 475.789 138.082 475.789ZM135.647 467.44C135.647 469.564 137.277 471.578 139.657 472.402L138.906 473.556C137.075 472.896 135.656 471.532 134.969 469.838C134.255 471.752 132.745 473.281 130.813 474.013L130.062 472.859C132.479 471.981 134.2 469.784 134.2 467.458V466.854H130.52V465.645H139.29V466.854H135.647V467.44ZM154.36 465.444C154.36 467.513 157.327 469.326 160.183 469.747L159.615 470.864C157.116 470.461 154.653 469.161 153.628 467.311C152.584 469.179 150.103 470.461 147.604 470.864L147.054 469.747C149.929 469.326 152.877 467.549 152.877 465.444V464.675H154.36V465.444ZM161.025 472.164V473.354H154.305V475.441H159.194V480.733H157.747V476.613H147.842V475.441H152.895V473.354H146.194V472.164H161.025ZM172.67 467.531C172.67 469.802 174.319 471.944 176.699 472.805L175.894 473.922C174.108 473.208 172.689 471.789 171.993 470.021C171.297 471.99 169.814 473.556 167.892 474.324L167.122 473.153C169.558 472.256 171.242 469.985 171.261 467.476V465.462H172.67V467.531ZM180.599 464.473V476.668H179.153V469.509H175.527V468.3H179.153V464.473H180.599ZM180.965 479.177V480.385H170.07V475.277H171.517V479.177H180.965ZM188.162 467.696C188.162 469.491 189.425 471.321 191.512 472.109L190.762 473.208C189.196 472.603 188.07 471.441 187.484 470.04C186.88 471.596 185.717 472.979 184.115 473.665L183.327 472.548C185.47 471.614 186.788 469.509 186.788 467.696V465.481H188.162V467.696ZM197.134 464.473V474.526H195.76V470.04H193.6V474.013H192.245V464.784H193.6V468.849H195.76V464.473H197.134ZM191.75 474.892C195.119 474.892 197.225 475.954 197.225 477.804C197.225 479.634 195.119 480.696 191.75 480.696C188.363 480.696 186.275 479.634 186.294 477.804C186.275 475.954 188.363 474.892 191.75 474.892ZM191.75 475.991C189.26 475.991 187.704 476.668 187.722 477.804C187.704 478.921 189.26 479.579 191.75 479.579C194.222 479.579 195.779 478.921 195.797 477.804C195.779 476.668 194.222 475.991 191.75 475.991ZM212.935 464.455V473.702H211.525V464.455H212.935ZM201.986 465.426V471.23C204.677 471.221 207.095 471.038 209.676 470.479L209.896 471.688C207.149 472.237 204.677 472.439 201.858 472.457H200.539V465.426H201.986ZM212.935 474.453V480.513H202.37V474.453H212.935ZM203.78 475.606V479.341H211.525V475.606H203.78ZM221.047 465.645C223.61 465.645 225.424 467.202 225.424 469.472C225.424 471.743 223.61 473.299 221.047 473.299C218.484 473.299 216.634 471.743 216.653 469.472C216.634 467.202 218.484 465.645 221.047 465.645ZM221.047 466.909C219.308 466.909 218.044 467.953 218.062 469.472C218.044 470.992 219.308 472.036 221.047 472.036C222.769 472.036 224.014 470.992 224.014 469.472C224.014 467.953 222.769 466.909 221.047 466.909ZM229.067 464.455V480.77H227.639V464.455H229.067ZM215.81 475.954C218.814 475.954 222.952 475.936 226.559 475.405L226.669 476.467C222.952 477.163 218.942 477.181 216.012 477.181L215.81 475.954ZM245.657 466.268V467.11C245.638 468.392 245.638 470.553 245.18 473.574L243.734 473.446C244.174 470.718 244.21 468.74 244.21 467.44H237.38V466.268H245.657ZM241.39 470.919V475.863C243.194 475.799 245.043 475.679 246.737 475.478L246.81 476.558C243.386 477.089 239.559 477.163 236.648 477.144L236.465 475.954C237.536 475.945 238.726 475.936 239.98 475.899V470.919H241.39ZM249.19 464.455V471.267H251.827V472.512H249.19V480.733H247.762V464.455H249.19ZM265.78 465.151V470.644H260.964V472.731H267.666V473.903H252.834V472.731H259.536V470.644H254.757V465.151H265.78ZM256.167 466.304V469.491H264.352V466.304H256.167ZM265.835 475.606V480.733H264.388V476.76H254.482V475.606H265.835ZM283.87 473.043V474.214H269.039V473.043H283.87ZM282.223 479.177V480.385H270.962V475.643H272.409V479.177H282.223ZM276.455 465.041C279.952 465.023 282.204 466.231 282.204 468.264C282.204 470.296 279.952 471.504 276.455 471.504C272.921 471.504 270.687 470.296 270.687 468.264C270.687 466.231 272.921 465.023 276.455 465.041ZM276.455 466.194C273.837 466.194 272.152 466.982 272.17 468.264C272.152 469.546 273.837 470.333 276.455 470.333C279.055 470.333 280.74 469.546 280.74 468.264C280.74 466.982 279.055 466.194 276.455 466.194ZM295.406 468.831C295.406 471.706 297.31 474.654 299.618 475.789L298.739 476.943C296.944 476 295.443 474.078 294.729 471.816C293.997 474.224 292.459 476.274 290.627 477.254L289.712 476.101C292.092 474.929 293.978 471.798 293.997 468.831V465.865H295.406V468.831ZM302.547 464.455V471.065H305.275V472.31H302.547V480.733H301.119V464.455H302.547ZM319.503 464.455V480.733H318.075V464.455H319.503ZM306.246 476.394C307.638 476.384 309.231 476.375 310.879 476.32V474.544C308.929 474.334 307.656 473.226 307.674 471.596C307.656 469.765 309.231 468.575 311.575 468.575C313.919 468.575 315.511 469.765 315.511 471.596C315.511 473.208 314.248 474.315 312.325 474.526V476.266C313.9 476.201 315.493 476.083 316.994 475.881L317.104 476.979C313.479 477.566 309.487 477.621 306.466 477.621L306.246 476.394ZM316.574 466.469V467.641H306.594V466.469H310.879V464.473H312.325V466.469H316.574ZM311.575 469.692C310.073 469.692 309.011 470.461 309.011 471.596C309.011 472.731 310.073 473.464 311.575 473.446C313.094 473.464 314.138 472.731 314.138 471.596C314.138 470.461 313.094 469.692 311.575 469.692ZM335.799 464.455V473.189H334.371V464.455H335.799ZM326.68 474.013V475.991H334.371V474.013H335.799V480.513H325.252V474.013H326.68ZM326.68 479.341H334.371V477.144H326.68V479.341ZM327.01 465.261C329.482 465.243 331.277 466.763 331.277 468.996C331.277 471.212 329.482 472.731 327.01 472.731C324.539 472.731 322.744 471.212 322.744 468.996C322.744 466.763 324.539 465.243 327.01 465.261ZM327.01 466.469C325.344 466.451 324.135 467.513 324.154 468.996C324.135 470.479 325.344 471.541 327.01 471.541C328.659 471.541 329.867 470.479 329.867 468.996C329.867 467.513 328.659 466.451 327.01 466.469ZM351.986 464.455V480.733H350.558V464.455H351.986ZM341.036 466.066V475.295C343.517 475.286 346.09 475.084 348.818 474.508L349.02 475.734C346.127 476.339 343.545 476.54 340.945 476.54H339.626V466.066H341.036ZM367.367 464.455V470.901H370.095V472.109H367.367V480.77H365.939V464.455H367.367ZM363.082 466.048V467.238H356.912V475.478C359.859 475.478 361.947 475.341 364.364 474.892L364.547 476.138C362.002 476.595 359.859 476.686 356.765 476.686H355.483V466.048H363.082ZM372.695 479.36C372.054 479.36 371.505 478.829 371.524 478.169C371.505 477.529 372.054 476.998 372.695 476.998C373.336 476.998 373.867 477.529 373.867 478.169C373.867 478.829 373.336 479.36 372.695 479.36ZM380.202 475.698C381.2 475.698 382.445 475.689 383.755 475.643V472.896C381.933 472.649 380.697 471.321 380.715 469.454C380.697 467.421 382.235 466.011 384.414 466.011C386.629 466.011 388.167 467.421 388.167 469.454C388.167 471.313 386.95 472.631 385.128 472.896V475.588C386.373 475.533 387.6 475.441 388.662 475.295L388.772 476.357C386.08 476.796 382.601 476.906 380.404 476.906L380.202 475.698ZM394.192 464.455V480.733H392.819V472.457H390.786V479.873H389.431V464.821H390.786V471.248H392.819V464.455H394.192ZM384.414 467.183C383.04 467.183 381.997 468.136 382.015 469.454C381.997 470.827 383.04 471.761 384.414 471.761C385.824 471.761 386.849 470.827 386.849 469.454C386.849 468.136 385.824 467.183 384.414 467.183ZM411.807 468.575V469.802H409.206V473.391H411.807V474.599H409.206V480.733H407.778V464.455H409.206V468.575H411.807ZM398.714 466.066V475.386C401.095 475.378 403.521 475.194 406.204 474.636L406.387 475.881C403.585 476.449 401.058 476.632 398.586 476.632H397.286V466.066H398.714ZM425.411 464.455V471.175H428.139V472.365H425.411V480.733H423.983V464.455H425.411ZM422.409 467.074V468.264H412.722V467.074H416.915V464.656H418.344V467.074H422.409ZM417.647 469.619C419.955 469.619 421.621 471.157 421.639 473.354C421.621 475.551 419.955 477.089 417.647 477.089C415.322 477.089 413.637 475.551 413.656 473.354C413.637 471.157 415.322 469.619 417.647 469.619ZM417.647 470.827C416.128 470.827 415.011 471.889 415.029 473.354C415.011 474.837 416.128 475.881 417.647 475.863C419.149 475.881 420.247 474.837 420.266 473.354C420.247 471.889 419.149 470.827 417.647 470.827ZM437.258 465.883V467.33H441.067V464.473H442.513V476.357H441.067V472.018H437.258V473.482H429.787V465.883H437.258ZM431.215 467.074V472.329H435.848V467.074H431.215ZM442.879 479.177V480.385H431.985V475.295H433.431V479.177H442.879ZM437.258 470.827H441.067V468.538H437.258V470.827ZM458.956 466.268V467.11C458.938 468.392 458.938 470.553 458.48 473.574L457.034 473.446C457.473 470.718 457.51 468.74 457.51 467.44H450.68V466.268H458.956ZM454.69 470.919V475.863C456.494 475.799 458.343 475.679 460.037 475.478L460.11 476.558C456.685 477.089 452.859 477.163 449.947 477.144L449.764 475.954C450.835 475.945 452.025 475.936 453.28 475.899V470.919H454.69ZM462.49 464.455V471.267H465.127V472.512H462.49V480.733H461.062V464.455H462.49ZM479.079 465.151V470.644H474.264V472.731H480.965V473.903H466.134V472.731H472.835V470.644H468.057V465.151H479.079ZM469.466 466.304V469.491H477.651V466.304H469.466ZM479.134 475.606V480.733H477.688V476.76H467.782V475.606H479.134ZM495.76 464.455V480.77H494.314V464.455H495.76ZM487.099 465.719C489.517 465.737 491.256 467.934 491.256 471.395C491.256 474.856 489.517 477.053 487.099 477.053C484.664 477.053 482.943 474.856 482.943 471.395C482.943 467.934 484.664 465.737 487.099 465.719ZM487.099 467C485.47 467.019 484.335 468.74 484.335 471.395C484.335 474.05 485.47 475.771 487.099 475.771C488.729 475.771 489.864 474.05 489.864 471.395C489.864 468.74 488.729 467.019 487.099 467ZM508.706 468.831C508.706 471.706 510.61 474.654 512.917 475.789L512.039 476.943C510.244 476 508.742 474.078 508.029 471.816C507.296 474.224 505.758 476.274 503.927 477.254L503.011 476.101C505.392 474.929 507.278 471.798 507.296 468.831V465.865H508.706V468.831ZM515.847 464.455V471.065H518.575V472.31H515.847V480.733H514.419V464.455H515.847ZM532.802 464.455V480.733H531.374V464.455H532.802ZM519.545 476.394C520.937 476.384 522.53 476.375 524.179 476.32V474.544C522.228 474.334 520.955 473.226 520.974 471.596C520.955 469.765 522.53 468.575 524.874 468.575C527.218 468.575 528.811 469.765 528.811 471.596C528.811 473.208 527.547 474.315 525.625 474.526V476.266C527.2 476.201 528.792 476.083 530.294 475.881L530.404 476.979C526.779 477.566 522.787 477.621 519.765 477.621L519.545 476.394ZM529.873 466.469V467.641H519.894V466.469H524.179V464.473H525.625V466.469H529.873ZM524.874 469.692C523.372 469.692 522.31 470.461 522.31 471.596C522.31 472.731 523.372 473.464 524.874 473.446C526.394 473.464 527.437 472.731 527.437 471.596C527.437 470.461 526.394 469.692 524.874 469.692ZM549.08 464.455V480.77H547.634V464.455H549.08ZM540.42 465.719C542.837 465.737 544.576 467.934 544.576 471.395C544.576 474.856 542.837 477.053 540.42 477.053C537.984 477.053 536.263 474.856 536.263 471.395C536.263 467.934 537.984 465.737 540.42 465.719ZM540.42 467C538.79 467.019 537.655 468.74 537.655 471.395C537.655 474.05 538.79 475.771 540.42 475.771C542.049 475.771 543.185 474.05 543.185 471.395C543.185 468.74 542.049 467.019 540.42 467ZM565.322 464.455V480.733H563.875V464.455H565.322ZM560.507 466.231C560.488 470.919 558.309 475.057 552.852 477.675L552.065 476.503C556.469 474.416 558.712 471.294 559.042 467.403H552.816V466.231H560.507ZM583.559 464.821V471.12H585.537V464.455H586.91V480.733H585.537V472.31H583.559V479.928H582.223V464.821H583.559ZM576.803 466.524V467.714H574.605V475.258C575.219 475.24 576.025 475.167 576.913 474.947L577.041 476.174C575.667 476.485 574.605 476.485 573.91 476.485H573.269V466.524H576.803ZM581.124 466.524V467.714H578.817V475.258C579.577 475.249 580.483 475.176 581.472 474.892L581.6 476.119C580.245 476.485 579.128 476.485 578.176 476.485H577.517V466.524H581.124ZM603.866 472.786V473.976H597.237V477.309H595.809V473.976H588.961V472.786H603.866ZM601.925 465.261V470.919H590.902V465.261H601.925ZM592.312 466.396V469.765H600.497V466.396H592.312ZM602.2 479.177V480.385H590.865V475.698H592.312V479.177H602.2ZM618.606 464.455V480.77H617.159V464.455H618.606ZM609.945 465.719C612.362 465.737 614.101 467.934 614.101 471.395C614.101 474.856 612.362 477.053 609.945 477.053C607.51 477.053 605.789 474.856 605.789 471.395C605.789 467.934 607.51 465.737 609.945 465.719ZM609.945 467C608.315 467.019 607.18 468.74 607.18 471.395C607.18 474.05 608.315 475.771 609.945 475.771C611.575 475.771 612.71 474.05 612.71 471.395C612.71 468.74 611.575 467.019 609.945 467ZM626.919 473.757V477.493H630.744V473.757H632.175V477.493H636.294V478.701H621.389V477.493H625.494V473.757H626.919ZM629.556 467.403C629.556 470.021 632.781 472.237 635.581 472.695L634.994 473.848C632.506 473.354 629.875 471.761 628.844 469.509C627.787 471.779 625.169 473.409 622.725 473.903L622.122 472.75C624.868 472.292 628.075 470.021 628.075 467.403V467.11H622.616V465.92H635.012V467.11H629.556V467.403Z" fill="black"/>
<path d="M951.494 625.225H886.293C869.953 625.225 856.706 638.471 856.706 654.812C856.706 671.152 869.953 684.399 886.293 684.399H951.494C967.834 684.399 981.081 671.152 981.081 654.812C981.081 638.471 967.834 625.225 951.494 625.225Z" fill="white"/>
<path d="M951.494 625.225H886.293C869.953 625.225 856.706 638.471 856.706 654.812C856.706 671.152 869.953 684.399 886.293 684.399H951.494C967.834 684.399 981.081 671.152 981.081 654.812C981.081 638.471 967.834 625.225 951.494 625.225Z" stroke="black"/>
<path d="M877.95 641.025V641.581H872.019V638.456H877.9V639.012H872.794V639.731H877.669V640.262H872.794V641.025H877.95ZM878.888 642.25V642.862H870.988V642.25H878.888ZM877.869 643.525V645.4H872.713V646.244H878.138V646.819H871.95V644.856H877.119V644.094H871.931V643.525H877.869ZM886.775 638.244V644.631H886.025V638.244H886.775ZM887.031 646.087V646.731H881.081V644.131H881.856V646.087H887.031ZM884.025 638.862V641.369H880.819V642.756C882.431 642.756 883.575 642.706 884.95 642.462L885.031 643.1C883.613 643.344 882.444 643.387 880.781 643.4H880.075V640.762H883.263V639.487H880.056V638.862H884.025ZM898.713 642.675V643.312H895.175V645.087H894.413V643.312H890.763V642.675H898.713ZM897.675 638.662V641.681H891.8V638.662H897.675ZM892.55 639.269V641.069H896.913V639.269H892.55ZM897.825 646.087V646.731H891.775V644.231H892.55V646.087H897.825ZM906.838 638.237V646.919H906.106V638.237H906.838ZM905.075 638.45V646.469H904.356V641.994H902.888V641.369H904.356V638.45H905.075ZM901.963 640.712C901.963 642.219 902.638 643.712 903.838 644.406L903.369 644.975C902.513 644.462 901.906 643.525 901.613 642.412C901.294 643.612 900.663 644.631 899.794 645.175L899.306 644.6C900.519 643.881 901.219 642.3 901.219 640.712V639.894H899.55V639.262H903.556V639.894H901.963V640.712ZM910.9 638.869C912.263 638.869 913.231 639.7 913.231 640.912C913.231 642.119 912.263 642.95 910.9 642.95C909.531 642.95 908.544 642.119 908.556 640.912C908.544 639.7 909.531 638.869 910.9 638.869ZM910.9 639.544C909.969 639.544 909.3 640.1 909.306 640.912C909.3 641.719 909.969 642.275 910.9 642.275C911.819 642.275 912.481 641.719 912.481 640.912C912.481 640.1 911.819 639.544 910.9 639.544ZM915.175 638.237V646.937H914.413V638.237H915.175ZM908.106 644.369C909.706 644.369 911.913 644.356 913.838 644.075L913.894 644.637C911.913 645.012 909.775 645.019 908.213 645.019L908.106 644.369ZM923.163 638.8C925.013 638.812 926.338 639.706 926.338 641.075C926.338 642.369 925.188 643.231 923.538 643.331V645.156H927.156V645.8H919.206V645.156H922.781V643.331C921.138 643.225 919.988 642.362 919.988 641.075C919.988 639.706 921.319 638.812 923.163 638.8ZM923.163 639.437C921.756 639.437 920.731 640.1 920.731 641.075C920.731 642.081 921.756 642.725 923.163 642.737C924.569 642.725 925.594 642.081 925.594 641.075C925.594 640.1 924.569 639.437 923.163 639.437ZM934.638 638.237V640.275H935.95V640.919H934.638V642.862H933.875V638.237H934.638ZM932.113 638.812V639.444H929.025V641.925C930.769 641.925 931.756 641.875 932.919 641.631L933.019 642.269C931.8 642.512 930.763 642.569 928.938 642.569H928.263V638.812H932.113ZM929.9 643.331V644.419H933.875V643.331H934.638V646.769H929.138V643.331H929.9ZM929.9 646.137H933.875V645.031H929.9V646.137ZM941.306 639.2V639.65C941.3 640.331 941.3 641.487 941.056 643.1L940.281 643.031C940.519 641.575 940.538 640.519 940.538 639.825H936.894V639.2H941.306ZM939.031 641.681V644.319C939.994 644.281 940.981 644.219 941.888 644.112L941.925 644.687C940.1 644.975 938.056 645.012 936.506 645L936.406 644.369C936.975 644.362 937.613 644.356 938.281 644.337V641.681H939.031ZM943.194 638.237V641.869H944.6V642.531H943.194V646.919H942.431V638.237H943.194ZM954.844 638.237V643.412H954.075V641.137H952.325V640.5H954.075V638.237H954.844ZM951.963 643.681C953.769 643.681 954.875 644.269 954.875 645.294C954.875 646.319 953.769 646.906 951.963 646.919C950.156 646.906 949.05 646.319 949.05 645.294C949.05 644.269 950.156 643.681 951.963 643.681ZM951.963 644.281C950.638 644.281 949.806 644.662 949.813 645.294C949.806 645.919 950.638 646.3 951.963 646.3C953.294 646.3 954.113 645.919 954.113 645.294C954.113 644.662 953.294 644.281 951.963 644.281ZM950.663 639.825C950.663 640.956 951.531 642.031 952.8 642.475L952.4 643.087C951.425 642.737 950.669 642.006 950.3 641.106C949.925 642.125 949.119 642.944 948.088 643.331L947.688 642.719C948.975 642.25 949.894 641.075 949.894 639.837V639.512H947.931V638.869H952.606V639.512H950.663V639.825ZM963.075 638.237V640.275H964.388V640.919H963.075V642.862H962.313V638.237H963.075ZM960.55 638.812V639.444H957.463V641.925C959.206 641.925 960.194 641.875 961.356 641.631L961.456 642.269C960.238 642.512 959.2 642.569 957.375 642.569H956.7V638.812H960.55ZM958.338 643.331V644.419H962.313V643.331H963.075V646.769H957.575V643.331H958.338ZM958.338 646.137H962.313V645.031H958.338V646.137ZM966.356 645.469L965.594 648.125H964.875L965.413 645.469H966.356ZM878.138 650.344V650.937H876.8V652.6H878.106V653.206H871.75V652.6H873.056V650.937H871.719V650.344H878.138ZM878.888 653.919V654.544H875.3V655.394H877.869V657.275H872.713V658.106H878.138V658.694H871.95V656.719H877.119V655.969H871.931V655.394H874.544V654.544H870.975V653.919H878.888ZM873.819 652.6H876.038V650.937H873.819V652.6ZM886.775 650.112V658.812H886.006V650.112H886.775ZM882.156 650.781C883.45 650.794 884.375 651.962 884.375 653.812C884.375 655.656 883.45 656.825 882.156 656.825C880.863 656.825 879.944 655.656 879.944 653.812C879.944 651.962 880.863 650.794 882.156 650.781ZM882.156 651.469C881.288 651.475 880.681 652.394 880.681 653.812C880.681 655.225 881.288 656.144 882.156 656.144C883.025 656.144 883.631 655.225 883.631 653.812C883.631 652.394 883.025 651.475 882.156 651.469ZM895.138 650.112V653.694H896.456V654.337H895.138V658.794H894.363V650.112H895.138ZM890.9 651.056C890.888 653.125 890.419 655.156 888.85 656.825L888.231 656.387C889.544 655.044 890.075 653.431 890.175 651.7H888.506V651.056H890.9ZM893.281 651.056C893.269 653.119 892.969 655.512 891.35 657.406L890.725 656.975C892.081 655.444 892.488 653.512 892.556 651.7H891.175V651.056H893.281ZM900.013 652.775C900.013 654.25 901.081 655.744 902.363 656.3L901.931 656.906C900.919 656.444 900.038 655.444 899.638 654.237C899.231 655.512 898.356 656.625 897.363 657.119L896.906 656.512C898.144 655.919 899.231 654.281 899.238 652.775V651.644H897.188V651.006H902.081V651.644H900.013V652.775ZM904.063 650.112V658.794H903.294V650.112H904.063ZM914.844 650.119V652.981H916.15V653.625H914.844V656.625H914.081V650.119H914.844ZM913.25 651.181V651.806H908.075V651.181H910.281V650.119H911.044V651.181H913.25ZM910.663 652.287C911.906 652.287 912.744 652.925 912.756 653.906C912.744 654.887 911.906 655.512 910.663 655.512C909.413 655.512 908.563 654.887 908.575 653.906C908.563 652.925 909.413 652.287 910.663 652.287ZM910.663 652.894C909.844 652.894 909.3 653.294 909.306 653.906C909.3 654.525 909.844 654.912 910.663 654.906C911.475 654.912 912.019 654.525 912.031 653.906C912.019 653.294 911.475 652.894 910.663 652.894ZM915.244 657.962V658.606H909.413V656.106H910.169V657.962H915.244ZM926.406 650.119V656.544H925.638V653.206H923.581V655.062H919.65V650.694H920.413V652.237H922.831V650.694H923.581V652.562H925.638V650.119H926.406ZM926.6 657.962V658.606H920.794V655.912H921.563V657.962H926.6ZM920.413 654.425H922.831V652.844H920.413V654.425ZM935.294 650.112V658.794H934.55V650.112H935.294ZM933.544 650.294V658.35H932.813V654.131H931.7C931.619 655.825 930.9 656.875 929.825 656.875C928.694 656.875 927.956 655.706 927.956 653.862C927.956 652.012 928.694 650.844 929.825 650.844C930.881 650.844 931.594 651.862 931.688 653.5H932.813V650.294H933.544ZM929.825 651.562C929.119 651.562 928.675 652.444 928.681 653.862C928.675 655.262 929.119 656.156 929.825 656.144C930.525 656.156 930.975 655.262 930.975 653.862C930.975 652.444 930.525 651.562 929.825 651.562ZM872.794 662.131V662.962H877.088V662.131H877.85V664.981H875.294V665.844H878.888V666.469H870.975V665.844H874.544V664.981H872.031V662.131H872.794ZM872.794 664.387H877.088V663.55H872.794V664.387ZM877.869 667.187V669.112H872.713V669.962H878.138V670.569H871.95V668.55H877.119V667.775H871.931V667.187H877.869ZM886.488 662.794C886.488 664.012 888.088 665.081 889.65 665.294L889.338 665.919C887.988 665.694 886.656 664.95 886.094 663.881C885.538 664.95 884.2 665.694 882.85 665.919L882.538 665.294C884.1 665.081 885.694 664.037 885.694 662.794V662.3H886.488V662.794ZM890.038 666.875V667.519H886.444V670.669H885.694V667.519H882.131V666.875H890.038ZM896.219 667.812C896.219 668.581 896.631 669.394 897.463 669.862C898.281 669.35 898.719 668.487 898.719 667.812V667.337H899.475V667.812C899.475 668.7 900.125 669.6 901.238 669.981L900.863 670.55C899.988 670.244 899.381 669.637 899.081 668.906C898.813 669.612 898.281 670.275 897.481 670.619C896.638 670.294 896.1 669.656 895.838 668.925C895.531 669.631 894.931 670.237 894.1 670.55L893.713 669.981C894.806 669.575 895.469 668.644 895.481 667.812V667.337H896.219V667.812ZM900.45 661.994V666.956H899.688V661.994H900.45ZM895.763 662.5C897.081 662.5 898.038 663.325 898.038 664.531C898.038 665.725 897.081 666.544 895.763 666.544C894.444 666.544 893.488 665.725 893.488 664.531C893.488 663.325 894.444 662.5 895.763 662.5ZM895.763 663.156C894.875 663.144 894.231 663.725 894.238 664.531C894.231 665.331 894.875 665.9 895.763 665.912C896.638 665.9 897.288 665.331 897.288 664.531C897.288 663.725 896.638 663.144 895.763 663.156ZM904.256 662.656C905.438 662.669 906.288 663.681 906.419 665.306H908.363V661.987H909.119V670.687H908.363V665.937H906.425C906.331 667.637 905.469 668.7 904.256 668.7C902.981 668.7 902.081 667.531 902.081 665.687C902.081 663.837 902.981 662.669 904.256 662.656ZM904.256 663.344C903.4 663.35 902.813 664.269 902.813 665.687C902.813 667.1 903.4 668.019 904.256 668.019C905.106 668.019 905.7 667.1 905.7 665.687C905.7 664.269 905.106 663.35 904.256 663.344ZM918.513 668.906V669.55H910.569V668.906H912.538V666.562C911.8 666.181 911.35 665.556 911.35 664.769C911.35 663.419 912.669 662.544 914.519 662.531C916.375 662.544 917.694 663.419 917.694 664.769C917.694 665.537 917.263 666.156 916.544 666.544V668.906H918.513ZM914.519 663.169C913.094 663.156 912.088 663.8 912.088 664.769C912.088 665.737 913.094 666.387 914.519 666.387C915.938 666.387 916.95 665.737 916.95 664.769C916.95 663.8 915.938 663.156 914.519 663.169ZM913.294 668.906H915.769V666.837C915.394 666.937 914.975 666.994 914.519 666.994C914.075 666.994 913.663 666.944 913.294 666.85V668.906Z" fill="black"/>
<path d="M862.994 636.406L832.5 621.75" stroke="black"/>
</g>
<path d="M1099.38 746.75H1026.25C1022.8 746.75 1020 749.548 1020 753V774.875C1020 778.327 1022.8 781.125 1026.25 781.125H1099.38C1102.83 781.125 1105.62 778.327 1105.62 774.875V753C1105.62 749.548 1102.83 746.75 1099.38 746.75Z" fill="#265CFF"/>
<path d="M1044.09 757.881H1045.24V770.337H1044.09V757.881ZM1044.97 762.787H1047.28V763.75H1044.97V762.787ZM1036.21 766.281H1037.19C1039.48 766.281 1041.09 766.2 1042.95 765.856L1043.07 766.818C1041.16 767.175 1039.52 767.243 1037.19 767.243H1036.21V766.281ZM1036.21 759.087H1041.99V760.025H1037.34V766.706H1036.21V759.087ZM1053.94 758.168C1056.62 758.168 1058.32 759.05 1058.32 760.518C1058.32 761.987 1056.62 762.856 1053.94 762.856C1051.25 762.856 1049.57 761.987 1049.57 760.518C1049.57 759.05 1051.25 758.168 1053.94 758.168ZM1053.94 759.075C1051.97 759.075 1050.74 759.6 1050.74 760.518C1050.74 761.425 1051.97 761.962 1053.94 761.962C1055.91 761.962 1057.15 761.425 1057.15 760.518C1057.15 759.6 1055.91 759.075 1053.94 759.075ZM1049.7 766.062H1058.18V770.156H1049.7V766.062ZM1057.07 766.981H1050.82V769.237H1057.07V766.981ZM1048.32 763.931H1059.56V764.85H1048.32V763.931ZM1064.84 764.243H1076.1V765.181H1064.84V764.243ZM1069.98 764.825H1071.12V767.681H1069.98V764.825ZM1066.28 758.468H1074.64V762.843H1066.28V758.468ZM1073.51 759.393H1067.39V761.918H1073.51V759.393ZM1066.27 769.112H1074.85V770.05H1066.27V769.112ZM1066.27 766.487H1067.39V769.443H1066.27V766.487ZM1086.95 757.893H1088.05V770.325H1086.95V757.893ZM1082.42 762.35H1084.8V763.293H1082.42V762.35ZM1084.46 758.181H1085.53V769.687H1084.46V758.181ZM1080.03 759.818H1080.91V761.4C1080.91 764.118 1079.87 766.693 1078.04 767.85L1077.34 766.993C1079.07 765.95 1080.03 763.681 1080.03 761.4V759.818ZM1080.26 759.818H1081.14V761.4C1081.14 763.556 1082.08 765.718 1083.79 766.706L1083.08 767.543C1081.27 766.443 1080.26 764 1080.26 761.4V759.818ZM1077.68 759.337H1083.36V760.287H1077.68V759.337Z" fill="white"/>
<path d="M1096.25 340.812H103.75C99.0901 340.812 95.3125 344.59 95.3125 349.25V405.5C95.3125 410.16 99.0901 413.938 103.75 413.938H1096.25C1100.91 413.938 1104.69 410.16 1104.69 405.5V349.25C1104.69 344.59 1100.91 340.812 1096.25 340.812Z" fill="#E4F9F3"/>
<path d="M1096.25 340.812H103.75C99.0901 340.812 95.3125 344.59 95.3125 349.25V405.5C95.3125 410.16 99.0901 413.938 103.75 413.938H1096.25C1100.91 413.938 1104.69 410.16 1104.69 405.5V349.25C1104.69 344.59 1100.91 340.812 1096.25 340.812Z" stroke="#FF3951" stroke-width="3"/>
<path d="M614.423 369.25V384.986H613.043V369.25H614.423ZM601.608 380.791C602.954 380.782 604.493 380.773 606.087 380.72V379.003C604.202 378.799 602.972 377.728 602.989 376.153C602.972 374.383 604.493 373.233 606.759 373.233C609.025 373.233 610.565 374.383 610.565 376.153C610.565 377.711 609.343 378.781 607.485 378.985V380.667C609.007 380.604 610.547 380.489 611.998 380.295L612.105 381.357C608.6 381.923 604.742 381.976 601.821 381.976L601.608 380.791ZM611.592 371.197V372.33H601.945V371.197H606.087V369.268H607.485V371.197H611.592ZM606.759 374.312C605.308 374.312 604.282 375.056 604.282 376.153C604.282 377.251 605.308 377.959 606.759 377.941C608.228 377.959 609.237 377.251 609.237 376.153C609.237 375.056 608.228 374.312 606.759 374.312Z" fill="black"/>
<path d="M591.13 373.481C591.13 376.259 592.971 379.109 595.201 380.206L594.351 381.321C592.617 380.41 591.165 378.551 590.475 376.366C589.767 378.693 588.28 380.676 586.51 381.623L585.625 380.508C587.926 379.374 589.749 376.347 589.767 373.481V370.613H591.13V373.481ZM598.033 369.25V375.64H600.67V376.843H598.033V384.986H596.652V369.25H598.033Z" fill="black"/>
<path d="M1096.25 238.312H103.75C99.0901 238.312 95.3125 242.09 95.3125 246.75V303C95.3125 307.66 99.0901 311.438 103.75 311.438H1096.25C1100.91 311.438 1104.69 307.66 1104.69 303V246.75C1104.69 242.09 1100.91 238.312 1096.25 238.312Z" fill="#E4F9F3"/>
<path d="M1096.25 238.312H103.75C99.0901 238.312 95.3125 242.09 95.3125 246.75V303C95.3125 307.66 99.0901 311.438 103.75 311.438H1096.25C1100.91 311.438 1104.69 307.66 1104.69 303V246.75C1104.69 242.09 1100.91 238.312 1096.25 238.312Z" stroke="#68F665" stroke-width="3"/>
<path d="M614.423 266.75V282.486H613.043V266.75H614.423ZM601.608 278.291C602.954 278.282 604.493 278.273 606.087 278.22V276.503C604.202 276.299 602.972 275.228 602.989 273.653C602.972 271.883 604.493 270.733 606.759 270.733C609.025 270.733 610.565 271.883 610.565 273.653C610.565 275.211 609.343 276.281 607.485 276.485V278.167C609.007 278.104 610.547 277.989 611.998 277.795L612.105 278.857C608.6 279.423 604.742 279.476 601.821 279.476L601.608 278.291ZM611.592 268.697V269.83H601.945V268.697H606.087V266.768H607.485V268.697H611.592ZM606.759 271.813C605.308 271.813 604.282 272.556 604.282 273.653C604.282 274.751 605.308 275.459 606.759 275.441C608.228 275.459 609.237 274.751 609.237 273.653C609.237 272.556 608.228 271.813 606.759 271.813Z" fill="black"/>
<path d="M591.13 270.981C591.13 273.759 592.971 276.609 595.201 277.706L594.351 278.821C592.617 277.91 591.165 276.051 590.475 273.866C589.767 276.193 588.28 278.176 586.51 279.122L585.625 278.007C587.926 276.874 589.749 273.848 589.767 270.981V268.113H591.13V270.981ZM598.033 266.75V273.14H600.67V274.343H598.033V282.486H596.652V266.75H598.033Z" fill="black"/>
</g>
<path d="M1199.69 0.8125H0.3125V802.688H1199.69V0.8125Z" stroke="black"/>
</g>
<defs>
<filter id="filter0_d_3033_2282" x="-4" y="0.5" width="1208" height="51.75" filterUnits="userSpaceOnUse" color-interpolation-filters="sRGB">
<feFlood flood-opacity="0" result="BackgroundImageFix"/>
<feColorMatrix in="SourceAlpha" type="matrix" values="0 0 0 0 0 0 0 0 0 0 0 0 0 0 0 0 0 0 127 0" result="hardAlpha"/>
<feOffset dy="4"/>
<feGaussianBlur stdDeviation="2"/>
<feComposite in2="hardAlpha" operator="out"/>
<feColorMatrix type="matrix" values="0 0 0 0 0.748333 0 0 0 0 0.748333 0 0 0 0 0.748333 0 0 0 0.25 0"/>
<feBlend mode="normal" in2="BackgroundImageFix" result="effect1_dropShadow_3033_2282"/>
<feBlend mode="normal" in="SourceGraphic" in2="effect1_dropShadow_3033_2282" result="shape"/>
</filter>
<filter id="filter1_d_3033_2282" x="1031" y="11.125" width="79.25" height="30.5" filterUnits="userSpaceOnUse" color-interpolation-filters="sRGB">
<feFlood flood-opacity="0" result="BackgroundImageFix"/>
<feColorMatrix in="SourceAlpha" type="matrix" values="0 0 0 0 0 0 0 0 0 0 0 0 0 0 0 0 0 0 127 0" result="hardAlpha"/>
<feOffset dy="4"/>
<feGaussianBlur stdDeviation="2"/>
<feComposite in2="hardAlpha" operator="out"/>
<feColorMatrix type="matrix" values="0 0 0 0 0.62 0 0 0 0 0.62 0 0 0 0 0.62 0 0 0 0.25 0"/>
<feBlend mode="normal" in2="BackgroundImageFix" result="effect1_dropShadow_3033_2282"/>
<feBlend mode="normal" in="SourceGraphic" in2="effect1_dropShadow_3033_2282" result="shape"/>
</filter>
<filter id="filter2_i_3033_2282" x="94.375" y="86.75" width="1011.25" height="120.625" filterUnits="userSpaceOnUse" color-interpolation-filters="sRGB">
<feFlood flood-opacity="0" result="BackgroundImageFix"/>
<feBlend mode="normal" in="SourceGraphic" in2="BackgroundImageFix" result="shape"/>
<feColorMatrix in="SourceAlpha" type="matrix" values="0 0 0 0 0 0 0 0 0 0 0 0 0 0 0 0 0 0 127 0" result="hardAlpha"/>
<feOffset/>
<feGaussianBlur stdDeviation="5"/>
<feComposite in2="hardAlpha" operator="arithmetic" k2="-1" k3="1"/>
<feColorMatrix type="matrix" values="0 0 0 0 0.404167 0 0 0 0 0.404167 0 0 0 0 0.404167 0 0 0 0.25 0"/>
<feBlend mode="normal" in2="shape" result="effect1_innerShadow_3033_2282"/>
</filter>
<filter id="filter3_i_3033_2282" x="94.375" y="442.375" width="1011.25" height="286.25" filterUnits="userSpaceOnUse" color-interpolation-filters="sRGB">
<feFlood flood-opacity="0" result="BackgroundImageFix"/>
<feBlend mode="normal" in="SourceGraphic" in2="BackgroundImageFix" result="shape"/>
<feColorMatrix in="SourceAlpha" type="matrix" values="0 0 0 0 0 0 0 0 0 0 0 0 0 0 0 0 0 0 127 0" result="hardAlpha"/>
<feOffset/>
<feGaussianBlur stdDeviation="5"/>
<feComposite in2="hardAlpha" operator="arithmetic" k2="-1" k3="1"/>
<feColorMatrix type="matrix" values="0 0 0 0 0.404167 0 0 0 0 0.404167 0 0 0 0 0.404167 0 0 0 0.25 0"/>
<feBlend mode="normal" in2="shape" result="effect1_innerShadow_3033_2282"/>
</filter>
<clipPath id="clip0_3033_2282">
<rect width="1200" height="802.5" fill="white" transform="translate(0 0.5)"/>
</clipPath>
</defs>
</svg>
