<svg width="27" height="29" viewBox="0 0 27 29" fill="none" xmlns="http://www.w3.org/2000/svg">
<path d="M22.1684 8.54939L21.2085 7.57843C19.3906 5.73907 16.9866 4.61176 14.4242 4.39708C11.8618 4.1824 9.30718 4.89427 7.21491 6.40603C5.12264 7.91779 3.62841 10.1314 2.99807 12.653C2.36774 15.1746 2.64218 17.8406 3.77257 20.1767C4.90296 22.5128 6.81599 24.3675 9.17128 25.4108C11.5266 26.454 14.1713 26.6182 16.6351 25.8741C19.0988 25.13 21.2216 23.5258 22.6259 21.347C24.0301 19.1682 24.6248 16.5562 24.3039 13.9755M22.1684 8.54939L16.4079 8.55076M22.1684 8.54939V2.72223" stroke="#50555C" stroke-width="4" stroke-linecap="round" stroke-linejoin="round"/>
</svg>
