<svg width="60" height="18" viewBox="0 0 60 18" fill="none" xmlns="http://www.w3.org/2000/svg">
<path d="M8.62 15.1C6.07333 15.1 4.1 14.4933 2.7 13.28C1.3 12.0533 0.6 10.24 0.6 7.84C0.6 5.45333 1.3 3.65333 2.7 2.44C4.1 1.21333 6.12 0.599999 8.76 0.599999H12.36C15 0.599999 17.02 1.21333 18.42 2.44C19.82 3.65333 20.52 5.45333 20.52 7.84C20.52 10.24 19.82 12.0533 18.42 13.28C17.02 14.4933 15.0333 15.1 12.46 15.1H12.2V17.2H9V15.1H8.62ZM12.2 10V12.5C13.92 12.4867 15.1933 12.1133 16.02 11.38C16.8467 10.6467 17.26 9.46667 17.26 7.84C17.26 6.21333 16.84 5.03333 16 4.3C15.1733 3.56667 13.8867 3.2 12.14 3.2H8.98C7.24667 3.2 5.96 3.56667 5.12 4.3C4.28 5.03333 3.86 6.21333 3.86 7.84C3.86 9.46667 4.28 10.6533 5.12 11.4C5.96 12.1333 7.25333 12.5 9 12.5V10H12.2ZM21.9133 10.32V8.02H28.0333V10.32H21.9133ZM29.9281 15V4.7H32.8281V15H29.9281ZM29.9081 3V0.739999H32.8481V3H29.9081ZM35.0258 15V4.7H44.0058C45.1791 4.7 46.0324 4.99333 46.5658 5.58C47.1124 6.15333 47.3858 6.91333 47.3858 7.86V15H44.4858V8.2C44.4858 7.4 44.0858 7 43.2858 7H37.9258V15H35.0258ZM54.8389 15C53.6789 15 52.8256 14.7133 52.2789 14.14C51.7322 13.5533 51.4589 12.7867 51.4589 11.84V7H48.4789V4.7H51.4589V1.54H54.3589V4.7H58.6389V7H54.3589V11.48C54.3589 12.2933 54.7589 12.7 55.5589 12.7H59.1989V15H54.8389Z" fill="black"/>
</svg>
