<svg width="375" height="34" viewBox="0 0 375 34" fill="none" xmlns="http://www.w3.org/2000/svg">
<path d="M16.24 29.2C11.1467 29.2 7.2 27.9867 4.4 25.56C1.6 23.1067 0.2 19.48 0.2 14.68C0.2 9.90667 1.6 6.30667 4.4 3.88C7.2 1.42667 11.24 0.199999 16.52 0.199999H23.72C29 0.199999 33.04 1.42667 35.84 3.88C38.64 6.30667 40.04 9.90667 40.04 14.68C40.04 19.48 38.64 23.1067 35.84 25.56C33.04 27.9867 29.0667 29.2 23.92 29.2H23.4V33.4H17V29.2H16.24ZM23.4 19V24C26.84 23.9733 29.3867 23.2267 31.04 21.76C32.6933 20.2933 33.52 17.9333 33.52 14.68C33.52 11.4267 32.68 9.06667 31 7.6C29.3467 6.13333 26.7733 5.4 23.28 5.4H16.96C13.4933 5.4 10.92 6.13333 9.24 7.6C7.56 9.06667 6.72 11.4267 6.72 14.68C6.72 17.9333 7.56 20.3067 9.24 21.8C10.92 23.2667 13.5067 24 17 24V19H23.4ZM49.9866 29C47.6399 29 45.9199 28.4133 44.8266 27.24C43.7599 26.0667 43.2266 24.5467 43.2266 22.68V8.4H49.0266V22C49.0266 23.6 49.8266 24.4 51.4266 24.4H59.7466C61.3466 24.4 62.1466 23.6 62.1466 22V8.4H67.9466V22.68C67.9466 24.5467 67.3999 26.0667 66.3066 27.24C65.2399 28.4133 63.5332 29 61.1866 29H49.9866ZM72.1375 29V8.4H77.9375V29H72.1375ZM72.0975 5V0.479998H77.9775V5H72.0975ZM92.8928 29.2C89.3195 29.2 86.5328 28.32 84.5328 26.56C82.5328 24.7733 81.5328 22.16 81.5328 18.72C81.5328 15.2533 82.5328 12.64 84.5328 10.88C86.5328 9.09333 89.3195 8.2 92.8928 8.2H106.293V12.8H92.8928C91.1595 12.8 89.8261 13.28 88.8928 14.24C87.9861 15.2 87.5328 16.6933 87.5328 18.72C87.5328 20.72 87.9861 22.2 88.8928 23.16C89.8261 24.12 91.1595 24.6 92.8928 24.6H106.693V29.2H92.8928ZM109.677 29V0.399999H115.477V8.4H129.317C131.663 8.4 133.45 8.96 134.677 10.08C135.93 11.1733 136.557 12.7467 136.557 14.8C136.557 18.16 134.957 20.16 131.757 20.8L136.637 29H130.117L125.397 21.04H115.477V29H109.677ZM129.037 12.96H115.477V16.48H129.037C129.57 16.48 129.983 16.32 130.277 16C130.597 15.68 130.757 15.24 130.757 14.68C130.757 13.5333 130.183 12.96 129.037 12.96ZM154.208 29V8.4H160.008V29H154.208ZM154.168 5V0.479998H160.048V5H154.168ZM164.403 29V8.4H182.363C184.71 8.4 186.416 8.98667 187.483 10.16C188.576 11.3067 189.123 12.8267 189.123 14.72V29H183.323V15.4C183.323 13.8 182.523 13 180.923 13H170.203V29H164.403ZM204.029 29C201.709 29 200.003 28.4267 198.909 27.28C197.816 26.1067 197.269 24.5733 197.269 22.68V13H191.309V8.4H197.269V2.08H203.069V8.4H211.629V13H203.069V21.96C203.069 23.5867 203.869 24.4 205.469 24.4H212.749V29H204.029ZM226.291 29.2C222.718 29.2 219.931 28.32 217.931 26.56C215.931 24.7733 214.931 22.16 214.931 18.72C214.931 15.2533 215.931 12.64 217.931 10.88C219.931 9.09333 222.718 8.2 226.291 8.2H236.291C238.638 8.2 240.425 8.76 241.651 9.88C242.905 10.9733 243.531 12.5467 243.531 14.6C243.531 18.7867 241.118 20.88 236.291 20.88H221.171C221.731 23.36 223.438 24.6 226.291 24.6H242.491V29.2H226.291ZM226.291 12.8C223.545 12.8 221.851 13.96 221.211 16.28H236.011C236.545 16.28 236.958 16.12 237.251 15.8C237.571 15.48 237.731 15.04 237.731 14.48C237.731 13.36 237.158 12.8 236.011 12.8H226.291ZM247.138 29V8.4H262.898C265.218 8.4 266.924 8.98667 268.018 10.16C269.111 11.3067 269.658 12.8267 269.658 14.72V19H263.778V15.44C263.778 13.84 262.978 13.04 261.378 13.04H253.018V29H247.138ZM279.721 29L271.041 8.4H277.121L283.841 24.36H285.841L292.561 8.4H298.641L289.961 29H279.721ZM301.239 29V8.4H307.039V29H301.239ZM301.199 5V0.479998H307.079V5H301.199ZM321.994 29.2C318.421 29.2 315.634 28.32 313.634 26.56C311.634 24.7733 310.634 22.16 310.634 18.72C310.634 15.2533 311.634 12.64 313.634 10.88C315.634 9.09333 318.421 8.2 321.994 8.2H331.994C334.341 8.2 336.128 8.76 337.354 9.88C338.608 10.9733 339.234 12.5467 339.234 14.6C339.234 18.7867 336.821 20.88 331.994 20.88H316.874C317.434 23.36 319.141 24.6 321.994 24.6H338.194V29.2H321.994ZM321.994 12.8C319.248 12.8 317.554 13.96 316.914 16.28H331.714C332.248 16.28 332.661 16.12 332.954 15.8C333.274 15.48 333.434 15.04 333.434 14.48C333.434 13.36 332.861 12.8 331.714 12.8H321.994ZM343.801 29L341.841 8.4H347.681L349.041 24.04L355.241 21.24V8.4H361.041V21.28L367.241 24.04L368.601 8.4H374.441L372.481 29H367.001L358.121 25.08L349.281 29H343.801Z" fill="#00EDA6"/>
</svg>
